<svg xmlns="http://www.w3.org/2000/svg" width="128" height="35" viewBox="0 0 128 35">
    <g fill="none" fill-rule="evenodd">
        <g>
            <g>
                <g fill="#ED589D">
                    <path d="M73.58 10.934c-.034-.16-.064-.404-.14-.633-.15-.447-.34-.563-.803-.522-.407.036-.73.197-.878.608-.144.404-.045.752.27 1.028.181.16.376.318.594.416.508.229.81.061.922-.48.022-.108.02-.221.036-.417m15.349 2.242c.14-.019.28-.017.408-.055 1.41-.415 2.47-1.258 3.077-2.607.17-.375.384-.836.012-1.199-.366-.358-.859-.276-1.265-.071-.656.333-1.314.688-1.899 1.128-.476.361-.886.832-1.253 1.31-.48.62-.233 1.222.528 1.428.13.034.264.044.392.066M66.275 18.67c0 .224-.021.45.005.673.074.676.466.967 1.115.777.38-.113.768-.277 1.092-.502 1.39-.971 2.6-2.131 3.538-3.558.073-.111.143-.228.199-.35.306-.643.14-1.108-.475-1.463-.425-.245-.834-.52-1.23-.812-.268-.2-.492-.457-.746-.679-.373-.325-.63-.328-1.01-.015-.119.101-.224.22-.328.337-1.418 1.595-2.045 3.497-2.16 5.592M80.75 7.714c-.628-.023-1.034-.265-1.114-.885-.078-.614.165-1.122.774-1.44.355-.186.746-.32 1.136-.415.658-.162 1.132-.54 1.437-1.128.276-.537.498-1.103.778-1.638.152-.29.33-.597.575-.798.411-.34 1.024-.289 1.438.037.427.333.579.8.412 1.322-.12.379-.262.75-.429 1.222.28.035.47.101.646.074.757-.112 1.53.776.985 1.68-.163.272-.45.5-.731.661-.327.19-.708.285-1.063.422-.92.35-1.743.83-2.306 1.675-.171.258-.256.49-.126.808.205.49.031.937-.326 1.29-.38.38-.804.718-1.202 1.082-.18.166-.386.324-.504.53-.78 1.364-1.59 2.716-2.106 4.212-.184.528-.326 1.072-.45 1.62-.094.408-.055.817.312 1.102.396.308.821.211 1.202-.008.286-.165.572-.378.77-.634 1.234-1.604 2.413-3.244 3.236-5.108.81-1.833 1.91-3.46 3.43-4.783 1.21-1.054 2.578-1.777 4.203-1.977 2.097-.26 3.71 1.396 3.351 3.467-.12.695-.35 1.347-.717 1.948-.854 1.398-2.027 2.449-3.5 3.168-1.013.494-2.064.575-3.15.307-.065-.017-.13-.039-.194-.056-1.126-.301-1.625-.014-1.931 1.11-.152.553-.187 1.108-.006 1.66.184.553.545.904 1.136 1.032.702.151 1.387.058 2.073-.082 1.52-.31 2.812-1.047 3.911-2.13 1.205-1.187 2.261-2.488 3.127-3.952 1.91-3.231 3.637-6.558 5.3-9.92.336-.68.68-1.359.783-2.138.08-.604.822-1.028 1.454-.916.595.105 1.05.731.956 1.348-.032.218-.11.436-.201.639-.578 1.29-1.14 2.588-1.76 3.859-.63 1.29-1.32 2.553-1.986 3.828-.061.12-.131.236-.182.358-.129.306-.37.65-.063.93.292.264.65.072.942-.084 2.04-1.09 3.887-2.433 5.368-4.231.301-.366.626-.631 1.131-.618.898.024 1.447.81 1.098 1.638-.118.283-.323.54-.53.77-1.656 1.838-3.591 3.323-5.764 4.5-.179.098-.36.189-.532.293-.54.325-.771.822-.687 1.429.117.864.275 1.725.433 2.583.045.24.124.483.24.696.299.557.784.697 1.287.31.514-.394 1.029-.82 1.425-1.323.874-1.112 1.673-2.282 2.503-3.428 1.463-2.02 2.894-4.066 4.855-5.66 1.409-1.143 2.93-2.077 4.721-2.506.776-.185 1.557-.222 2.345-.105.52.078 1.001.25 1.386.633.48.48.54 1.107.156 1.65-.374.528-1.078.768-1.605.417-.795-.53-1.552-.319-2.307-.01-1.733.705-3.214 1.79-4.52 3.119-1.129 1.15-2.071 2.428-2.683 3.926-.178.434-.338.886-.425 1.346-.07.365-.083.769-.005 1.13.131.609.525.777 1.056.454.457-.278.923-.586 1.282-.977 1.185-1.287 2.331-2.612 3.477-3.937.396-.46.73-.971 1.12-1.434.323-.38.74-.583 1.26-.423.497.153.847.483.878.997.019.312-.092.668-.248.947-.534.95-.944 1.94-1.11 3.016-.055.351-.074.718-.037 1.072.045.423.332.601.721.432.322-.14.646-.338.89-.588.513-.532 1.022-1.081 1.448-1.682.832-1.174 1.604-2.386 2.403-3.582.11-.169.21-.35.342-.5.418-.476 1.075-.572 1.584-.248.509.324.723.98.407 1.541-1.269 2.256-2.593 4.48-4.544 6.237-.445.4-.96.75-1.496 1.018-1.112.56-2.22.456-3.268-.21-.302-.193-.585-.419-.865-.642-.44-.353-.88-.39-1.36-.074-.6.398-1.2.797-1.825 1.148-.59.332-1.217.599-1.92.542-1.021-.082-1.766-.608-2.274-1.481-.123-.211-.227-.432-.37-.705-.15.14-.278.25-.394.37-.424.434-.8.926-1.27 1.299-1.091.859-2.323 1.205-3.654.61-1.362-.61-2.002-1.733-2.112-3.194-.036-.468-.1-.936-.187-1.398-.036-.19-.14-.38-.253-.545-.305-.447-.612-.52-1.004-.15-.353.334-.668.73-.916 1.148-.721 1.218-1.4 2.46-2.095 3.693-.088.157-.173.315-.272.465-.607.934-1.629.951-2.25.037-.049-.073-.093-.149-.154-.25-.407.16-.797.324-1.194.47-1.21.443-2.452.737-3.749.739-1.61.001-2.9-.549-3.622-2.086-.027-.06-.071-.114-.129-.2-.226.268-.401.496-.595.706-1.09 1.193-2.418 1.853-4.062 1.75-1.401-.089-2.467-1.152-2.605-2.552-.09-.933.08-1.837.342-2.723.197-.667.447-1.317.675-1.974.063-.181.129-.36.224-.635-.74.147-1.333.373-1.744.916-.243.321-.45.672-.638 1.028-1.226 2.333-2.947 4.233-5.082 5.757-.435.31-.929.558-1.427.751-1.867.723-3.674-.124-4.347-2.01-.073-.205-.135-.413-.228-.702-.19.219-.332.385-.476.543-.545.6-1.05 1.24-1.64 1.79-1.17 1.093-2.762 1.31-4.053.586-1.15-.645-1.712-1.672-1.835-2.964-.044-.468-.067-.942-.164-1.4-.089-.419-.252-.875-.713-.989-.456-.112-.731.283-.985.588-.227.273-.411.587-.59.898-.724 1.267-1.431 2.545-2.157 3.812-.53.92-.992 1.058-2.008.677-.169-.062-.384-.016-.577.004-.466.052-.932.174-1.398.167-.957-.016-1.729-.433-2.276-1.233-.099-.145-.192-.292-.323-.491-.221.212-.398.414-.605.574-.589.447-1.148.952-1.793 1.297-1.12.596-2.258.481-3.324-.21-.282-.182-.542-.4-.813-.6-.563-.42-.816-.44-1.409-.076-.594.363-1.167.765-1.772 1.107-.609.345-1.253.624-1.98.558-1.082-.098-1.827-.689-2.327-1.622-.114-.21-.21-.432-.323-.661-.629.556-1.208 1.085-1.809 1.589-.597.502-1.296.798-2.064.935-1.432.255-2.423-.413-2.716-1.833-.166-.81-.06-1.614.073-2.41.252-1.49.738-2.912 1.37-4.286 1.1-2.392 2.472-4.636 3.763-6.924.839-1.485 1.589-3.019 2.388-4.525.146-.275.308-.554.52-.777.381-.4.917-.47 1.357-.235.437.234.726.74.638 1.236-.06.326-.174.654-.325.95-.491.96-1.005 1.907-1.518 2.855-1.519 2.805-3.078 5.588-4.542 8.42-.603 1.17-1.02 2.44-1.482 3.68-.113.3-.121.667-.084.991.053.449.388.58.79.328.283-.178.543-.401.786-.632 1.495-1.414 2.67-3.086 3.863-4.748 1.308-1.823 2.655-3.624 4.426-5.046 1.434-1.153 2.974-2.106 4.794-2.512.91-.203 1.833-.26 2.732.038.33.109.658.299.918.53.502.447.532 1.108.141 1.643-.38.522-1.081.745-1.611.393-.747-.494-1.463-.321-2.184-.044-1.335.514-2.525 1.279-3.605 2.21-1.584 1.367-2.915 2.936-3.708 4.896-.226.557-.347 1.158-.48 1.745-.047.21-.018.454.033.668.153.638.539.827 1.093.49.457-.28.92-.591 1.279-.982 1.17-1.272 2.304-2.577 3.433-3.885.411-.476.755-1.008 1.164-1.487.325-.38.746-.575 1.264-.403.494.162.84.497.864 1.01.013.312-.105.665-.262.944-.534.95-.934 1.943-1.107 3.018-.05.309-.07.629-.046.94.042.565.364.75.879.49.296-.15.578-.354.813-.588.396-.398.784-.812 1.115-1.262 1-1.354 1.937-2.743 2.7-4.26.869-1.722 1.9-3.363 2.853-5.043.17-.3.317-.616.514-1.005-.694-.027-1.1-.276-1.188-.888-.09-.62.147-1.12.76-1.445.353-.187.744-.317 1.134-.416.678-.173 1.17-.564 1.475-1.18.28-.562.54-1.134.784-1.71.266-.627.737-.948 1.354-.881.792.083 1.272.79 1.04 1.55-.078.257-.195.502-.274.76-.043.141-.043.296-.074.523.267.013.481.021.695.033.749.038 1.207.708.97 1.425-.131.402-.385.71-.778.882-.307.135-.619.268-.938.373-1.269.423-2.238 1.17-2.884 2.377-.85 1.583-1.834 3.094-2.656 4.69-.651 1.268-1.374 2.526-1.622 3.965-.009.043-.026.086-.034.13-.088.483-.117.963.357 1.272.437.284.884.138 1.267-.116.293-.196.578-.446.773-.733 1.068-1.556 2.214-3.071 3.134-4.712 1.811-3.23 3.504-6.529 5.22-9.813.371-.71.721-1.436.836-2.261.086-.602.82-.978 1.485-.858.57.103.998.698.92 1.304-.027.196-.088.394-.172.578-.596 1.33-1.173 2.671-1.814 3.981-.658 1.352-1.386 2.671-2.072 4.01-.169.33-.473.72-.152 1.051.357.37.768.032 1.103-.149 1.992-1.082 3.799-2.403 5.24-4.176.356-.436.766-.682 1.343-.565.766.152 1.175.85.88 1.576-.114.283-.313.546-.518.776-1.684 1.876-3.656 3.384-5.875 4.578-.237.126-.483.252-.685.425-.39.33-.52.781-.446 1.277.128.841.27 1.681.424 2.518.044.242.117.485.23.701.302.587.795.724 1.327.327.447-.332.88-.705 1.246-1.124.546-.625 1.06-1.284 1.529-1.969 1.042-1.516 2.052-3.053 3.066-4.59 1.2-1.822 2.623-3.42 4.5-4.578.247-.153.471-.343.704-.52 1.442-1.09 3.665-.921 4.583 1.109.285.63.47 1.307.682 1.969.287.902.363.945 1.224.58 1.944-.821 2.367-1.228 3.266-3.146.062-.132.082-.285.133-.476M9.255 34.605c-1.299.02-2.554-.207-3.751-.707-2.611-1.09-4.353-2.966-5.048-5.74-.818-3.257-.28-6.249 1.892-8.858 1.682-2.018 3.886-3.006 6.512-2.982.621.006 1.26.116 1.855.297 2.505.754 3.92 3.123 3.456 5.725-.06.33-.142.659-.245.978-.116.356-.356.616-.711.764-.685.283-1.3.015-1.454-.71-.092-.431-.037-.892-.073-1.338-.04-.488-.047-.991-.173-1.46-.238-.87-.84-1.415-1.73-1.616-1.594-.363-3.084-.145-4.412.855-2.856 2.148-3.612 6.432-1.692 9.445 1.146 1.8 2.836 2.674 4.896 2.792 3.705.212 6.634-1.287 8.807-4.265.675-.924 1.285-1.896 1.598-3.021.715-2.576.174-4.85-1.663-6.786-.818-.862-1.727-1.639-2.567-2.484-.456-.459-.898-.948-1.268-1.479-1.338-1.915-1.464-3.964-.509-6.07 1.476-3.249 5.547-4.873 8.755-3.527 1.019.429 1.862 1.085 2.496 1.99 1.685 2.405.366 5.907-2.474 6.548-.843.191-1.7.148-2.537-.082-.21-.058-.421-.168-.595-.302-.411-.323-.545-.775-.42-1.268.123-.474.468-.778.961-.823.33-.033.668.025 1.003.051.29.021.584.102.867.071.255-.027.538-.12.738-.272.852-.649.907-1.961.169-2.739-1.449-1.524-4.644-1.444-5.962.326-1.278 1.717-1.341 3.473.034 5.102.677.802 1.464 1.523 2.274 2.195 1.297 1.073 2.225 2.399 2.926 3.902.355.76.493 1.574.563 2.411.444 5.336-3.413 10.231-7.934 12.119-1.469.613-2.984.983-4.584.958" transform="translate(-150 -18) translate(150 18) translate(0 .17)"/>
                </g>
                <g>
                    <path fill="#020303" d="M3.226 3.109c.38 0 .62-.213.62-.541v-.01c0-.346-.232-.536-.625-.536H2.45V3.11h.777zM1.919 1.79c0-.162.117-.287.267-.287h1.078c.38 0 .677.12.872.324.159.176.25.416.25.698v.01c0 .517-.28.831-.686.966l.578.78c.051.07.086.13.086.218 0 .157-.125.264-.254.264-.121 0-.199-.06-.26-.148l-.732-1.003h-.669v.869c0 .157-.116.282-.263.282-.15 0-.267-.125-.267-.282V1.79z" transform="translate(-150 -18) translate(150 18) translate(121.655 3.752)"/>
                    <path fill="#000" d="M3.085.377C1.562.377.322 1.615.322 3.137c0 1.522 1.24 2.76 2.763 2.76s2.763-1.238 2.763-2.76c0-1.522-1.24-2.76-2.763-2.76m0 5.816c-1.687 0-3.06-1.37-3.06-3.056C.026 1.452 1.399.08 3.086.08c1.686 0 3.059 1.37 3.059 3.056 0 1.685-1.373 3.056-3.06 3.056" transform="translate(-150 -18) translate(150 18) translate(121.655 3.752)"/>
                </g>
            </g>
        </g>
    </g>
</svg>
