<?xml version="1.0" standalone="no"?>
<!DOCTYPE svg PUBLIC "-//W3C//DTD SVG 1.1//EN" "http://www.w3.org/Graphics/SVG/1.1/DTD/svg11.dtd" >
<svg xmlns="http://www.w3.org/2000/svg" xmlns:xlink="http://www.w3.org/1999/xlink" version="1.1">
<metadata>
Created by FontForge 20170731 at Sat Sep 18 11:37:22 2021
 By Aleksey,,,
Copyright 2010, 2012 Adobe Systems Incorporated. All Rights Reserved, Design modifications and new weights 2015, Cannot Into Space Fonts.
</metadata>
<defs>
<font id="FallingSkyBd" horiz-adv-x="0" >
  <font-face 
    font-family="Falling Sky"
    font-weight="700"
    font-stretch="normal"
    units-per-em="2048"
    panose-1="2 11 6 3 3 4 3 2 2 4"
    ascent="1536"
    descent="-512"
    x-height="1030"
    cap-height="1364"
    bbox="-464.143 -751.2 2466 1999"
    underline-thickness="102"
    underline-position="-307"
    unicode-range="U+0020-FEFF"
  />
<missing-glyph horiz-adv-x="1376" 
d="M147 0v1352q0 11 8.5 18.5t16.5 7.5h1032q11 0 18 -8.5t7 -17.5v-1352q0 -11 -8 -18t-17 -7h-1032q-11 0 -18 8t-7 17zM367 375l172 321l-172 326v-647zM838 696l170 -321v645zM514 180l344 -2l-94 176v2l-76 164l-78 -164v-2zM688 870l76 156l78 143h-310l80 -143v-2z
" />
    <glyph glyph-name="f_f" unicode="ff" horiz-adv-x="1261" 
d="M1348 1430l-45 -177q-7 -27 -35 -16q-50 20 -99 20q-53 0 -77.5 -31.5t-24.5 -111.5v-84h170q11 0 19 -8t8 -16v-187q0 -11 -9 -18.5t-18 -7.5h-170v-793q0 -11 -9 -19t-18 -8h-235q-11 0 -18 9t-7 18v793h-327v-793q0 -11 -9 -19t-18 -8h-236q-11 0 -17.5 9t-6.5 18v793
h-111q-11 0 -17.5 8.5t-6.5 17.5v176q0 9 6.5 17t15.5 8l113 10v64q0 83 22.5 151.5t67 120t117 80.5t166.5 29q123 0 206 -39q19 -9 15 -29l-45 -176q-9 -28 -35 -17q-53 23 -117 23q-110 0 -110 -143v-62h327v78q0 83 21 152t63 121.5t112 82t163 29.5q112 0 194 -35
q9 -3 13.5 -12t1.5 -18z" />
    <glyph glyph-name="f_t" unicode="ft" horiz-adv-x="1314" 
d="M1268 193l41 -175q2 -9 -3 -18t-14 -12q-117 -37 -215 -37q-177 0 -260.5 104.5t-83.5 284.5v455h-282v-795q0 -11 -8 -18t-17 -7h-236q-11 0 -18.5 8.5t-7.5 16.5v795h-109q-11 0 -18.5 8t-7.5 16v176q0 9 7.5 17t16.5 8l111 10v80q0 112 36 196.5t118.5 136.5t205.5 52
q109 0 195 -35q9 -3 13 -12t1 -18l-45 -177q-7 -27 -35 -16q-47 20 -100 20q-52 0 -77 -31.5t-25 -111.5v-82h299l26 250q2 10 9 17.5t16 7.5h194q11 0 18 -9t7 -18v-248h233q11 0 18 -8.5t7 -17.5v-187q0 -11 -8 -17.5t-17 -6.5h-233v-455q0 -81 28.5 -115.5t90.5 -34.5
q47 0 94 19q29 10 35 -16z" />
    <glyph glyph-name=".notdef" horiz-adv-x="1376" 
d="M147 0v1352q0 11 8.5 18.5t16.5 7.5h1032q11 0 18 -8.5t7 -17.5v-1352q0 -11 -8 -18t-17 -7h-1032q-11 0 -18 8t-7 17zM367 375l172 321l-172 326v-647zM838 696l170 -321v645zM514 180l344 -2l-94 176v2l-76 164l-78 -164v-2zM688 870l76 156l78 143h-310l80 -143v-2z
" />
    <glyph glyph-name=".null" 
 />
    <glyph glyph-name="nonmarkingreturn" horiz-adv-x="682" 
 />
    <glyph glyph-name="space" unicode=" " horiz-adv-x="419" 
 />
    <glyph glyph-name="exclam" unicode="!" horiz-adv-x="645" 
d="M219 438l-33 701l-6 233q0 10 7 17.5t18 7.5h237q25 0 25 -25l-8 -235l-31 -699q0 -10 -8.5 -17t-18.5 -7h-157q-10 0 -17.5 7.5t-7.5 16.5zM145 135q0 78 52 131t127 53t126.5 -53t51.5 -131t-51.5 -132t-126.5 -54t-127 54t-52 132z" />
    <glyph glyph-name="quotedbl" unicode="&#x22;" horiz-adv-x="872" 
d="M143 1436h242q10 0 19 -8t8 -21l-56 -606q-2 -9 -8.5 -16t-15.5 -7h-135q-21 0 -25 23l-53 606q0 29 24 29zM756 1407l-58 -606q-2 -10 -8.5 -17.5t-15.5 -7.5h-133q-10 0 -16.5 7.5t-8.5 17.5l-55 606q0 27 24 27h244q10 0 19 -7t8 -20z" />
    <glyph glyph-name="numbersign" unicode="#" horiz-adv-x="1050" 
d="M156 4l45 369h-129q-11 0 -19 9t-8 17v156q0 11 9 18t18 7h151l27 213h-137q-11 0 -19 9t-8 17v156q0 11 9 17.5t18 6.5h163l43 336q3 21 25 21h141q27 0 25 -27l-39 -328h188l46 334q3 21 24 21h139q27 0 25 -27l-39 -328h135q11 0 18 -8.5t7 -17.5v-156q0 -11 -8 -17.5
t-17 -6.5h-160l-26 -213h145q11 0 18 -9t7 -18v-156q0 -11 -8 -17.5t-17 -6.5h-170l-45 -377q-3 -23 -24 -23h-144q-26 0 -24 27l43 373h-189l-47 -379q-3 -21 -24 -21h-144q-10 0 -17.5 7t-6.5 22zM418 580h190l27 213h-191z" />
    <glyph glyph-name="dollar" unicode="$" horiz-adv-x="1050" 
d="M926 1147l-121 -137q-6 -8 -16.5 -8.5t-18.5 6.5q-58 54 -107 77t-114 23q-154 0 -154 -137q0 -37 24 -68t63 -53t89 -48t102.5 -50t102.5 -61t89 -80t63 -108t24 -143q0 -151 -84 -256t-233 -139v-59q0 -16 -8 -21l-164 -131q-2 -1 -4.5 -3t-9.5 -4t-12.5 -1.5t-10 8
t-4.5 21.5v182q-96 14 -188.5 55.5t-159.5 104.5q-15 12 -2 33l106 159q14 23 37 6q155 -122 287 -122q174 0 174 151q0 37 -19 68.5t-51.5 56t-74 47.5t-88 46t-92.5 48.5t-87.5 59.5t-74 73.5t-51.5 95.5t-19 122q0 146 82.5 246.5t220.5 131.5v58q0 15 8 20l164 131
q2 1 5 3t10 4.5t13 2t10.5 -8t4.5 -21.5v-182q161 -29 289 -164q14 -18 0 -35z" />
    <glyph glyph-name="percent" unicode="%" horiz-adv-x="1722" 
d="M381 492q-156 0 -250 121t-94 329q0 206 94 326.5t250 120.5t250 -120.5t94 -326.5q0 -208 -94 -329t-250 -121zM381 680q52 0 87.5 62t35.5 200t-34.5 198t-88.5 60t-88.5 -60t-34.5 -198t35.5 -200t87.5 -62zM567 -49h-143q0 1 -4.5 0t-10 1t-10 5t-4.5 11.5t6 19.5
l732 1388q7 13 22 13h143q0 -1 4.5 0t10 -1t10 -5t4.5 -11.5t-6 -19.5l-731 -1389q-6 -12 -23 -12zM1341 -49q-157 0 -251.5 121t-94.5 329q0 205 95 326t251 121q157 0 252 -121t95 -326q0 -207 -95 -328.5t-252 -121.5zM1341 139q53 0 89 62.5t36 199.5q0 138 -35.5 198
t-89.5 60t-89 -60t-35 -198t36 -200t88 -62z" />
    <glyph glyph-name="ampersand" unicode="&#x26;" horiz-adv-x="1308" 
d="M309 367q0 -82 56.5 -132.5t148.5 -50.5q81 0 172 56q-154 134 -278 299q-99 -86 -99 -172zM449 1032q0 -73 38 -160q83 55 122.5 101t39.5 104q0 103 -82 103q-52 0 -85 -40t-33 -108zM1298 160l-59 -193q-6 -20 -31 -16q-163 41 -317 137q-174 -137 -406 -137
q-205 0 -329.5 114t-124.5 287q0 67 20 126.5t58 107.5t78 84t94 73q-80 160 -80 287q0 151 101.5 256t262.5 105q145 0 232.5 -86.5t87.5 -225.5q0 -65 -23 -123t-67.5 -108.5t-86 -85.5t-102.5 -78q107 -139 264 -264q104 148 150 325q7 21 24 21h218q2 0 4 -0.5l8 -2
t8.5 -5t5 -10.5t-1.5 -17q-71 -246 -217 -448q125 -73 209 -90q10 -2 17 -11t3 -22z" />
    <glyph glyph-name="quotesingle" unicode="'" horiz-adv-x="528" 
d="M332 778h-135q-21 0 -25 23l-53 606q0 29 24 29h242q10 0 19 -8t8 -21l-56 -606q-2 -9 -8.5 -16t-15.5 -7z" />
    <glyph glyph-name="parenleft" unicode="(" horiz-adv-x="663" 
d="M406 -379q-134 221 -203.5 452.5t-69.5 495.5q0 265 69.5 496.5t203.5 452.5q9 17 32 8l148 -66q9 -4 13.5 -12.5t-1.5 -22.5q-223 -379 -223 -856t223 -856q6 -5 4 -17.5t-16 -17.5l-148 -65q-21 -10 -32 8z" />
    <glyph glyph-name="parenright" unicode=")" horiz-adv-x="663" 
d="M66 -287q221 375 221 856t-221 856q-6 5 -4 17.5t16 17.5l147 66q9 4 18.5 2t14.5 -10q134 -221 203 -452.5t69 -496.5t-69 -496t-203 -452q-9 -18 -33 -8l-147 65q-9 4 -13.5 12.5t1.5 22.5z" />
    <glyph glyph-name="asterisk" unicode="*" horiz-adv-x="897" 
d="M279 766l-105 76q-18 15 -8 32l104 177l-182 82q-9 4 -13 13t-1 17l39 123q3 9 12 14t18 3l195 -46l20 203q2 9 9 16t16 7h129q10 0 17.5 -7t9.5 -16l18 -203l197 46q9 2 18 -3t12 -14l39 -123q3 -9 -1.5 -18t-12.5 -12l-184 -82l104 -177q9 -18 -8 -32l-105 -76
q-18 -14 -32 4l-135 156l-138 -156q-14 -18 -32 -4z" />
    <glyph glyph-name="plus" unicode="+" horiz-adv-x="1050" 
d="M410 203v362h-340q-11 0 -18 8t-7 17v172q0 11 8.5 18.5t16.5 7.5h340v361q0 11 9 19t17 8h178q11 0 18 -9t7 -18v-361h342q11 0 19 -9t8 -17v-172q0 -11 -9 -18t-18 -7h-342v-362q0 -11 -8.5 -19t-16.5 -8h-178q-11 0 -18.5 9t-7.5 18z" />
    <glyph glyph-name="comma" unicode="," horiz-adv-x="563" 
d="M123 -383l-51 129q-4 9 0.5 19.5t13.5 15.5q84 33 133 86t57 113q-71 3 -120.5 49t-49.5 121t55 122t130 47q95 0 148 -72.5t53 -193.5q0 -158 -89 -277t-247 -173q-9 -3 -19.5 1t-13.5 13z" />
    <glyph glyph-name="hyphen" unicode="-" horiz-adv-x="659" 
d="M61 430v172q0 11 8.5 19t16.5 8h487q11 0 19 -9t8 -18v-172q0 -11 -9 -17.5t-18 -6.5h-487q-11 0 -18 8t-7 16z" />
    <glyph glyph-name="period" unicode="." horiz-adv-x="563" 
d="M102 135q0 78 53 132.5t128 54.5t125.5 -54.5t50.5 -132.5t-50.5 -131t-125.5 -53t-128 53t-53 131z" />
    <glyph glyph-name="slash" unicode="/" horiz-adv-x="704" 
d="M0 -322l477 1782q6 19 25 19h160q6 0 10.5 -0.5t11 -8t2.5 -22.5l-477 -1782q-7 -20 -25 -20h-159q-6 0 -11 0.5t-11.5 8.5t-2.5 23z" />
    <glyph glyph-name="zero" unicode="0" horiz-adv-x="1050" 
d="M524 -49q-219 0 -343 187t-124 519q0 331 124 514t343 183t344 -183.5t125 -513.5q0 -332 -125 -519t-344 -187zM524 186q193 0 193 471q0 461 -193 461q-190 0 -190 -461q0 -471 190 -471z" />
    <glyph glyph-name="one" unicode="1" horiz-adv-x="761" 
d="M348 0v1020l-209 -27q-10 -2 -19 4t-9 21v147q0 21 18 25q130 36 295 135q4 2 12 2h176q11 0 18 -8t7 -16v-1303q0 -11 -8 -18t-17 -7h-237q-11 0 -19 8.5t-8 16.5z" />
    <glyph glyph-name="two" unicode="2" horiz-adv-x="1050" 
d="M53 0v137q0 13 6 19q125 120 203 198.5t158.5 167t124 151.5t71 126t27.5 116q0 96 -48.5 147.5t-141.5 51.5q-115 0 -236 -135q-6 -8 -17 -9t-20 7l-131 131q-16 16 0 37q97 103 199 155t235 52q197 0 318 -116.5t121 -307.5q0 -67 -24 -140t-60 -137t-97.5 -143.5
t-116.5 -141.5t-137 -149q127 10 152 10h319q11 0 18 -8.5t7 -17.5v-201q0 -11 -8 -18t-17 -7h-880q-11 0 -18 8t-7 17z" />
    <glyph glyph-name="three" unicode="3" horiz-adv-x="1050" 
d="M29 174l112 152q3 4 8 8t14 4t17 -8q132 -135 291 -135q99 0 156 46t57 124q0 47 -15 80.5t-52.5 61t-109.5 41t-179 13.5q-11 0 -18 8t-7 17v172q0 11 8.5 18.5t16.5 7.5q176 0 245.5 48.5t69.5 134.5q0 71 -43.5 109t-124.5 38q-67 0 -125.5 -29t-120.5 -86
q-21 -16 -36 2l-121 146q-6 8 -5 18.5t9 16.5q192 170 407 170q200 0 324.5 -97t124.5 -272q0 -101 -52 -177t-143 -122q108 -43 173 -128.5t65 -203.5q0 -124 -67.5 -216.5t-176 -138.5t-239.5 -46q-287 0 -461 192q-13 13 -2 31z" />
    <glyph glyph-name="four" unicode="4" horiz-adv-x="1050" 
d="M317 545h269v268q0 5 6 170q-47 -92 -64 -117zM1024 518v-182q0 -11 -9 -18t-18 -7h-139v-311q0 -11 -8 -18t-16 -7h-222q-11 0 -18.5 8.5t-7.5 16.5v311h-549q-11 0 -18 8t-7 17v160q0 10 2 14l516 807q5 10 23 10h281q11 0 17.5 -7.5t6.5 -16.5v-758h139q11 0 19 -9
t8 -18z" />
    <glyph glyph-name="five" unicode="5" horiz-adv-x="1050" 
d="M29 170l108 152q6 8 15.5 11t23.5 -7q138 -131 287 -131q102 0 163.5 59t61.5 164q0 106 -56.5 162.5t-156.5 56.5q-56 0 -93.5 -14.5t-100.5 -55.5q-13 -10 -29 -2l-113 72q-10 7 -10 25l39 643q0 10 8 17t17 7h698q10 0 18.5 -7t5.5 -24l-30 -198q-1 -9 -8.5 -15
t-16.5 -6h-440l-21 -250q69 29 144 29q89 0 166.5 -27t137.5 -79t95 -136.5t35 -191.5q0 -109 -40 -200t-107 -150t-154 -91t-182 -32q-277 0 -463 186q-14 14 -2 33z" />
    <glyph glyph-name="six" unicode="6" horiz-adv-x="1050" 
d="M559 182q73 0 121.5 57t48.5 164q0 207 -180 207q-114 0 -207 -131q36 -297 217 -297zM969 1163l-127 -143q-22 -22 -39 0q-33 39 -84 63.5t-103 24.5q-246 0 -278 -385q117 108 254 108q185 0 296 -110t111 -318q0 -201 -126.5 -327.5t-309.5 -126.5q-104 0 -193 41.5
t-157.5 122t-107.5 208.5t-39 291q0 150 28.5 274t78.5 209t118 144t146.5 86t164.5 27q220 0 367 -154q14 -18 0 -35z" />
    <glyph glyph-name="seven" unicode="7" horiz-adv-x="1050" 
d="M319 2q18 343 93 586t245 489h-567q-11 0 -19 9t-8 18v199q0 11 9 17.5t18 6.5h875q11 0 17.5 -7.5t6.5 -16.5v-144q0 -12 -4 -16q-90 -112 -152.5 -216t-103.5 -201.5t-65.5 -215.5t-36.5 -233t-19 -279q0 -10 -7.5 -16.5t-16.5 -6.5h-240q-11 0 -18 7.5t-7 19.5z" />
    <glyph glyph-name="eight" unicode="8" horiz-adv-x="1050" 
d="M315 358q0 -84 61 -136t154 -52q87 0 139 45.5t52 122.5q0 34 -14.5 63t-34.5 49.5t-63 44t-76 38t-97 40.5q-121 -93 -121 -215zM606 766q88 94 88 195q0 78 -44 126t-122 48q-68 0 -110.5 -41t-42.5 -113q0 -75 56.5 -121.5t174.5 -93.5zM57 334q0 206 222 340
q-164 128 -164 307q0 167 118.5 270t298.5 103q184 0 297 -105t113 -274q0 -89 -47 -167.5t-115 -133.5q213 -130 213 -344q0 -165 -131 -272t-336 -107q-200 0 -334.5 107t-134.5 276z" />
    <glyph glyph-name="nine" unicode="9" horiz-adv-x="1050" 
d="M500 692q50 0 105.5 32.5t101.5 100.5q-37 297 -220 297q-72 0 -121 -58t-49 -163q0 -209 183 -209zM78 139l127 144q6 8 15.5 10t21.5 -10q35 -39 86 -63.5t104 -24.5q247 0 279 387q-57 -52 -125 -81.5t-131 -29.5q-183 0 -293.5 111t-110.5 319q0 201 125.5 327
t308.5 126q103 0 192 -41.5t158 -121.5t108.5 -208.5t39.5 -290.5q0 -150 -29 -274t-79 -209.5t-118.5 -144.5t-147 -86t-165.5 -27q-220 0 -366 153q-14 17 0 35z" />
    <glyph glyph-name="colon" unicode=":" horiz-adv-x="563" 
d="M102 836q0 78 53 132t128 54t125.5 -54t50.5 -132t-50.5 -131.5t-125.5 -53.5t-128 53.5t-53 131.5zM102 135q0 78 53 132.5t128 54.5t125.5 -54.5t50.5 -132.5t-50.5 -131t-125.5 -53t-128 53t-53 131z" />
    <glyph glyph-name="semicolon" unicode=";" horiz-adv-x="563" 
d="M283 651q-75 0 -128 53.5t-53 131.5t53 132t128 54t125.5 -54t50.5 -132t-50.5 -131.5t-125.5 -53.5zM123 -383l-51 129q-4 9 0.5 19.5t13.5 15.5q84 33 133 86t57 113q-71 3 -120.5 49t-49.5 121t55 122t130 47q95 0 148 -72.5t53 -193.5q0 -158 -89 -277t-247 -173
q-9 -3 -19.5 1t-13.5 13z" />
    <glyph glyph-name="less" unicode="&#x3c;" horiz-adv-x="1050" 
d="M45 594l-2 172q0 19 16 25l912 354q1 1 3.5 1.5t8.5 1t10.5 -1t8.5 -8.5t4 -18v-198q0 -9 -5.5 -16t-11.5 -9q-475 -167 -614 -217q139 -50 614 -217q7 -3 13 -11t6 -14v-198q0 -4 -0.5 -10.5t-10 -13.5t-26.5 -1l-912 354q-14 6 -14 25z" />
    <glyph glyph-name="equal" unicode="=" horiz-adv-x="1050" 
d="M45 819v172q0 11 8.5 19t16.5 8h911q11 0 19 -9t8 -18v-172q0 -11 -9 -17.5t-18 -6.5h-911q-11 0 -18 8t-7 16zM45 360v172q0 11 8.5 19t16.5 8h911q11 0 19 -9t8 -18v-172q0 -11 -9 -17.5t-18 -6.5h-911q-11 0 -18 8t-7 16z" />
    <glyph glyph-name="greater" unicode="&#x3e;" horiz-adv-x="1050" 
d="M1008 766v-172q0 -18 -17 -25l-911 -354q-1 -1 -3.5 -1.5t-8.5 -1t-10.5 1t-8.5 8.5t-4 18v198q0 21 16 25q512 180 615 217q-103 37 -615 217q-16 6 -16 25v198v10.5t9 13.5t26 1l911 -354q17 -7 17 -25z" />
    <glyph glyph-name="question" unicode="?" horiz-adv-x="909" 
d="M297 436q-11 74 4 143t45.5 119.5t68 100t71 86.5t56.5 78.5t23 76.5q0 65 -36.5 102.5t-104.5 37.5q-100 0 -193 -99q-18 -18 -34 -2l-131 121q-18 18 -5 35q159 188 379 188q180 0 293 -96t113 -270q0 -58 -17.5 -111t-45.5 -94.5t-61 -80.5t-65 -76t-57.5 -75
t-38.5 -83.5t-8 -94.5q2 -10 -4 -19t-21 -9h-206q-21 0 -25 22zM250 135q0 78 50.5 132.5t125.5 54.5t127.5 -54.5t52.5 -132.5t-52.5 -131t-127.5 -53t-125.5 53t-50.5 131z" />
    <glyph glyph-name="at" unicode="@" horiz-adv-x="1792" 
d="M78 418q0 210 73 390.5t197.5 303t291 191.5t351.5 69q218 0 383.5 -93t254.5 -258t89 -378q0 -136 -42 -249.5t-109.5 -183.5t-149 -108.5t-164.5 -38.5q-84 0 -147 34.5t-90 99.5q-112 -115 -240 -115q-125 0 -203.5 88.5t-78.5 235.5q0 123 52 240t152.5 195.5
t223.5 78.5q98 0 153 -70l12 37q7 18 25 18h150q5 0 10.5 -1.5t11 -9t2.5 -20.5l-88 -434q-12 -52 -12 -84q0 -50 21 -70t69 -20q88 0 161.5 101t73.5 268q0 115 -32 212t-96 171t-169 116t-241 42q-129 0 -251.5 -54t-217.5 -149.5t-153 -238.5t-58 -308q0 -142 44.5 -255
t123.5 -184.5t183 -109t226 -37.5q164 0 310 80q7 6 19.5 4t17.5 -16l55 -131q4 -9 0 -18.5t-12 -14.5q-183 -104 -408 -104q-159 0 -297.5 50t-245.5 145t-169 245.5t-62 337.5zM727 420q0 -135 98 -135q63 0 138 92l51 285q-35 51 -86 51q-56 0 -103.5 -46t-72.5 -112.5
t-25 -134.5z" />
    <glyph glyph-name="A" unicode="A" horiz-adv-x="1142" 
d="M430 573h277l-140 500zM872 -6l-98 342h-414l-98 -342q-8 -19 -24 -19h-242h-4t-8.5 1t-9 4.5t-5.5 10t2 17.5l437 1340q6 16 24 16h279q18 0 24 -16l436 -1340q1 -1 1.5 -3.5t1 -8t-1 -10t-8 -8t-17.5 -3.5h-250q-21 0 -25 19z" />
    <glyph glyph-name="B" unicode="B" horiz-adv-x="1222" 
d="M143 0v1339q0 11 9 19t18 8h428q87 0 160 -11t138 -37t110.5 -66.5t71.5 -102t26 -139.5q0 -91 -46.5 -169.5t-133.5 -121.5q121 -35 184 -118t63 -208q0 -140 -73 -236t-191.5 -139t-273.5 -43h-463q-11 0 -19 8.5t-8 16.5zM432 811h146q130 0 185.5 42.5t55.5 127.5
q0 77 -55.5 113t-181.5 36h-150v-319zM432 211h176q281 0 281 199q0 91 -67.5 135.5t-213.5 44.5h-176v-379z" />
    <glyph glyph-name="C" unicode="C" horiz-adv-x="1179" 
d="M74 666q0 165 50.5 302.5t138 229t205 141.5t251.5 50q120 0 223.5 -50t175.5 -127q14 -17 0 -34l-133 -148q-6 -8 -17 -9t-20 7q-102 102 -227 102q-156 0 -254 -121.5t-98 -336.5q0 -220 93 -342.5t251 -122.5q150 0 262 125q20 20 37 0l133 -146q14 -18 0 -32
q-178 -203 -436 -203q-134 0 -249.5 48t-201.5 137.5t-135 226t-49 303.5z" />
    <glyph glyph-name="D" unicode="D" horiz-adv-x="1280" 
d="M143 0v1339q0 11 9 19t18 8h358q321 0 498.5 -176.5t177.5 -513.5q0 -338 -175.5 -519.5t-487.5 -181.5h-371q-11 0 -19 8.5t-8 16.5zM432 219h80q196 0 296.5 111t100.5 346q0 233 -99.5 339.5t-297.5 106.5h-80v-903z" />
    <glyph glyph-name="E" unicode="E" horiz-adv-x="1101" 
d="M143 0v1339q0 11 9 19t18 8h807q11 0 19 -9t8 -18v-200q0 -11 -9 -18t-18 -7h-545v-293h457q11 0 17.5 -7.5t6.5 -16.5v-201q0 -11 -8 -19t-16 -8h-457v-342h565q11 0 19 -9t8 -17v-201q0 -11 -9 -18t-18 -7h-827q-11 0 -19 8.5t-8 16.5z" />
    <glyph glyph-name="F" unicode="F" horiz-adv-x="1044" 
d="M143 0v1339q0 11 9 19t18 8h809q11 0 18 -9t7 -18v-200q0 -11 -8 -18t-17 -7h-547v-330h463q11 0 19 -8t8 -16v-201q0 -11 -9 -19t-18 -8h-463v-532q0 -11 -8 -18t-16 -7h-238q-11 0 -19 8.5t-8 16.5z" />
    <glyph glyph-name="G" unicode="G" horiz-adv-x="1286" 
d="M1036 -27q-19 0 -28 33q-129 -55 -283 -55q-139 0 -258 48t-206.5 137.5t-137 225.5t-49.5 304q0 166 51 303t140 229t211 142.5t263 50.5q243 0 418 -179q7 -8 6.5 -18t-6.5 -16l-131 -148q-6 -8 -17 -8.5t-20 6.5q-56 53 -110.5 79t-137.5 26q-168 0 -270 -123
t-102 -338q0 -224 98.5 -343.5t286.5 -119.5q106 0 168 45v250h-230q-11 0 -17.5 8.5t-6.5 17.5v195q0 11 8 18t16 7h467q11 0 19 -8.5t8 -16.5v-725q0 -10 -8.5 -17.5t-18.5 -7.5z" />
    <glyph glyph-name="H" unicode="H" horiz-adv-x="1357" 
d="M143 0v1339q0 11 9 18t18 7h238q11 0 17.5 -8t6.5 -17v-512h494v512q0 11 8 18t16 7h238q11 0 18.5 -8.5t7.5 -16.5v-1339q0 -11 -8.5 -18t-17.5 -7h-238q-11 0 -17.5 8t-6.5 17v569h-494v-569q0 -11 -8 -18t-16 -7h-238q-11 0 -19 8.5t-8 16.5z" />
    <glyph glyph-name="I" unicode="I" horiz-adv-x="577" 
d="M143 0v1339q0 11 9 18t18 7h238q11 0 17.5 -8t6.5 -17v-1339q0 -11 -8 -18t-16 -7h-238q-11 0 -19 8.5t-8 16.5z" />
    <glyph glyph-name="J" unicode="J" horiz-adv-x="1011" 
d="M35 223l164 121q5 6 17.5 5.5t19.5 -13.5q69 -129 186 -129q86 0 125 50t39 183v899q0 11 8 18t16 7h238q11 0 18.5 -8.5t7.5 -16.5v-919q0 -97 -25 -180.5t-75.5 -149.5t-133.5 -103.5t-191 -37.5q-288 0 -422 241q-4 9 -1.5 18.5t9.5 14.5z" />
    <glyph glyph-name="K" unicode="K" horiz-adv-x="1222" 
d="M432 1339v-534l438 551q5 8 21 8h264q2 0 5.5 -0.5t10.5 -3t11 -6.5t3.5 -12t-9.5 -19l-402 -508l473 -803q1 -2 2.5 -4.5t3 -9t0.5 -12t-8 -9.5t-20 -4h-262q-13 0 -23 15l-344 598l-164 -203v-383q0 -11 -8 -18t-16 -7h-238q-11 0 -19 8.5t-8 16.5v1339q0 11 9 18t18 7
h238q11 0 17.5 -8t6.5 -17z" />
    <glyph glyph-name="L" unicode="L" horiz-adv-x="1028" 
d="M143 0v1339q0 11 9 18t18 7h238q11 0 17.5 -8t6.5 -17v-1112h533q11 0 18.5 -8.5t7.5 -17.5v-201q0 -11 -8.5 -18t-17.5 -7h-795q-11 0 -19 8.5t-8 16.5z" />
    <glyph glyph-name="M" unicode="M" horiz-adv-x="1525" 
d="M143 0l2 1339q0 11 8 18t17 7h262q19 0 25 -16q261 -715 309 -854q48 141 303 854q6 16 25 16h262q11 0 18.5 -8.5t7.5 -16.5v-1339q0 -11 -8.5 -18t-17.5 -7h-223q-11 0 -18 8t-7 17v612q0 125 12 254q-40 -114 -85 -234.5t-107 -282.5t-88 -232q-8 -19 -25 -19h-110
q-17 0 -25 19l-231 608l-48 137q13 -143 13 -250v-612q0 -11 -8 -18t-17 -7h-219q-11 0 -19 8.5t-8 16.5z" />
    <glyph glyph-name="N" unicode="N" horiz-adv-x="1343" 
d="M143 0v1339q0 11 9 18t18 7h244q14 0 22 -12l418 -754v-2l88 -180q-20 226 -20 342v581q0 11 8 18t16 7h228q11 0 18.5 -8.5t7.5 -16.5v-1339q0 -11 -8.5 -18t-17.5 -7h-244q-14 0 -23 13l-418 753v2l-88 181q21 -237 21 -338v-586q0 -11 -8 -18t-17 -7h-227
q-11 0 -19 8.5t-8 16.5z" />
    <glyph glyph-name="O" unicode="O" horiz-adv-x="1380" 
d="M690 -49q-276 0 -446 197.5t-170 527.5q0 328 169.5 520.5t446.5 192.5q278 0 448.5 -192.5t170.5 -520.5q0 -330 -171 -527.5t-448 -197.5zM690 209q145 0 233.5 124.5t88.5 342.5q0 215 -88 334.5t-234 119.5t-233.5 -119.5t-87.5 -334.5q0 -218 88 -342.5t233 -124.5z
" />
    <glyph glyph-name="P" unicode="P" horiz-adv-x="1212" 
d="M143 0v1339q0 11 9 18t18 7h451q117 0 210.5 -22.5t168.5 -72t116 -136.5t41 -207q0 -115 -41.5 -204t-115.5 -144t-169.5 -83t-209.5 -28h-189v-467q0 -11 -8 -18t-16 -7h-238q-11 0 -19 8.5t-8 16.5zM432 709h170q141 0 205.5 53t64.5 164q0 110 -62 153t-208 43h-170
v-413z" />
    <glyph glyph-name="Q" unicode="Q" horiz-adv-x="1380" 
d="M369 676q0 -226 88 -352.5t233 -126.5q146 0 234 126.5t88 352.5q0 215 -88 334.5t-234 119.5t-233.5 -119.5t-87.5 -334.5zM1313 -129l43 -178q1 -9 -3 -17.5t-12 -11.5q-87 -41 -225 -41q-196 0 -339.5 92.5t-215.5 247.5q-225 45 -356 234.5t-131 478.5
q0 328 169.5 520.5t446.5 192.5q278 0 447.5 -192.5t169.5 -520.5q0 -271 -117.5 -456.5t-317.5 -244.5q84 -108 271 -108q69 0 137 22q10 3 20 -2t13 -16z" />
    <glyph glyph-name="R" unicode="R" horiz-adv-x="1226" 
d="M432 1122v-383h166q258 0 258 203q0 99 -60.5 139.5t-197.5 40.5h-166zM1167 -25h-266q-15 0 -22 13l-281 512h-164v-500q0 -11 -8.5 -18t-17.5 -7h-238q-11 0 -18 8t-7 17v1339q0 11 8.5 19t16.5 8h453q111 0 201 -22.5t163 -70t113.5 -132t40.5 -199.5
q0 -147 -68.5 -248t-187.5 -149l305 -533q1 -2 2.5 -4t3 -8.5t0 -11.5t-8.5 -9t-20 -4z" />
    <glyph glyph-name="S" unicode="S" horiz-adv-x="1116" 
d="M59 188l140 162q6 8 17 8.5t20 -6.5q71 -66 158 -105.5t171 -39.5q105 0 157 39.5t52 107.5q0 23 -4.5 41t-18 33.5t-25.5 26.5t-39.5 25t-46.5 22.5t-58 25.5l-185 80q-56 24 -102.5 55t-89.5 76t-67.5 108.5t-24.5 139.5q0 172 135.5 287t339.5 115q120 0 233.5 -47
t196.5 -130q7 -7 7.5 -17.5t-5.5 -16.5l-121 -152q-6 -8 -17 -9.5t-20 5.5q-66 55 -130.5 81.5t-143.5 26.5q-89 0 -137 -35t-48 -96q0 -25 11 -45.5t24 -34t44.5 -30.5t51 -25.5t66.5 -27.5l182 -76q135 -58 211 -150t76 -237q0 -179 -140 -300.5t-368 -121.5
q-140 0 -272 53.5t-230 149.5q-7 8 -6.5 18t6.5 16z" />
    <glyph glyph-name="T" unicode="T" horiz-adv-x="1118" 
d="M414 0v1114h-361q-11 0 -17.5 8t-6.5 17v200q0 11 8 19t16 8h1012q11 0 18 -9t7 -18v-200q0 -11 -8 -18t-17 -7h-363v-1114q0 -11 -8 -18t-16 -7h-238q-11 0 -18.5 8.5t-7.5 16.5z" />
    <glyph glyph-name="U" unicode="U" horiz-adv-x="1341" 
d="M139 588v751q0 11 8 18t17 7h237q11 0 19 -8.5t8 -16.5v-770q0 -104 17 -176t51 -111.5t76 -56t100 -16.5t102 17t79.5 56.5t54 111.5t18.5 175v770q0 11 8 18t16 7h228q11 0 18.5 -8.5t7.5 -16.5v-751q0 -327 -139 -482t-393 -155q-253 0 -393 155t-140 482z" />
    <glyph glyph-name="V" unicode="V" horiz-adv-x="1097" 
d="M385 -8l-418 1339l-1 3q0 3 -0.5 6.5t0.5 8t3 7.5t8 5.5t15 2.5h252q20 0 24 -18l189 -674q20 -67 51 -187.5t47 -177.5q18 67 49 186t47 179l187 674q4 18 24 18h244h4t8 -1.5t8.5 -5t5 -10t-1.5 -16.5l-415 -1339q-7 -17 -25 -17h-280q-18 0 -25 17z" />
    <glyph glyph-name="W" unicode="W" horiz-adv-x="1638" 
d="M279 -4l-267 1339q-3 9 1.5 20t23.5 11h244q8 0 15 -7.5t9 -15.5l117 -675q3 -20 22 -134t27 -174q39 201 64 310l163 676q1 9 9 14.5t16 5.5h207q9 0 15.5 -6t8.5 -14l164 -676q12 -54 33.5 -158.5t32.5 -153.5q2 14 20.5 131.5t26.5 178.5l117 675q1 9 8.5 16t15.5 7
h227q5 0 10.5 -1.5t11.5 -9t3 -20.5l-256 -1339q-1 -9 -9 -15t-16 -6h-294q-21 0 -25 19l-166 704q-18 86 -39 195q-3 -17 -41 -195l-162 -704q-3 -19 -24 -19h-289q-9 0 -15.5 6.5t-8.5 14.5z" />
    <glyph glyph-name="X" unicode="X" horiz-adv-x="1107" 
d="M4 12l375 678l-350 637q-1 2 -2.5 4t-3 8.5t-0.5 11.5t8 9t20 4h264q17 0 23 -12l147 -297q16 -28 44.5 -87t37.5 -77q38 88 74 162l141 297q7 14 23 14h252q0 -1 4.5 0t10 -1t10 -5t4 -11.5t-6.5 -19.5l-350 -647l375 -668q1 -2 2.5 -4.5t3 -9t0 -12t-8.5 -9.5t-20 -4
h-264q-15 0 -22 15l-164 315q-17 33 -48 97t-40 83q-17 -39 -46.5 -102t-35.5 -76l-160 -317q-7 -13 -22 -13h-252q0 1 -4.5 0t-10 1t-10 5t-4.5 11.5t6 19.5z" />
    <glyph glyph-name="Y" unicode="Y" horiz-adv-x="1026" 
d="M369 0v492l-400 837l-2 4t-2.5 8.5t0 11.5t8 9t19.5 4h254q16 0 24 -16l146 -342q37 -96 98 -248q63 147 102 248l146 342q6 14 24 14h248h4.5t9 -0.5t9 -4.5t5 -11t-4.5 -19l-400 -837v-492q0 -11 -8.5 -18t-17.5 -7h-238q-11 0 -17.5 8t-6.5 17z" />
    <glyph glyph-name="Z" unicode="Z" horiz-adv-x="1105" 
d="M57 0v143q0 7 4 15l621 956h-541q-11 0 -18.5 8.5t-7.5 16.5v200q0 11 9 19t17 8h883q11 0 18 -9t7 -18v-143q0 -4 -5 -14l-622 -955h606q11 0 18 -8.5t7 -17.5v-201q0 -11 -8 -18t-17 -7h-946q-11 0 -18 8t-7 17z" />
    <glyph glyph-name="bracketleft" unicode="[" horiz-adv-x="663" 
d="M160 -311v1761q0 11 8 18t16 7h402q11 0 18.5 -8.5t7.5 -16.5v-129q0 -11 -9 -19t-17 -8h-197v-1450h197q11 0 18.5 -8.5t7.5 -17.5v-129q0 -11 -8.5 -18t-17.5 -7h-402q-11 0 -17.5 8t-6.5 17z" />
    <glyph glyph-name="backslash" unicode="\" horiz-adv-x="704" 
d="M498 -334l-480 1782v2q-1 3 -1 5.5v5.5t1.5 6.5t4 6t8 4t12.5 1.5h160q20 0 24 -19l480 -1782l1 -2v-4.5v-6t-1.5 -6.5t-4 -5.5t-8 -4t-12.5 -1.5h-160q-20 0 -24 18z" />
    <glyph glyph-name="bracketright" unicode="]" horiz-adv-x="663" 
d="M78 -156h196v1450h-196q-11 0 -18 9t-7 18v129q0 11 8 18t17 7h401q11 0 19 -8.5t8 -16.5v-1761q0 -11 -9 -18t-18 -7h-401q-11 0 -18 8t-7 17v129q0 11 8.5 18.5t16.5 7.5z" />
    <glyph glyph-name="asciicircum" unicode="^" horiz-adv-x="1050" 
d="M88 582l313 800q7 17 25 17h197q15 0 24 -17l316 -800q1 -1 1.5 -3.5t1 -8.5t-1 -10.5t-8.5 -8.5t-18 -4h-199q-18 0 -24 16q-26 72 -91 251.5t-100 277.5q-30 -89 -188 -529q-7 -18 -25 -18h-198q-4 0 -10.5 0.5t-13.5 10t-1 26.5z" />
    <glyph glyph-name="underscore" unicode="_" horiz-adv-x="1024" 
d="M25 -106h974q11 0 18 -8t7 -17v-141q0 -11 -8.5 -19t-16.5 -8h-974q-11 0 -18 9t-7 18v141q0 11 8 18t17 7z" />
    <glyph glyph-name="grave" unicode="`" horiz-adv-x="1124" 
d="M516 1157l-242 299q-1 2 -3 5t-4 10t-1.5 13t8 10.5t21.5 4.5h233q17 0 23 -12l184 -299q1 -2 2.5 -4.5t3.5 -9.5t1 -12.5t-8 -10t-21 -4.5h-176q-14 0 -21 10z" />
    <glyph glyph-name="a" unicode="a" horiz-adv-x="1071" 
d="M82 270q0 172 145 266t445 130q-7 72 -42.5 110.5t-113.5 38.5q-114 0 -270 -96q-23 -11 -35 10l-86 158q-4 9 -2 19.5t10 15.5q212 135 426 135q198 0 300 -120.5t102 -340.5v-596q0 -11 -9 -18t-18 -7h-193q-9 0 -15.5 6t-8.5 15l-12 72q-152 -117 -299 -117
q-142 0 -233 88.5t-91 230.5zM362 289q0 -105 117 -105q50 0 95 24t100 73v186q-121 -18 -192.5 -46.5t-95.5 -59.5t-24 -72z" />
    <glyph glyph-name="b" unicode="b" horiz-adv-x="1155" 
d="M123 0l2 1446q0 11 8.5 19t16.5 8h235q11 0 19 -9t8 -18v-373l-6 -112q135 96 264 96q199 0 311.5 -147.5t112.5 -389.5q0 -130 -37.5 -238.5t-101 -180t-146 -111t-172.5 -39.5q-139 0 -264 106l-13 -61q-1 -9 -8.5 -15t-15.5 -6h-186q-11 0 -19 8.5t-8 16.5zM412 266
q86 -69 176 -69q91 0 151 81t60 238q0 295 -193 295q-90 0 -194 -98v-447z" />
    <glyph glyph-name="c" unicode="c" horiz-adv-x="946" 
d="M57 502q0 127 43.5 233t117 175t169 107t201.5 38q186 0 313 -123q7 -7 7 -17.5t-5 -17.5l-112 -149q-6 -8 -15.5 -10t-21.5 7q-75 66 -154 66q-111 0 -180.5 -83.5t-69.5 -225.5t68.5 -224.5t175.5 -82.5q93 0 190 79q22 16 37 -6l99 -149q10 -18 -5 -33
q-73 -65 -163.5 -100t-182.5 -35q-223 0 -367.5 149t-144.5 402z" />
    <glyph glyph-name="d" unicode="d" horiz-adv-x="1155" 
d="M61 502q0 123 37.5 228.5t100.5 175.5t144.5 109.5t170.5 39.5q129 0 236 -80l-5 104v2v365q0 11 8 17.5t17 6.5h236q11 0 18.5 -8t7.5 -16v-1446q0 -11 -9 -19t-17 -8h-195q-9 0 -16 7t-9 16l-10 67q-129 -112 -274 -112q-203 0 -322 148t-119 403zM356 504
q0 -156 53 -232.5t150 -76.5q98 0 186 98v446q-87 70 -180 70q-88 0 -148.5 -79.5t-60.5 -225.5z" />
    <glyph glyph-name="e" unicode="e" horiz-adv-x="1038" 
d="M57 502q0 124 41.5 229.5t110 175t156.5 109t182 39.5q210 0 325 -139t115 -363q0 -69 -10 -117q-1 -9 -9 -14.5t-16 -5.5h-610q22 -114 91.5 -174t176.5 -60q104 0 219 72q7 5 19 2.5t18 -12.5l80 -148q4 -9 2 -18.5t-10 -14.5q-170 -112 -358 -112q-110 0 -205.5 38
t-166 108t-111 174.5t-40.5 230.5zM342 616h389q-12 205 -178 205q-77 0 -134 -53t-77 -152z" />
    <glyph glyph-name="f" unicode="f" horiz-adv-x="649" 
d="M733 1430l-45 -177q-7 -27 -35 -16q-47 20 -100 20q-52 0 -77 -31.5t-25 -111.5v-82h172q11 0 17.5 -8.5t6.5 -17.5v-187q0 -11 -7.5 -17.5t-16.5 -6.5h-172v-795q0 -11 -8 -18t-17 -7h-236q-11 0 -18.5 8.5t-7.5 16.5v795h-109q-11 0 -18.5 8t-7.5 16v176q0 9 7.5 17
t16.5 8l111 10v80q0 112 36 196.5t118.5 136.5t205.5 52q109 0 195 -35q9 -3 13 -12t1 -18z" />
    <glyph glyph-name="g" unicode="g" horiz-adv-x="1064" 
d="M305 -147q0 -53 58.5 -86t173.5 -33q111 0 178 43t67 94q0 41 -32.5 58.5t-118.5 17.5h-137q-88 0 -132 10q-57 -49 -57 -104zM57 -182q0 127 129 219q-75 65 -75 172q0 105 100 190q-54 48 -87.5 118t-33.5 153q0 119 60 209t154.5 134t207.5 44q75 0 152 -25h356
q11 0 19 -9t8 -17v-175q0 -11 -9 -17.5t-18 -6.5h-137q37 -66 37 -145q0 -173 -116.5 -270t-291.5 -97q-63 0 -131 22q-29 -25 -29 -67q0 -33 27 -49.5t110 -16.5h179q393 0 393 -274q0 -166 -156.5 -273.5t-404.5 -107.5q-125 0 -222.5 30t-159 96.5t-61.5 162.5zM512 494
q64 0 107 46t43 130q0 82 -42.5 128t-107.5 46q-66 0 -108 -45.5t-42 -128.5q0 -85 42 -130.5t108 -45.5z" />
    <glyph glyph-name="h" unicode="h" horiz-adv-x="1142" 
d="M123 0l2 1446q0 11 8 17.5t17 6.5h235q11 0 19 -8t8 -16v-373l-6 -135q141 119 292 119q170 0 252 -112t82 -314v-631q0 -11 -8 -18t-16 -7h-236q-11 0 -19 8.5t-8 16.5v600q0 118 -29.5 160.5t-101.5 42.5q-54 0 -98 -25t-106 -86v-692q0 -11 -8 -18t-17 -7h-235
q-11 0 -19 8.5t-8 16.5z" />
    <glyph glyph-name="i" unicode="i" horiz-adv-x="536" 
d="M268 1155q-73 0 -121.5 45t-48.5 115t48.5 115t121.5 45t122.5 -45t49.5 -115t-49.5 -115t-122.5 -45zM123 0v1006q0 11 9 18.5t18 7.5h235q11 0 18 -8.5t7 -17.5v-1006q0 -11 -8 -18t-17 -7h-235q-11 0 -19 8.5t-8 16.5z" />
    <glyph glyph-name="j" unicode="j" horiz-adv-x="538" 
d="M127 -55v1061q0 11 8.5 18.5t16.5 7.5h237q11 0 19 -9t8 -17v-1057q0 -85 -18.5 -154.5t-58 -124.5t-108 -85.5t-161.5 -30.5q-96 0 -172 26q-9 3 -14 12.5t-3 18.5l45 176q8 24 33 18q47 -14 78 -14q51 0 70.5 33t19.5 121zM270 1155q-72 0 -122 45.5t-50 114.5
q0 71 50 115.5t122 44.5q73 0 122.5 -44.5t49.5 -115.5q0 -70 -49.5 -115t-122.5 -45z" />
    <glyph glyph-name="k" unicode="k" horiz-adv-x="1069" 
d="M123 0v1446q0 11 9 17.5t18 6.5h231q11 0 18 -8t7 -16v-838l333 414q7 10 21 10h258q2 0 5.5 -0.5t11 -3.5t11 -7t2.5 -12.5t-10 -19.5l-333 -395l370 -580q1 -2 2.5 -4.5t3.5 -9t1 -12t-8 -9.5t-21 -4h-256q-14 0 -23 13l-239 405l-129 -147v-246q0 -11 -8 -18t-17 -7
h-231q-11 0 -19 8.5t-8 16.5z" />
    <glyph glyph-name="l" unicode="l" horiz-adv-x="555" 
d="M123 258l2 1188q0 11 8.5 19t16.5 8h235q11 0 19 -9t8 -18v-1200q0 -51 24 -51q5 0 18 1.5t20 1t14.5 -5.5t9.5 -16l30 -176q3 -20 -14 -27q-52 -22 -135 -22q-133 0 -194.5 82t-61.5 225z" />
    <glyph glyph-name="m" unicode="m" horiz-adv-x="1726" 
d="M123 0v1006q0 11 9 18.5t18 7.5h194q21 0 25 -24l12 -90q143 139 295 139q201 0 287 -162q78 78 152.5 120t162.5 42q169 0 253.5 -112.5t84.5 -313.5v-631q0 -11 -9 -18t-18 -7h-237q-11 0 -18 8t-7 17v600q0 116 -30.5 159.5t-98.5 43.5q-81 0 -186 -111v-692
q0 -11 -8 -18t-17 -7h-235q-11 0 -19 8.5t-8 16.5v600q0 117 -30 160t-99 43q-78 0 -186 -111v-692q0 -11 -8 -18t-17 -7h-235q-11 0 -19 8.5t-8 16.5z" />
    <glyph glyph-name="n" unicode="n" horiz-adv-x="1146" 
d="M123 0v1006q0 11 9 18.5t18 7.5h194q10 0 16.5 -7t8.5 -15l12 -92q75 66 150.5 102.5t166.5 36.5q170 0 252 -112t82 -314v-631q0 -11 -8 -18t-16 -7h-236q-11 0 -19 8.5t-8 16.5v600q0 118 -29.5 160.5t-101.5 42.5q-54 0 -98 -25t-106 -86v-692q0 -11 -8 -18t-17 -7
h-235q-11 0 -19 8.5t-8 16.5z" />
    <glyph glyph-name="o" unicode="o" horiz-adv-x="1124" 
d="M57 502q0 127 41.5 232.5t111.5 175t160.5 107.5t190.5 38t191 -38t161.5 -107.5t112 -175t41.5 -232.5q0 -126 -41.5 -231.5t-111.5 -174.5t-161.5 -107t-191.5 -38q-99 0 -190 38t-161 107t-111.5 174.5t-41.5 231.5zM350 502q0 -144 57 -225.5t154 -81.5t155 81.5
t58 225.5q0 145 -58 227t-155 82t-154 -81.5t-57 -227.5z" />
    <glyph glyph-name="p" unicode="p" horiz-adv-x="1155" 
d="M406 33l4 -115v-315q0 -11 -8 -18t-17 -7h-235q-11 0 -19 8.5t-8 16.5v1403q0 11 9 18.5t18 7.5h194q21 0 25 -22l10 -68q153 115 293 115q198 0 310 -147.5t112 -391.5q0 -129 -37.5 -237.5t-101 -179.5t-146 -110.5t-172.5 -39.5q-115 0 -231 82zM410 266
q89 -69 178 -69q91 0 150 81t59 238q0 149 -46.5 222t-144.5 73q-92 0 -196 -98v-447z" />
    <glyph glyph-name="q" unicode="q" horiz-adv-x="1148" 
d="M61 502q0 123 37.5 228.5t100.5 176t145 110.5t170 40q150 0 268 -103l13 58q3 20 24 20h187q11 0 18.5 -8.5t7.5 -17.5v-1403q0 -11 -8.5 -18t-17.5 -7h-236q-11 0 -18 8t-7 17v329v2l5 107q-121 -90 -248 -90q-203 0 -322 148t-119 403zM358 504q0 -156 52 -231.5
t149 -75.5q100 0 186 96v446q-90 72 -180 72q-87 0 -147 -80.5t-60 -226.5z" />
    <glyph glyph-name="r" unicode="r" horiz-adv-x="763" 
d="M123 0v1006q0 11 9 17.5t18 6.5h194q21 0 25 -22l12 -113q116 160 272 160q75 0 125 -23q18 -11 15 -26l-41 -205q-2 -10 -11 -17.5t-22 -3.5q-52 15 -96 15q-58 0 -115.5 -44.5t-97.5 -140.5v-610q0 -11 -8 -18t-17 -7h-235q-11 0 -19 8.5t-8 16.5z" />
    <glyph glyph-name="s" unicode="s" horiz-adv-x="882" 
d="M29 129l110 152q7 8 17 10.5t20 -4.5q138 -107 262 -107q135 0 135 94q0 40 -48 69.5t-150 68.5q-47 17 -83.5 34t-79.5 45t-71 60t-47.5 78.5t-19.5 99.5q0 145 108.5 236.5t284.5 91.5q188 0 350 -127q9 -6 9.5 -18t-5.5 -19l-108 -143q-6 -9 -17 -10t-18 5
q-111 80 -207 80q-123 0 -123 -84q0 -16 9.5 -30.5t23.5 -25.5t42 -23.5t52 -21.5t66 -24q42 -16 70 -28t68 -33.5t66 -45t51 -56t37.5 -74.5t12.5 -92q0 -146 -111.5 -241t-304.5 -95q-105 0 -212 39.5t-185 103.5q-8 6 -9 16.5t5 18.5z" />
    <glyph glyph-name="t" unicode="t" horiz-adv-x="739" 
d="M160 340l-2 455h-117q-11 0 -19 8t-8 16v176q0 10 8 17.5t17 7.5l135 10l27 252q4 25 24 25h197q11 0 17.5 -9t6.5 -18v-248h232q11 0 17.5 -8.5t6.5 -17.5v-187q0 -11 -7.5 -17.5t-16.5 -6.5h-232v-455q0 -82 28 -116t89 -34q47 0 94 19q29 10 35 -16l41 -175
q4 -23 -16 -30q-117 -37 -213 -37q-91 0 -158.5 28.5t-107.5 82t-59 122.5t-19 156z" />
    <glyph glyph-name="u" unicode="u" horiz-adv-x="1138" 
d="M115 375l-2 631q0 11 8.5 17.5t17.5 6.5h236q11 0 17.5 -7.5t6.5 -16.5v-600q0 -117 30 -160t101 -43q56 0 99 27.5t98 95.5v680q0 11 9 17.5t18 6.5h235q11 0 18 -8t7 -16v-1006q0 -11 -8.5 -19t-16.5 -8h-192q-20 0 -25 23l-12 98q-136 -143 -311 -143q-170 0 -252 111
t-82 313z" />
    <glyph glyph-name="v" unicode="v" horiz-adv-x="1013" 
d="M350 -8l-350 1005q-1 1 -1.5 3.5t-1 8.5t1.5 10.5t8.5 8.5t17.5 4h239q21 0 25 -18l160 -525q10 -38 31.5 -113.5t31.5 -113.5q8 28 21 74.5t24 84t21 71.5l159 522q7 18 25 18h227h4t8.5 -1.5t9 -5t5.5 -10.5t-2 -18l-342 -1005q-7 -17 -25 -17h-272q-9 0 -16 5.5
t-9 11.5z" />
    <glyph glyph-name="w" unicode="w" horiz-adv-x="1531" 
d="M291 -6l-266 1005l-1 5q-1 4 -0.5 8.5t2 9t7.5 7.5t16 3h238q9 0 15.5 -6t8.5 -14l121 -523q29 -143 35 -178q6 30 41 178l131 523q1 9 9 14.5t16 5.5h215q9 0 15.5 -6t8.5 -14l133 -523q19 -76 45 -188q17 93 35 188l121 523q1 9 9 14.5t16 5.5h221q32 0 24 -33
l-256 -1005q-3 -19 -24 -19h-281q-20 0 -24 19l-117 469q-14 60 -39 184q-6 -35 -41 -186l-115 -467q-3 -19 -24 -19h-271q-20 0 -24 19z" />
    <glyph glyph-name="x" unicode="x" horiz-adv-x="985" 
d="M6 14l311 510l-290 467q-1 2 -2.5 4.5t-3.5 9.5t-1 12.5t8 10t21 4.5h254q14 0 23 -14l112 -191q13 -22 37 -67.5t35 -65.5q40 89 61 133l97 191q7 14 22 14h244h5t9.5 -2t10.5 -5.5t4 -12t-7 -19.5l-288 -495l311 -484q1 -2 2.5 -4.5t3.5 -9t0.5 -12t-8.5 -9.5t-21 -4
h-254q-16 0 -22 11l-123 198q-15 25 -42.5 76t-39.5 72q-68 -139 -72 -146l-106 -198q-7 -13 -23 -13h-245h-5t-10 2t-11 5.5t-4 12t7 19.5z" />
    <glyph glyph-name="y" unicode="y" horiz-adv-x="1013" 
d="M104 -203q4 17 19 18t41 -5.5t37 -6.5q125 0 176 154l16 53l-393 985q-1 2 -1.5 4t-1 8.5t1 11.5t8.5 9t18 4h239q9 0 16 -6t9 -12l174 -494q13 -37 34 -110t31 -103q10 40 30 110.5t28 100.5l151 496q7 18 25 18h227h4t8.5 -1.5t9 -5t5.5 -10.5t-2 -18l-365 -1050
q-33 -91 -70.5 -157.5t-89 -120t-119.5 -80.5t-153 -27q-74 0 -139 20q-9 3 -14 12.5t-3 18.5z" />
    <glyph glyph-name="z" unicode="z" horiz-adv-x="907" 
d="M45 0v127q0 6 4 14l447 654h-373q-11 0 -18 8t-7 16v187q0 11 8.5 18.5t16.5 7.5h717q11 0 17.5 -8.5t6.5 -17.5v-125q0 -7 -4 -15l-444 -651h440q11 0 18 -9t7 -18v-188q0 -11 -8 -18t-17 -7h-786q-11 0 -18 8t-7 17z" />
    <glyph glyph-name="braceleft" unicode="{" horiz-adv-x="663" 
d="M539 -156l47 -2q11 0 17.5 -7.5t6.5 -16.5v-129q0 -11 -8 -19t-16 -8h-111q-142 0 -210 71.5t-68 237.5q0 77 10 192.5t10 178.5q0 129 -151 131q-10 0 -17.5 8t-7.5 17v143q0 10 8 17.5t17 7.5q151 2 151 129q0 64 -10 179.5t-10 192.5q0 166 68 237t210 71h111
q11 0 17.5 -8t6.5 -17v-129q0 -11 -8 -19t-16 -8h-47q-63 0 -82 -24.5t-19 -112.5q0 -55 6.5 -169t6.5 -183q0 -180 -103 -236q103 -54 103 -235q0 -69 -6.5 -183t-6.5 -169q0 -88 19 -113t82 -25z" />
    <glyph glyph-name="bar" unicode="|" horiz-adv-x="522" 
d="M156 -512v2048q0 11 8.5 18t17.5 7h158q11 0 18 -8t7 -17v-2048q0 -11 -8 -18t-17 -7h-158q-11 0 -18.5 8.5t-7.5 16.5z" />
    <glyph glyph-name="braceright" unicode="}" horiz-adv-x="663" 
d="M78 -156h47q62 0 81 25t19 113q0 55 -6 169t-6 183q0 180 102 235q-55 30 -78.5 86.5t-23.5 149.5q0 69 6 183t6 169q0 88 -19 113.5t-81 25.5h-47q-11 0 -18 8t-7 17v129q0 11 8.5 19t16.5 8h110q142 0 210.5 -72t68.5 -238q0 -77 -10.5 -192.5t-10.5 -179.5
q0 -127 152 -129q10 0 17.5 -8t7.5 -17v-143q0 -10 -8 -17.5t-17 -7.5q-152 -2 -152 -131q0 -63 10.5 -178.5t10.5 -192.5q0 -166 -68.5 -236.5t-210.5 -70.5h-110q-11 0 -18 8t-7 17v129q0 11 8.5 18.5t16.5 7.5z" />
    <glyph glyph-name="asciitilde" unicode="~" horiz-adv-x="1050" 
d="M178 530l-127 95q-8 6 -10 16t2 18q66 106 144.5 158.5t160.5 52.5q51 0 98 -17t82 -41t65.5 -47.5t60 -40.5t53.5 -17q72 0 129 106q4 8 13.5 12t24.5 -4l125 -96q7 -6 9.5 -17t-2.5 -18q-64 -104 -143 -156.5t-161 -52.5q-51 0 -98 17t-81.5 41t-65 48t-60 41t-53.5 17
q-72 0 -129 -106q-4 -9 -13 -13t-24 4z" />
    <glyph glyph-name="uni00A0" unicode="&#xa0;" horiz-adv-x="419" 
 />
    <glyph glyph-name="exclamdown" unicode="&#xa1;" horiz-adv-x="645" 
d="M428 567l31 -698l10 -236q0 -11 -7.5 -18.5t-19.5 -7.5h-237q-10 0 -17.5 7.5t-7.5 18.5l6 234l33 700q0 10 7.5 16.5t17.5 6.5h157q11 0 19 -7t8 -16zM500 872q0 -80 -50.5 -134t-125.5 -54t-128 54.5t-53 133.5q0 78 52.5 130.5t128.5 52.5q75 0 125.5 -53t50.5 -130z
" />
    <glyph glyph-name="cent" unicode="&#xa2;" horiz-adv-x="1050" 
d="M524 369v526q-145 -69 -145 -264q0 -96 37.5 -163.5t107.5 -98.5zM887 416l98 -150q11 -18 -4 -33q-118 -106 -268 -131v-178q0 -11 -9 -18.5t-18 -7.5h-135q-11 0 -18 8.5t-7 17.5v180q-197 33 -311.5 171t-114.5 356q0 211 118 348t308 174v186q0 11 8 18t17 7h135
q11 0 19 -8.5t8 -16.5v-176q147 -16 254 -123q16 -16 2 -34l-111 -146q-6 -8 -17 -8.5t-20 6.5q-53 45 -110 60v-570q65 15 139 74q22 16 37 -6z" />
    <glyph glyph-name="sterling" unicode="&#xa3;" horiz-adv-x="1050" 
d="M471 227h504q11 0 17.5 -8.5t6.5 -17.5v-201q0 -11 -8 -18t-16 -7h-871q-11 0 -18.5 8.5t-7.5 16.5v145q0 16 14 23q94 46 148.5 130t54.5 187q0 24 -4 60h-182q-11 0 -19 8t-8 16v142q0 9 7.5 16.5t16.5 7.5l130 10q-35 119 -35 185q0 193 121.5 308.5t314.5 115.5
q213 0 356 -170q6 -8 5 -18.5t-7 -16.5l-131 -129q-7 -8 -18.5 -7.5t-18.5 9.5q-76 88 -166 88q-85 0 -131.5 -49.5t-46.5 -142.5q0 -67 29 -170h297q11 0 17.5 -9t6.5 -18v-152q0 -11 -7.5 -17.5t-16.5 -6.5h-252q2 -20 2 -62q0 -150 -84 -256z" />
    <glyph glyph-name="currency" unicode="&#xa4;" horiz-adv-x="1050" 
d="M150 172l-121 123q-7 8 -6.5 19.5t6.5 17.5l112 114q-65 105 -65 228q0 124 65 229l-112 115q-7 8 -6.5 19.5t6.5 17.5l121 123q8 8 18 8t18 -8l125 -129q97 57 213 57q114 0 213 -57l127 129q8 8 19 8t18 -8l121 -123q7 -8 6.5 -19.5t-6.5 -17.5l-115 -115
q64 -103 64 -229q0 -125 -64 -228l115 -114q7 -8 6.5 -19.5t-6.5 -17.5l-121 -123q-7 -8 -18 -8t-19 8l-127 129q-93 -55 -213 -55t-211 55l-127 -129q-8 -8 -18 -8t-18 8zM342 674q0 -94 53 -151.5t129 -57.5q78 0 131.5 57.5t53.5 151.5q0 96 -54 154.5t-131 58.5
q-76 0 -129 -59t-53 -154z" />
    <glyph glyph-name="yen" unicode="&#xa5;" horiz-adv-x="1050" 
d="M37 1327h244q17 0 24 -14l131 -309q6 -16 39.5 -100.5t52.5 -127.5l93 228l131 309q6 14 24 14h238h4.5t9 -1t9 -5t4.5 -11.5t-5 -19.5l-299 -590h230q11 0 17.5 -7.5t6.5 -16.5v-121q0 -11 -8 -19t-16 -8h-299v-67h299q11 0 17.5 -9t6.5 -18v-123q0 -11 -7.5 -17.5
t-16.5 -6.5h-299v-287q0 -11 -8 -18t-17 -7h-237q-11 0 -19 8.5t-8 16.5v287h-295q-11 0 -19 8t-8 16v123q0 11 9 19t18 8h295v67h-295q-11 0 -19 9t-8 18v121q0 11 9 17.5t18 6.5h227l-297 590l-2 4t-2.5 8.5t0 11.5t8 9t19.5 4z" />
    <glyph glyph-name="brokenbar" unicode="&#xa6;" horiz-adv-x="522" 
d="M156 618v918q0 11 8.5 18t17.5 7h158q11 0 18 -8t7 -17v-918q0 -11 -8 -17.5t-17 -6.5h-158q-11 0 -18.5 8t-7.5 16zM182 455h158q11 0 18 -9t7 -18v-940q0 -11 -8 -18t-17 -7h-158q-11 0 -18.5 8.5t-7.5 16.5v940q0 11 9 19t17 8z" />
    <glyph glyph-name="section" unicode="&#xa7;" horiz-adv-x="1050" 
d="M311 700q0 -35 19 -64t58.5 -53.5t78.5 -43t100.5 -46t102.5 -49.5q37 22 52 49t15 70q0 30 -15 56.5t-37.5 45.5t-60 40.5t-71 36.5t-83.5 38t-85 41q-74 -48 -74 -121zM893 1268l-111 -150q-16 -22 -37 -4q-101 88 -204 88q-109 0 -109 -76q0 -28 31 -53t80.5 -47.5
t109 -47.5t119.5 -60t109.5 -78.5t80.5 -110t31 -147.5q0 -173 -159 -277q43 -68 43 -155q0 -143 -107.5 -235.5t-282.5 -92.5q-118 0 -223 44t-174 126q-6 8 -5 18.5t9 16.5l139 123q8 7 18.5 6.5t16.5 -6.5q99 -99 219 -99q63 0 93 24.5t30 63.5q0 31 -30.5 57t-79 48
t-107 46t-117.5 58t-107.5 77t-79 109.5t-30.5 149.5q0 82 42 152.5t114 117.5q-47 64 -47 162q0 138 96.5 228t263.5 90q194 0 361 -131q8 -6 9 -16.5t-5 -18.5z" />
    <glyph glyph-name="dieresis" unicode="&#xa8;" horiz-adv-x="1124" 
d="M373 1159q-64 0 -106 43t-42 107q0 62 42 103.5t106 41.5q63 0 105 -41.5t42 -103.5t-42.5 -106t-104.5 -44zM752 1159q-63 0 -104.5 43.5t-41.5 106.5q0 61 41 103t105 42t106.5 -41.5t42.5 -103.5q0 -63 -42.5 -106.5t-106.5 -43.5z" />
    <glyph glyph-name="copyright" unicode="&#xa9;" horiz-adv-x="1529" 
d="M70 664q0 158 56.5 291.5t152 222t221.5 137.5t266 49q111 0 214.5 -30.5t190.5 -91t151.5 -144t101 -195.5t36.5 -239q0 -158 -56.5 -293t-151.5 -225t-221 -140.5t-265 -50.5q-140 0 -266 50.5t-221.5 140.5t-152 224.5t-56.5 293.5zM240 664q0 -123 41 -227
t112 -174.5t167.5 -110t205.5 -39.5t205 39.5t166.5 110t111.5 174.5t41 227q0 122 -41 224.5t-112 172t-166.5 108.5t-204.5 39t-205.5 -39t-167.5 -108.5t-112 -172t-41 -224.5zM377 662q0 123 58 219t151.5 146t201.5 50q158 0 283 -125q7 -8 6.5 -18t-6.5 -16l-92 -103
q-6 -8 -17.5 -8.5t-19.5 6.5q-38 37 -69.5 52.5t-71.5 15.5q-91 0 -144 -60t-53 -159q0 -109 51 -170.5t138 -61.5q49 0 86 18t84 56q20 16 36 -6l80 -115q6 -8 5 -18.5t-9 -16.5q-136 -115 -289 -115q-178 0 -293.5 118t-115.5 311z" />
    <glyph glyph-name="ordfeminine" unicode="&#xaa;" horiz-adv-x="720" 
d="M272 500q-103 0 -166 63t-63 160q0 118 97.5 181.5t293.5 84.5q-6 40 -24.5 57t-61.5 17q-74 0 -182 -64q-9 -5 -20 -1.5t-15 12.5l-61 112q-4 9 -2 19.5t10 15.5q144 92 299 92q136 0 209 -82t73 -233v-393q0 -11 -9 -19t-17 -8h-137q-9 0 -16 6.5t-9 14.5l-8 36
q-92 -71 -191 -71zM328 682q48 0 110 53v103q-178 -23 -178 -101q0 -30 15 -42.5t53 -12.5z" />
    <glyph glyph-name="guillemotleft" unicode="&#xab;" horiz-adv-x="931" 
d="M354 109l-276 305q-8 8 -8 16v172q0 8 8 16l276 306q18 18 35 4l94 -76q8 -6 9 -16.5t-5 -18.5l-223 -301l223 -303q6 -8 5 -18.5t-9 -16.5l-94 -74q-8 -5 -18 -3.5t-17 8.5zM711 109l-279 305q-8 8 -8 16v172q0 8 8 16l279 306q17 17 34 4l93 -76q8 -6 9 -16.5t-5 -18.5
l-221 -301l221 -303q6 -8 5 -18.5t-9 -16.5l-93 -74q-8 -5 -17.5 -3.5t-16.5 8.5z" />
    <glyph glyph-name="logicalnot" unicode="&#xac;" horiz-adv-x="1050" 
d="M45 590v172q0 11 8.5 18.5t16.5 7.5h911q11 0 19 -9t8 -17v-559q0 -11 -9 -19t-18 -8h-178q-11 0 -18 9t-7 18v362h-708q-11 0 -18 8t-7 17z" />
    <glyph glyph-name="uni00AD" unicode="&#xad;" horiz-adv-x="659" 
d="M61 430v172q0 11 8.5 19t16.5 8h487q11 0 19 -9t8 -18v-172q0 -11 -9 -17.5t-18 -6.5h-487q-11 0 -18 8t-7 16z" />
    <glyph glyph-name="registered" unicode="&#xae;" horiz-adv-x="907" 
d="M453 618q-176 0 -298 123.5t-122 311.5q0 189 122 312.5t298 123.5q177 0 298 -123t121 -313q0 -188 -121 -311.5t-298 -123.5zM453 758q120 0 196 81.5t76 213.5q0 134 -76 216.5t-196 82.5t-196.5 -82.5t-76.5 -216.5q0 -132 76.5 -213.5t196.5 -81.5zM270 854l-2 408
q0 11 9 18.5t18 7.5h170q80 0 134 -39.5t54 -120.5q0 -79 -65 -122l78 -140q1 -2 2.5 -4.5t3 -9t0 -12t-8.5 -9.5t-20 -4h-108q-15 0 -23 15l-61 121h-27v-109q0 -11 -9 -19t-18 -8h-102q-11 0 -18 9t-7 18zM422 1085h22q50 0 50 37q0 18 -10 27.5t-38 9.5h-24v-74z" />
    <glyph glyph-name="macron" unicode="&#xaf;" horiz-adv-x="1124" 
d="M270 1221v155q0 11 8.5 19t16.5 8h534q11 0 19 -9t8 -18v-155q0 -11 -9 -18t-18 -7h-534q-11 0 -18 8t-7 17z" />
    <glyph glyph-name="degree" unicode="&#xb0;" horiz-adv-x="712" 
d="M358 819q-125 0 -213 86t-88 219q0 132 87.5 217.5t213.5 85.5t215 -85.5t89 -217.5t-89 -218.5t-215 -86.5zM358 991q54 0 87.5 36.5t33.5 96.5q0 61 -34 97t-87 36t-85.5 -36t-32.5 -97q0 -60 32 -96.5t86 -36.5z" />
    <glyph glyph-name="plusminus" unicode="&#xb1;" horiz-adv-x="1050" 
d="M410 293v293h-340q-11 0 -18 8.5t-7 17.5v170q0 11 8 18t17 7h340v342q0 11 9 19t17 8h178q11 0 18 -9t7 -18v-342h342q11 0 19 -8.5t8 -16.5v-170q0 -11 -9 -18.5t-18 -7.5h-342v-293q0 -11 -8.5 -19t-16.5 -8h-178q-11 0 -18.5 9t-7.5 18zM45 0v170q0 11 8.5 19t16.5 8
h911q11 0 19 -9t8 -18v-170q0 -11 -9 -18t-18 -7h-911q-11 0 -18 8t-7 17z" />
    <glyph glyph-name="two.sups" unicode="&#xb2;" horiz-adv-x="761" 
d="M74 901v98q0 14 8 19q188 162 272 255.5t84 158.5q0 58 -28.5 89t-81.5 31q-70 0 -138 -96q-17 -23 -36 -4l-103 94q-7 6 -8 16.5t4 16.5q123 172 307 172q137 0 222.5 -78t85.5 -213q0 -51 -16 -99t-51.5 -99t-67 -88t-87.5 -97h230q11 0 18.5 -8.5t7.5 -17.5v-150
q0 -11 -8.5 -17.5t-17.5 -6.5h-572q-11 0 -17.5 7.5t-6.5 16.5z" />
    <glyph glyph-name="three.sups" unicode="&#xb3;" horiz-adv-x="761" 
d="M47 1057l111 86q7 7 18.5 5.5t18.5 -11.5q64 -97 165 -97q51 0 82 25t31 68q0 96 -194 96q-11 0 -18 8.5t-7 17.5v105q0 11 8 17.5t17 6.5q80 0 121.5 28t41.5 71q0 36 -25 57t-71 21q-65 0 -127 -78q-6 -8 -17 -8.5t-20 6.5l-102 90q-8 6 -8.5 16.5t6.5 18.5
q65 73 135.5 109t161.5 36q120 0 206.5 -67t86.5 -179q0 -115 -99 -186q129 -68 129 -199q0 -120 -95.5 -194t-227.5 -74q-106 0 -192.5 45t-139.5 125q-6 9 -4 19.5t8 15.5z" />
    <glyph glyph-name="acute" unicode="&#xb4;" horiz-adv-x="1124" 
d="M850 1456l-244 -299q-7 -10 -20 -10h-174h-5t-10 2.5t-11 6.5t-4 12.5t7 19.5l182 299q5 10 23 10h235q2 0 5.5 -0.5t11 -3t11.5 -6.5t3 -12t-10 -19z" />
    <glyph glyph-name="uni00B5" unicode="&#xb5;" horiz-adv-x="1150" 
d="M123 -410v1416q0 11 9 17.5t18 6.5h235q11 0 18 -8t7 -16v-600q0 -117 31 -160t102 -43q56 0 98.5 27t99.5 96v680q0 11 8 17.5t17 6.5h235q11 0 19 -8t8 -16v-1006q0 -11 -9 -19t-18 -8h-194q-10 0 -16.5 7.5t-8.5 17.5l-10 90q-98 -125 -244 -125q-82 0 -125 27l7 -119
v-2v-279q0 -11 -8 -17.5t-17 -6.5h-235q-11 0 -19 8t-8 16z" />
    <glyph glyph-name="paragraph" unicode="&#xb6;" horiz-adv-x="1226" 
d="M766 -164v1503q0 11 9 18t18 7h237q11 0 18 -8t7 -17v-1503q0 -11 -8 -17.5t-17 -6.5h-237q-11 0 -19 8t-8 16zM604 410q-115 0 -213 30t-173 88t-118 151.5t-43 213.5q0 102 28 183t76 134.5t116 88.5t145.5 50t167.5 15h90q11 0 19 -8.5t8 -16.5v-905q0 -11 -9 -17.5
t-18 -6.5h-76z" />
    <glyph glyph-name="periodcentered" unicode="&#xb7;" horiz-adv-x="563" 
d="M102 657q0 78 53 131.5t128 53.5t125.5 -53.5t50.5 -131.5t-50.5 -132t-125.5 -54t-128 54t-53 132z" />
    <glyph glyph-name="cedilla" unicode="&#xb8;" horiz-adv-x="1124" 
d="M406 -141l81 159q7 15 23 15h143h4.5t9 -1t9 -5t5 -11.5t-4.5 -19.5l-35 -76q113 -52 113 -164q0 -56 -30.5 -99t-83.5 -68t-112.5 -39t-128.5 -19q-22 0 -26 20l-21 103q-2 10 4 19t19 10q76 9 114.5 27.5t38.5 41.5q0 42 -106 70q-30 10 -16 37z" />
    <glyph glyph-name="one.sups" unicode="&#xb9;" horiz-adv-x="761" 
d="M319 901v578h-151q-11 0 -18 8t-7 16v111q0 22 21 26q71 12 114 29t89 51q4 4 14 4h141q11 0 19 -8t8 -16v-799q0 -11 -9 -17.5t-18 -6.5h-178q-11 0 -18 8t-7 16z" />
    <glyph glyph-name="ordmasculine" unicode="&#xba;" horiz-adv-x="755" 
d="M377 500q-145 0 -246.5 102t-101.5 270q0 171 101.5 274t246.5 103t246.5 -103t101.5 -274q0 -168 -101.5 -270t-246.5 -102zM377 688q58 0 90.5 47.5t32.5 136.5q0 92 -32.5 140.5t-90.5 48.5t-90.5 -48.5t-32.5 -140.5q0 -89 32.5 -136.5t90.5 -47.5z" />
    <glyph glyph-name="guillemotright" unicode="&#xbb;" horiz-adv-x="931" 
d="M90 213l221 303l-221 301q-6 8 -5 18.5t9 16.5l92 76q8 6 18.5 4t16.5 -8l279 -306q8 -8 8 -16v-172q0 -8 -8 -16l-279 -305q-8 -8 -18.5 -9.5t-16.5 4.5l-92 74q-8 6 -9 16.5t5 18.5zM446 213l222 303l-222 301q-6 8 -4.5 18.5t9.5 16.5l92 76q8 6 18.5 5t16.5 -9
l276 -306q8 -8 8 -16v-172q0 -8 -8 -16l-276 -305q-18 -18 -35 -5l-92 74q-8 6 -9.5 16.5t4.5 18.5z" />
    <glyph glyph-name="onequarter" unicode="&#xbc;" horiz-adv-x="1628" 
d="M467 516l-178 -2q-11 0 -19 9t-8 18v575h-151q-11 0 -18 9t-7 18v110q0 22 20 25q71 11 113 29t92 53q4 4 15 4h141q11 0 18 -8t7 -17v-798q0 -11 -8 -18t-17 -7zM1106 1389h143q0 -1 4.5 0t10 -1t10 -5t4.5 -11.5t-6 -19.5l-729 -1389q-7 -14 -23 -14h-145h-5t-9.5 2
t-10.5 5.5t-4 12t6 19.5l731 1388q7 13 23 13zM1161 340h123v88l8 141q-22 -38 -66 -114.5t-65 -114.5zM1612 315v-120q0 -11 -8.5 -19t-16.5 -8h-94v-168q0 -11 -8.5 -19t-16.5 -8h-157q-11 0 -19 9t-8 18v168h-338q-11 0 -18.5 9t-7.5 18v90q0 8 4 12l311 514q6 12 22 12
h211q11 0 18 -8t7 -16v-459h94q11 0 18 -8t7 -17z" />
    <glyph glyph-name="onehalf" unicode="&#xbd;" horiz-adv-x="1693" 
d="M262 541v575h-151q-11 0 -18 9t-7 18v110q0 22 20 25q71 11 113 29t92 53q4 4 15 4h141q11 0 18 -8t7 -17v-798q0 -11 -8 -18t-17 -7h-178q-11 0 -19 8.5t-8 16.5zM483 -51h-145h-5t-9.5 2t-10.5 5.5t-4 12t6 19.5l732 1388q7 13 22 13h143q0 -1 4.5 0t10 -1t10 -5
t4.5 -11.5t-6 -19.5l-729 -1389q-7 -14 -23 -14zM1006 0l2 98q0 14 8 19q190 165 273 257t83 156q0 58 -29 88.5t-81 30.5q-74 0 -140 -94q-18 -23 -37 -4l-102 94q-16 13 -4 33q129 172 307 172q136 0 221.5 -78t85.5 -213q0 -95 -54 -180t-165 -205h228q11 0 17.5 -7.5
t6.5 -16.5v-150q0 -11 -8 -19t-16 -8h-570q-11 0 -18.5 9t-7.5 18z" />
    <glyph glyph-name="threequarters" unicode="&#xbe;" horiz-adv-x="1652" 
d="M178 1120l-102 90q-8 6 -8.5 16.5t6.5 18.5q65 73 135 109.5t160 36.5q120 0 206.5 -67t86.5 -179q0 -116 -99 -187q129 -68 129 -198q0 -120 -94.5 -194t-226.5 -74q-106 0 -192.5 45t-139.5 125q-6 9 -4 19t8 15l111 86q20 16 36 -6q64 -96 164 -96q51 0 82 25t31 67
q0 96 -193 96q-11 0 -17.5 9t-6.5 18v104q0 11 8 18t16 7q81 0 122.5 27.5t41.5 70.5q0 36 -25.5 57t-72.5 21q-63 0 -125 -78q-6 -8 -17 -8.5t-20 6.5zM1167 1391h144h5t9.5 -2t10 -5.5t3.5 -12t-6 -19.5l-731 -1389q-6 -12 -22 -12h-144q0 1 -4.5 0t-10 1t-10 5t-4 11.5
t6.5 19.5l731 1388q7 15 22 15zM1184 342h125v86l8 141q-19 -34 -133 -227zM1636 315v-120q0 -11 -8 -18t-16 -7h-94v-170q0 -11 -8 -18t-17 -7h-158q-11 0 -18.5 8.5t-7.5 16.5v170h-340q-11 0 -19 8.5t-8 16.5v90q0 8 4 12l311 514q7 14 23 14h213q11 0 18 -8.5t7 -17.5
v-457h94q11 0 17.5 -9t6.5 -18z" />
    <glyph glyph-name="questiondown" unicode="&#xbf;" horiz-adv-x="909" 
d="M614 569q9 -64 -1 -124t-33 -107t-53 -90t-62 -80t-58.5 -70.5t-43.5 -67.5t-17 -65q0 -65 36 -102t105 -37q98 0 191 100q8 7 18.5 6.5t16.5 -6.5l133 -121q7 -7 7.5 -17.5t-5.5 -16.5q-168 -189 -377 -189q-179 0 -291 96t-112 271q0 79 32.5 149.5t77 122.5
t88.5 102.5t70.5 111.5t19.5 128q-2 10 4 18.5t21 8.5h209q20 0 24 -21zM662 872q0 -79 -52 -133.5t-127 -54.5t-125.5 54t-50.5 134q0 77 50.5 130t125.5 53t127 -53t52 -130z" />
    <glyph glyph-name="Agrave" unicode="&#xc0;" horiz-adv-x="1142" 
d="M696 1417h-192q-13 0 -19 6l-237 238q-1 2 -3 5t-5 10t-2.5 13t7.5 10.5t21 4.5h258q14 0 21 -10l172 -238q1 -2 3 -4.5t4 -9t1.5 -12t-8 -9.5t-21.5 -4zM707 573l-140 500l-137 -500h277zM872 -6l-98 342h-414l-98 -342q-8 -19 -24 -19h-242h-4t-8.5 1t-9 4.5t-5.5 10
t2 17.5l437 1340q6 16 24 16h279q18 0 24 -16l436 -1340q1 -1 1.5 -3.5t1 -8t-1 -10t-8 -8t-17.5 -3.5h-250q-21 0 -25 19z" />
    <glyph glyph-name="Aacute" unicode="&#xc1;" horiz-adv-x="1142" 
d="M887 1661l-240 -238q-6 -6 -18 -6h-191h-5t-10 2t-10.5 5.5t-3 12t8.5 19.5l172 238q7 10 20 10h258q2 0 5.5 -1t11 -4t11.5 -7.5t2.5 -12.5t-11.5 -18zM430 575h277l-140 498zM872 -6l-98 344h-414l-98 -344q-8 -19 -24 -19h-242h-4t-8.5 1t-9 4.5t-5.5 10t2 17.5
l437 1340q7 18 24 18h279q17 0 24 -18l436 -1340q1 -1 1.5 -3.5t1 -8t-1 -10t-8 -8t-17.5 -3.5h-250q-21 0 -25 19z" />
    <glyph glyph-name="Acircumflex" unicode="&#xc2;" horiz-adv-x="1142" 
d="M567 1540l-108 -117q-5 -8 -19 -8h-184q-2 0 -5.5 0.5t-11 3.5t-11 7t-2.5 12.5t10 19.5l196 238q5 8 21 8h229q15 0 20 -8l197 -238q1 -2 3 -5t4.5 -10t2 -13t-8 -10.5t-21.5 -4.5h-185q-10 0 -18 8zM707 573l-140 500l-137 -500h277zM872 -6l-98 342h-414l-98 -342
q-8 -21 -24 -21h-242h-4t-8.5 1.5t-9 5t-5.5 10.5t2 18l437 1340q6 16 24 16h279q18 0 24 -16l436 -1340q1 -1 1.5 -3.5t1 -8.5t-1 -10.5t-8 -8.5t-17.5 -4h-250q-9 0 -16 6.5t-9 14.5z" />
    <glyph glyph-name="Atilde" unicode="&#xc3;" horiz-adv-x="1142" 
d="M766 1724l123 -2q26 0 24 -26q-12 -123 -71.5 -199t-149.5 -76q-42 0 -83 16t-67 35.5t-52 35.5t-41 16q-16 0 -32 -18.5t-24 -61.5q-1 -9 -8.5 -16t-15.5 -7h-125q-10 0 -18 7t-7 22q12 124 71.5 199t149.5 75q42 0 83.5 -15.5t68 -34.5t52.5 -34.5t40 -15.5q42 0 57 78
q1 9 9 15.5t16 6.5zM707 573l-140 500l-137 -500h277zM872 -6l-98 342h-414l-98 -342q-8 -21 -24 -21h-242h-4t-8.5 1.5t-9 5t-5.5 10.5t2 18l437 1340q6 16 24 16h279q18 0 24 -16l436 -1340q1 -1 1.5 -3.5t1 -8.5t-1 -10.5t-8 -8.5t-17.5 -4h-250q-9 0 -16 6.5t-9 14.5z
" />
    <glyph glyph-name="Adieresis" unicode="&#xc4;" horiz-adv-x="1142" 
d="M758 1425q-64 0 -106 41.5t-42 104.5q0 65 42 107t106 42q63 0 105 -42.5t42 -106.5q0 -63 -42 -104.5t-105 -41.5zM377 1425q-64 0 -106 41.5t-42 104.5q0 65 42 107t106 42q65 0 107 -42t42 -107q0 -63 -42.5 -104.5t-106.5 -41.5zM430 573h277l-140 500zM872 -6
l-98 342h-414l-98 -342q-8 -19 -24 -19h-242h-4t-8.5 1t-9 4.5t-5.5 10t2 17.5l437 1340q6 16 24 16h279q18 0 24 -16l436 -1340q1 -1 1.5 -3.5t1 -8t-1 -10t-8 -8t-17.5 -3.5h-250q-21 0 -25 19z" />
    <glyph glyph-name="Aring" unicode="&#xc5;" horiz-adv-x="1142" 
d="M567 1692q-28 0 -46.5 -19.5t-18.5 -52.5q0 -34 17.5 -52t47.5 -18q28 0 46 17.5t18 52.5q0 34 -18 53t-46 19zM567 1405q-103 0 -169 58.5t-66 156.5q0 97 66.5 157t168.5 60t170 -60t68 -157q0 -98 -68 -156.5t-170 -58.5zM430 573h277l-140 500zM872 -6l-98 342h-414
l-98 -342q-8 -19 -24 -19h-242h-4t-8.5 1t-9 4.5t-5.5 10t2 17.5l437 1340q6 16 24 16h279q18 0 24 -16l436 -1340q1 -1 1.5 -3.5t1 -8t-1 -10t-8 -8t-17.5 -3.5h-250q-21 0 -25 19z" />
    <glyph glyph-name="AE" unicode="&#xc6;" horiz-adv-x="1708" 
d="M782 1061l-237 -500h237v500zM1071 227h533q11 0 18.5 -8.5t7.5 -17.5v-201q0 -11 -8.5 -18t-17.5 -7h-797q-11 0 -18 8t-7 17v324h-352l-164 -334q-8 -15 -22 -15h-250h-4.5t-9.5 1t-9.5 5t-4.5 11.5t5 19.5l670 1340q7 14 23 14h919q11 0 19 -9t8 -18v-200
q0 -11 -9 -18t-18 -7h-512v-293h426q11 0 19 -8t8 -16v-201q0 -11 -9 -19t-18 -8h-426v-342z" />
    <glyph glyph-name="Ccedilla" unicode="&#xc7;" horiz-adv-x="1179" 
d="M1012 332l133 -146q14 -18 0 -32q-145 -167 -348 -197l-17 -37q113 -52 113 -164q0 -56 -30.5 -99t-83 -68t-112 -39t-128.5 -19q-10 0 -17.5 6t-9.5 14l-20 103q-4 26 22 29q76 9 115 27.5t39 41.5q0 42 -107 70q-30 10 -16 37l51 100q-233 38 -377.5 224.5
t-144.5 482.5q0 165 50.5 302.5t138 229t205 141.5t251.5 50q120 0 223.5 -50t175.5 -127q14 -17 0 -34l-133 -148q-6 -8 -17 -9t-20 7q-102 102 -227 102q-156 0 -254 -121.5t-98 -336.5q0 -220 93 -342.5t251 -122.5q150 0 262 125q20 20 37 0z" />
    <glyph glyph-name="Egrave" unicode="&#xc8;" horiz-adv-x="1101" 
d="M143 0v1339q0 11 9 19t18 8h807q11 0 19 -9t8 -18v-200q0 -11 -9 -18t-18 -7h-545v-293h457q11 0 17.5 -7.5t6.5 -16.5v-201q0 -11 -8 -19t-16 -8h-457v-342h565q11 0 19 -9t8 -17v-201q0 -11 -9 -18t-18 -7h-827q-11 0 -19 8.5t-8 16.5zM506 1423l-238 238q-1 2 -3 5
t-5 10t-2 13t8 10.5t21 4.5h256q13 0 20 -10l174 -238q1 -2 3 -4.5t4.5 -9t2 -12t-8 -9.5t-21.5 -4h-193q-12 0 -18 6z" />
    <glyph glyph-name="Eacute" unicode="&#xc9;" horiz-adv-x="1101" 
d="M143 0v1339q0 11 9 19t18 8h807q11 0 19 -9t8 -18v-200q0 -11 -9 -18t-18 -7h-545v-293h457q11 0 17.5 -7.5t6.5 -16.5v-201q0 -11 -8 -19t-16 -8h-457v-342h565q11 0 19 -9t8 -17v-201q0 -11 -9 -18t-18 -7h-827q-11 0 -19 8.5t-8 16.5zM905 1661l-237 -238
q-6 -6 -19 -6h-192h-5.5t-10.5 2t-11 5.5t-3.5 12t9.5 19.5l174 238q7 10 21 10h256q2 0 5.5 -0.5t11 -4t11.5 -7.5t2 -12.5t-12 -18.5z" />
    <glyph glyph-name="Ecircumflex" unicode="&#xca;" horiz-adv-x="1101" 
d="M143 0v1339q0 11 9 19t18 8h807q11 0 19 -9t8 -18v-200q0 -11 -9 -18t-18 -7h-545v-293h457q11 0 17.5 -7.5t6.5 -16.5v-201q0 -11 -8 -19t-16 -8h-457v-342h565q11 0 19 -9t8 -17v-201q0 -11 -9 -18t-18 -7h-827q-11 0 -19 8.5t-8 16.5zM459 1417l-185 -2q-2 0 -5.5 0.5
t-11 3.5t-11 7t-2.5 12.5t10 19.5l197 238q7 10 20 10h229q14 0 21 -10l197 -238q1 -2 3 -4.5t4 -9.5t1.5 -12.5t-8 -10t-21.5 -4.5h-184q-13 0 -19 6l-108 117l-109 -117q-4 -6 -18 -6z" />
    <glyph glyph-name="Edieresis" unicode="&#xcb;" horiz-adv-x="1101" 
d="M143 0v1339q0 11 9 19t18 8h807q11 0 19 -9t8 -18v-200q0 -11 -9 -18t-18 -7h-545v-293h457q11 0 17.5 -7.5t6.5 -16.5v-201q0 -11 -8 -19t-16 -8h-457v-342h565q11 0 19 -9t8 -17v-201q0 -11 -9 -18t-18 -7h-827q-11 0 -19 8.5t-8 16.5zM397 1425q-64 0 -105.5 41.5
t-41.5 104.5q0 65 41.5 107t105.5 42q63 0 105.5 -42.5t42.5 -106.5q0 -63 -42.5 -104.5t-105.5 -41.5zM776 1425q-64 0 -104.5 41.5t-40.5 104.5q0 64 40.5 106.5t104.5 42.5q65 0 107.5 -42.5t42.5 -106.5q0 -63 -42.5 -104.5t-107.5 -41.5z" />
    <glyph glyph-name="Igrave" unicode="&#xcc;" horiz-adv-x="577" 
d="M143 0v1339q0 11 9 18t18 7h238q11 0 17.5 -8t6.5 -17v-1339q0 -11 -8 -18t-16 -7h-238q-11 0 -19 8.5t-8 16.5zM209 1423l-240 238q-1 2 -3 5t-4.5 10t-1.5 13t7.5 10.5t20.5 4.5h258q13 0 20 -10l172 -238q1 -2 3 -4.5t4.5 -9t2 -12t-8 -9.5t-21.5 -4h-191q-12 0 -18 6
z" />
    <glyph glyph-name="Iacute" unicode="&#xcd;" horiz-adv-x="577" 
d="M143 0v1339q0 11 9 18t18 7h238q11 0 17.5 -8t6.5 -17v-1339q0 -11 -8 -18t-16 -7h-238q-11 0 -19 8.5t-8 16.5zM608 1661l-237 -238q-6 -6 -19 -6h-192h-5t-10.5 2t-11 5.5t-3 12t8.5 19.5l172 238q7 10 21 10h258q2 0 5.5 -0.5t11 -4t11.5 -7.5t2 -12.5t-12 -18.5z" />
    <glyph glyph-name="Icircumflex" unicode="&#xce;" horiz-adv-x="577" 
d="M143 0v1339q0 11 9 18t18 7h238q11 0 17.5 -8t6.5 -17v-1339q0 -11 -8 -18t-16 -7h-238q-11 0 -19 8.5t-8 16.5zM162 1417l-185 -2q-2 0 -5.5 0.5t-11 3.5t-11 7t-2.5 12.5t10 19.5l197 238q7 10 20 10h229q14 0 21 -10l197 -238q1 -2 3 -4.5t4 -9.5t1.5 -12.5t-8 -10
t-21.5 -4.5h-184q-13 0 -19 6l-108 117l-109 -117q-4 -6 -18 -6z" />
    <glyph glyph-name="Idieresis" unicode="&#xcf;" horiz-adv-x="577" 
d="M143 0v1339q0 11 9 18t18 7h238q11 0 17.5 -8t6.5 -17v-1339q0 -11 -8 -18t-16 -7h-238q-11 0 -19 8.5t-8 16.5zM98 1425q-63 0 -105 41.5t-42 104.5q0 64 42 106.5t105 42.5q64 0 106 -42t42 -107q0 -63 -42 -104.5t-106 -41.5zM479 1425q-64 0 -105.5 41.5t-41.5 104.5
q0 65 41.5 107t105.5 42q65 0 107.5 -42.5t42.5 -106.5q0 -63 -42.5 -104.5t-107.5 -41.5z" />
    <glyph glyph-name="Eth" unicode="&#xd0;" horiz-adv-x="1329" 
d="M481 219h80q397 0 397 457q0 232 -100 339t-297 107h-80v-340h256q11 0 18 -8t7 -16v-121q0 -11 -8.5 -19t-16.5 -8h-256v-391zM219 1366l356 -2q323 0 500.5 -175.5t177.5 -512.5q0 -339 -176 -521t-489 -182h-369q-11 0 -18.5 9t-7.5 18v610h-132q-11 0 -17.5 9
t-6.5 18v113q0 10 6.5 17t15.5 7l134 8v557q0 11 9 19t17 8z" />
    <glyph glyph-name="Ntilde" unicode="&#xd1;" horiz-adv-x="1343" 
d="M143 0v1339q0 11 9 18t18 7h244q14 0 22 -12l418 -754v-2l88 -180q-20 226 -20 342v581q0 11 8 18t16 7h228q11 0 18.5 -8.5t7.5 -16.5v-1339q0 -11 -8.5 -18t-17.5 -7h-244q-14 0 -23 13l-418 753v2l-88 181q21 -237 21 -338v-586q0 -11 -8 -18t-17 -7h-227
q-11 0 -19 8.5t-8 16.5zM803 1421q-42 0 -84 16t-68.5 34.5t-52.5 34.5t-41 16q-40 0 -55 -78q-1 -9 -9 -16t-16 -7h-125q-10 0 -17.5 7t-6.5 22q12 124 71.5 198t149.5 74q42 0 84 -15.5t68.5 -33.5t52.5 -33.5t41 -15.5q40 0 55 78q1 9 8.5 14.5t15.5 5.5h125q27 0 25 -26
q-12 -123 -71.5 -199t-149.5 -76z" />
    <glyph glyph-name="Ograve" unicode="&#xd2;" horiz-adv-x="1380" 
d="M690 -49q-276 0 -446 197.5t-170 527.5q0 328 169.5 520.5t446.5 192.5q278 0 448.5 -192.5t170.5 -520.5q0 -330 -171 -527.5t-448 -197.5zM690 209q145 0 233.5 124.5t88.5 342.5q0 215 -88 334.5t-234 119.5t-233.5 -119.5t-87.5 -334.5q0 -218 88 -342.5t233 -124.5z
M610 1423l-239 238q-1 2 -3 5t-4.5 10t-2 13t7 10.5t20.5 4.5h258q14 0 21 -10l172 -238q1 -2 3 -4.5t4 -9t1.5 -12t-8 -9.5t-21.5 -4h-190q-13 0 -19 6z" />
    <glyph glyph-name="Oacute" unicode="&#xd3;" horiz-adv-x="1380" 
d="M690 -49q-276 0 -446 197.5t-170 527.5q0 328 169.5 520.5t446.5 192.5q278 0 448.5 -192.5t170.5 -520.5q0 -330 -171 -527.5t-448 -197.5zM690 209q145 0 233.5 124.5t88.5 342.5q0 215 -88 334.5t-234 119.5t-233.5 -119.5t-87.5 -334.5q0 -218 88 -342.5t233 -124.5z
M1010 1661l-238 -238q-6 -6 -18 -6h-193h-5t-10 2t-10.5 5.5t-3 12t8.5 19.5l172 238q7 10 20 10h258q2 0 5.5 -0.5t11.5 -4t11.5 -7.5t2 -12.5t-11.5 -18.5z" />
    <glyph glyph-name="Ocircumflex" unicode="&#xd4;" horiz-adv-x="1380" 
d="M690 -49q-276 0 -446 197.5t-170 527.5q0 328 169.5 520.5t446.5 192.5q278 0 448.5 -192.5t170.5 -520.5q0 -330 -171 -527.5t-448 -197.5zM690 209q145 0 233.5 124.5t88.5 342.5q0 215 -88 334.5t-234 119.5t-233.5 -119.5t-87.5 -334.5q0 -218 88 -342.5t233 -124.5z
M563 1417l-184 -2q-2 0 -5.5 0.5t-11 3.5t-11.5 7t-3 12.5t10 19.5l197 238q7 10 20 10h230q13 0 20 -10l197 -238q1 -2 3 -4.5t4 -9.5t1.5 -12.5t-8 -10t-21.5 -4.5h-184q-12 0 -18 6l-109 117l-108 -117q-4 -6 -19 -6z" />
    <glyph glyph-name="Otilde" unicode="&#xd5;" horiz-adv-x="1380" 
d="M690 -49q-276 0 -446 197.5t-170 527.5q0 328 169.5 520.5t446.5 192.5q278 0 448.5 -192.5t170.5 -520.5q0 -330 -171 -527.5t-448 -197.5zM690 209q145 0 233.5 124.5t88.5 342.5q0 215 -88 334.5t-234 119.5t-233.5 -119.5t-87.5 -334.5q0 -218 88 -342.5t233 -124.5z
M817 1421q-53 0 -104.5 25.5t-87 50.5t-52.5 25q-42 0 -57 -78q-1 -9 -8.5 -16t-15.5 -7h-123q-10 0 -18 7t-7 22q12 124 71.5 198t149.5 74q42 0 83 -15.5t67.5 -33.5t52.5 -33.5t41 -15.5q40 0 55 78q1 9 9 14.5t16 5.5h125q26 0 24 -26q-12 -123 -71.5 -199t-149.5 -76z
" />
    <glyph glyph-name="Odieresis" unicode="&#xd6;" horiz-adv-x="1380" 
d="M690 -49q-276 0 -446 197.5t-170 527.5q0 328 169.5 520.5t446.5 192.5q278 0 448.5 -192.5t170.5 -520.5q0 -330 -171 -527.5t-448 -197.5zM690 209q145 0 233.5 124.5t88.5 342.5q0 215 -88 334.5t-234 119.5t-233.5 -119.5t-87.5 -334.5q0 -218 88 -342.5t233 -124.5z
M500 1425q-63 0 -105.5 41.5t-42.5 104.5q0 64 42.5 106.5t105.5 42.5q64 0 105.5 -42t41.5 -107q0 -63 -41.5 -104.5t-105.5 -41.5zM881 1425q-64 0 -106 41.5t-42 104.5q0 65 42 107t106 42q65 0 107 -42t42 -107q0 -63 -42.5 -104.5t-106.5 -41.5z" />
    <glyph glyph-name="multiply" unicode="&#xd7;" horiz-adv-x="1050" 
d="M203 225l-121 123q-7 8 -6.5 19.5t6.5 17.5l285 289l-285 291q-7 8 -6.5 19t6.5 17l121 123q7 8 18 8t19 -8l284 -293l287 293q7 8 18 8t19 -8l121 -123q7 -8 6.5 -19t-6.5 -17l-287 -291l287 -289q7 -8 6.5 -19.5t-6.5 -17.5l-121 -123q-8 -7 -19 -7t-18 7l-287 291
l-284 -291q-8 -7 -19 -7t-18 7z" />
    <glyph glyph-name="Oslash" unicode="&#xd8;" horiz-adv-x="1380" 
d="M991 868l-471 -600q71 -59 174 -59q145 0 233.5 124.5t88.5 342.5q0 94 -25 192zM401 461l478 606q-78 66 -185 66q-145 0 -232 -120.5t-87 -336.5q0 -127 26 -215zM1331 1298l-137 -174q117 -186 117 -448q0 -330 -170.5 -527.5t-446.5 -197.5q-202 0 -346 102
l-110 -143q-6 -7 -18 -8.5t-19 4.5l-125 98q-9 6 -9.5 18t5.5 19l131 166q-125 191 -125 469q0 329 169 522t447 193q203 0 355 -111l114 150q6 9 18 9.5t19 -5.5l127 -99q7 -6 8.5 -18t-4.5 -19z" />
    <glyph glyph-name="Ugrave" unicode="&#xd9;" horiz-adv-x="1341" 
d="M139 588v751q0 11 8 18t17 7h237q11 0 19 -8.5t8 -16.5v-770q0 -104 17 -176t51 -111.5t76 -56t100 -16.5t102 17t79.5 56.5t54 111.5t18.5 175v770q0 11 8 18t16 7h228q11 0 18.5 -8.5t7.5 -16.5v-751q0 -327 -139 -482t-393 -155q-253 0 -393 155t-140 482zM590 1423
l-238 238q-1 2 -3 5t-5 10t-2 13t8 10.5t21 4.5h256q13 0 20 -10l174 -238q1 -2 3 -4.5t4.5 -9t2 -12t-8 -9.5t-21.5 -4h-193q-12 0 -18 6z" />
    <glyph glyph-name="Uacute" unicode="&#xda;" horiz-adv-x="1341" 
d="M139 588v751q0 11 8 18t17 7h237q11 0 19 -8.5t8 -16.5v-770q0 -104 17 -176t51 -111.5t76 -56t100 -16.5t102 17t79.5 56.5t54 111.5t18.5 175v770q0 11 8 18t16 7h228q11 0 18.5 -8.5t7.5 -16.5v-751q0 -327 -139 -482t-393 -155q-253 0 -393 155t-140 482zM989 1661
l-237 -238q-6 -6 -19 -6h-192h-5.5t-10.5 2t-11 5.5t-3.5 12t9.5 19.5l174 238q7 10 21 10h256q2 0 5.5 -0.5t11 -4t11.5 -7.5t2 -12.5t-12 -18.5z" />
    <glyph glyph-name="Ucircumflex" unicode="&#xdb;" horiz-adv-x="1341" 
d="M139 588v751q0 11 8 18t17 7h237q11 0 19 -8.5t8 -16.5v-770q0 -104 17 -176t51 -111.5t76 -56t100 -16.5t102 17t79.5 56.5t54 111.5t18.5 175v770q0 11 8 18t16 7h228q11 0 18.5 -8.5t7.5 -16.5v-751q0 -327 -139 -482t-393 -155q-253 0 -393 155t-140 482zM545 1417
l-185 -2q-2 0 -5.5 0.5t-11 3.5t-11 7t-2.5 12.5t10 19.5l197 238q7 10 20 10h229q14 0 21 -10l197 -238q1 -2 3 -4.5t4 -9.5t1.5 -12.5t-8 -10t-21.5 -4.5h-184q-13 0 -19 6l-108 117l-109 -117q-4 -6 -18 -6z" />
    <glyph glyph-name="Udieresis" unicode="&#xdc;" horiz-adv-x="1341" 
d="M139 588v751q0 11 8 18t17 7h237q11 0 19 -8.5t8 -16.5v-770q0 -104 17 -176t51 -111.5t76 -56t100 -16.5t102 17t79.5 56.5t54 111.5t18.5 175v770q0 11 8 18t16 7h228q11 0 18.5 -8.5t7.5 -16.5v-751q0 -327 -139 -482t-393 -155q-253 0 -393 155t-140 482zM481 1425
q-64 0 -106.5 41.5t-42.5 104.5q0 65 42 107t107 42q64 0 105 -42.5t41 -106.5q0 -62 -41 -104t-105 -42zM860 1425q-63 0 -105 41.5t-42 104.5q0 64 42 106.5t105 42.5q64 0 106 -42t42 -107q0 -63 -42 -104.5t-106 -41.5z" />
    <glyph glyph-name="Yacute" unicode="&#xdd;" horiz-adv-x="1026" 
d="M369 0v492l-400 837l-2 4t-2.5 8.5t0 11.5t8 9t19.5 4h254q16 0 24 -16l146 -342q37 -96 98 -248q63 147 102 248l146 342q6 14 24 14h248h4.5t9 -0.5t9 -4.5t5 -11t-4.5 -19l-400 -837v-492q0 -11 -8.5 -18t-17.5 -7h-238q-11 0 -17.5 8t-6.5 17zM831 1661l-237 -238
q-6 -6 -19 -6h-192h-5.5t-10.5 2t-11 5.5t-3.5 12t9.5 19.5l175 238q8 12 20 12h256q2 0 5.5 -1t11 -4.5t11.5 -8t2 -13t-12 -18.5z" />
    <glyph glyph-name="Thorn" unicode="&#xde;" horiz-adv-x="1228" 
d="M143 0v1339q0 11 9 18t18 7h238q11 0 17.5 -8t6.5 -17v-188h189q117 0 210.5 -23t168.5 -72.5t116 -136.5t41 -206q0 -116 -41.5 -205t-115.5 -144t-169.5 -82.5t-209.5 -27.5h-189v-254q0 -11 -8 -18t-16 -7h-238q-11 0 -19 8.5t-8 16.5zM432 496h170q141 0 205.5 53
t64.5 164q0 109 -62.5 152.5t-207.5 43.5h-170v-413z" />
    <glyph glyph-name="germandbls" unicode="&#xdf;" horiz-adv-x="1214" 
d="M403 90l84 156q16 24 39 8q98 -74 191 -74q56 0 85 29.5t29 75.5q0 33 -15.5 60t-40 47.5t-54 41.5t-59 47.5t-54 58.5t-40 81t-15.5 110q0 52 16.5 98t40 80t47 66t40 69t16.5 76q0 59 -39 96t-103 37q-87 0 -127.5 -63t-40.5 -199v-901zM403 55v-55q0 -11 -8 -18
t-16 -7h-234q-11 0 -18.5 8.5t-7.5 16.5v1026q0 211 115 339t337 128q188 0 304 -101.5t116 -244.5q0 -60 -17.5 -113.5t-43 -90t-51 -67.5t-43 -60.5t-17.5 -55.5t15.5 -48t40.5 -41t55 -40t60.5 -50.5t55.5 -66t40.5 -93t15.5 -126.5q0 -149 -102.5 -246.5t-276.5 -97.5
q-162 0 -313 98z" />
    <glyph glyph-name="agrave" unicode="&#xe0;" horiz-adv-x="1071" 
d="M82 270q0 172 145 266t445 130q-7 72 -42.5 110.5t-113.5 38.5q-114 0 -270 -96q-23 -11 -35 10l-86 158q-4 9 -2 19.5t10 15.5q212 135 426 135q198 0 300 -120.5t102 -340.5v-596q0 -11 -9 -18t-18 -7h-193q-9 0 -15.5 6t-8.5 15l-12 72q-152 -117 -299 -117
q-142 0 -233 88.5t-91 230.5zM362 289q0 -105 117 -105q50 0 95 24t100 73v186q-121 -18 -192.5 -46.5t-95.5 -59.5t-24 -72zM518 1157l-242 299q-1 2 -3 4.5t-4 9.5t-1.5 12.5t8 10t21.5 4.5h233q18 0 23 -10l184 -299q1 -2 2.5 -4.5t3.5 -9.5t1 -12.5t-8 -10t-21 -4.5
h-176q-14 0 -21 10z" />
    <glyph glyph-name="aacute" unicode="&#xe1;" horiz-adv-x="1071" 
d="M82 270q0 172 145 266t445 130q-7 72 -42.5 110.5t-113.5 38.5q-114 0 -270 -96q-23 -11 -35 10l-86 158q-4 9 -2 19.5t10 15.5q212 135 426 135q198 0 300 -120.5t102 -340.5v-596q0 -11 -9 -18t-18 -7h-193q-9 0 -15.5 6t-8.5 15l-12 72q-152 -117 -299 -117
q-142 0 -233 88.5t-91 230.5zM362 289q0 -105 117 -105q50 0 95 24t100 73v186q-121 -18 -192.5 -46.5t-95.5 -59.5t-24 -72zM850 1456l-242 -299q-7 -10 -20 -10h-176h-5t-10.5 2.5t-11.5 6.5t-4 12.5t8 19.5l184 299q5 10 23 10h233q2 0 5.5 -0.5t11 -3t11.5 -6.5t3 -12
t-10 -19z" />
    <glyph glyph-name="acircumflex" unicode="&#xe2;" horiz-adv-x="1071" 
d="M82 270q0 172 145 266t445 130q-7 72 -42.5 110.5t-113.5 38.5q-114 0 -270 -96q-23 -11 -35 10l-86 158q-4 9 -2 19.5t10 15.5q212 135 426 135q198 0 300 -120.5t102 -340.5v-596q0 -11 -9 -18t-18 -7h-193q-9 0 -15.5 6t-8.5 15l-12 72q-152 -117 -299 -117
q-142 0 -233 88.5t-91 230.5zM362 289q0 -105 117 -105q50 0 95 24t100 73v186q-121 -18 -192.5 -46.5t-95.5 -59.5t-24 -72zM252 1188l197 299q5 10 20 10h188q14 0 21 -10l196 -299q1 -2 3 -4.5t4 -9.5t1.5 -12.5t-7.5 -10t-21 -4.5h-164q-12 0 -20 12l-107 150l-106 -150
q-8 -12 -21 -12h-164h-5t-9.5 2.5t-10.5 6.5t-3.5 12.5t8.5 19.5z" />
    <glyph glyph-name="atilde" unicode="&#xe3;" horiz-adv-x="1071" 
d="M82 270q0 172 145 266t445 130q-7 72 -42.5 110.5t-113.5 38.5q-114 0 -270 -96q-23 -11 -35 10l-86 158q-4 9 -2 19.5t10 15.5q212 135 426 135q198 0 300 -120.5t102 -340.5v-596q0 -11 -9 -18t-18 -7h-193q-9 0 -15.5 6t-8.5 15l-12 72q-152 -117 -299 -117
q-142 0 -233 88.5t-91 230.5zM362 289q0 -105 117 -105q50 0 95 24t100 73v186q-121 -18 -192.5 -46.5t-95.5 -59.5t-24 -72zM225 1184q12 124 68 197t147 73q53 0 103.5 -24.5t85.5 -49t49 -24.5q33 0 49 80q3 18 25 18h125q28 0 26 -27q-12 -124 -69 -198t-148 -74
q-53 0 -102.5 24.5t-84 49t-50.5 24.5q-34 0 -50 -77q-2 -9 -8.5 -15t-15.5 -6h-125q-10 0 -18 7t-7 22z" />
    <glyph glyph-name="adieresis" unicode="&#xe4;" horiz-adv-x="1071" 
d="M82 270q0 172 145 266t445 130q-7 72 -42.5 110.5t-113.5 38.5q-114 0 -270 -96q-23 -11 -35 10l-86 158q-4 9 -2 19.5t10 15.5q212 135 426 135q198 0 300 -120.5t102 -340.5v-596q0 -11 -9 -18t-18 -7h-193q-9 0 -15.5 6t-8.5 15l-12 72q-152 -117 -299 -117
q-142 0 -233 88.5t-91 230.5zM362 289q0 -105 117 -105q50 0 95 24t100 73v186q-121 -18 -192.5 -46.5t-95.5 -59.5t-24 -72zM373 1159q-63 0 -104.5 43.5t-41.5 106.5q0 61 41 103t105 42t106.5 -41.5t42.5 -103.5q0 -63 -42.5 -106.5t-106.5 -43.5zM754 1159
q-64 0 -106 43t-42 107q0 62 42 103.5t106 41.5t105.5 -42t41.5 -103q0 -63 -41.5 -106.5t-105.5 -43.5z" />
    <glyph glyph-name="aring" unicode="&#xe5;" horiz-adv-x="1071" 
d="M82 270q0 172 145 266t445 130q-7 72 -42.5 110.5t-113.5 38.5q-114 0 -270 -96q-23 -11 -35 10l-86 158q-4 9 -2 19.5t10 15.5q212 135 426 135q198 0 300 -120.5t102 -340.5v-596q0 -11 -9 -18t-18 -7h-193q-9 0 -15.5 6t-8.5 15l-12 72q-152 -117 -299 -117
q-142 0 -233 88.5t-91 230.5zM362 289q0 -105 117 -105q50 0 95 24t100 73v186q-121 -18 -192.5 -46.5t-95.5 -59.5t-24 -72zM563 1090q-103 0 -169 63t-66 162q0 101 66 163t169 62q104 0 171 -62.5t67 -162.5q0 -99 -67.5 -162t-170.5 -63zM563 1235q28 0 47 21.5t19 58.5
q0 38 -19 59t-47 21t-45.5 -21t-17.5 -59q0 -37 18 -58.5t45 -21.5z" />
    <glyph glyph-name="ae" unicode="&#xe6;" horiz-adv-x="1607" 
d="M694 285q-6 16 -10 33.5t-7 38t-4.5 34.5t-3.5 39.5t-3 36.5q-168 -26 -236 -71t-68 -107q0 -54 29 -78.5t88 -24.5q51 0 108 26.5t107 72.5zM211 729l-86 158q-4 9 -2 19.5t10 15.5q209 133 410 133q96 0 169 -42t119 -118q131 160 310 160q199 0 308.5 -140.5
t109.5 -365.5q0 -54 -13 -117q-1 -9 -8.5 -14.5t-15.5 -5.5h-586q18 -108 85 -166t163 -58q97 0 213 76q24 14 37 -10l84 -158q4 -9 1.5 -18.5t-10.5 -14.5q-170 -112 -356 -112q-204 0 -352 162q-199 -164 -395 -164q-142 0 -234 89.5t-92 231.5q0 171 145 266.5t441 129.5
q-6 73 -40.5 110t-113.5 37q-113 0 -266 -94q-23 -11 -35 10zM936 612h367q-9 209 -170 209q-72 0 -125.5 -54t-71.5 -155z" />
    <glyph glyph-name="ccedilla" unicode="&#xe7;" horiz-adv-x="946" 
d="M657 -41l-18 -39q111 -51 111 -164q0 -45 -20.5 -82t-54 -61.5t-80 -42t-95 -26.5t-103.5 -13q-22 0 -26 20l-21 103q-2 10 4 19t19 10q76 9 113.5 27.5t37.5 41.5q0 43 -104 70q-31 10 -17 37l54 102q-180 38 -290 180.5t-110 360.5q0 127 43.5 233t117 175t169 107
t201.5 38q186 0 313 -123q7 -7 7 -17.5t-5 -17.5l-112 -149q-6 -8 -15.5 -10t-21.5 7q-75 66 -154 66q-111 0 -180.5 -83.5t-69.5 -225.5t68.5 -225.5t175.5 -83.5q90 0 190 81q22 16 37 -6l99 -149q10 -18 -5 -33q-113 -101 -258 -127z" />
    <glyph glyph-name="egrave" unicode="&#xe8;" horiz-adv-x="1038" 
d="M57 502q0 124 41.5 229.5t110 175t156.5 109t182 39.5q210 0 325 -139t115 -363q0 -69 -10 -117q-1 -9 -9 -14.5t-16 -5.5h-610q22 -114 91.5 -174t176.5 -60q104 0 219 72q7 5 19 2.5t18 -12.5l80 -148q4 -9 2 -18.5t-10 -14.5q-170 -112 -358 -112q-110 0 -205.5 38
t-166 108t-111 174.5t-40.5 230.5zM342 616h389q-12 205 -178 205q-77 0 -134 -53t-77 -152zM502 1157l-242 299q-1 2 -3 4.5t-4 9.5t-1.5 12.5t8 10t21.5 4.5h233q18 0 23 -10l184 -299q1 -2 2.5 -4.5t3.5 -9.5t0.5 -12.5t-8.5 -10t-21 -4.5h-176q-13 0 -20 10z" />
    <glyph glyph-name="eacute" unicode="&#xe9;" horiz-adv-x="1038" 
d="M57 502q0 124 41.5 229.5t110 175t156.5 109t182 39.5q210 0 325 -139t115 -363q0 -69 -10 -117q-1 -9 -9 -14.5t-16 -5.5h-610q22 -114 91.5 -174t176.5 -60q104 0 219 72q7 5 19 2.5t18 -12.5l80 -148q4 -9 2 -18.5t-10 -14.5q-170 -112 -358 -112q-110 0 -205.5 38
t-166 108t-111 174.5t-40.5 230.5zM342 616h389q-12 205 -178 205q-77 0 -134 -53t-77 -152zM836 1456l-244 -299q-7 -10 -21 -10h-174h-5t-9.5 2.5t-10.5 6.5t-4 12.5t7 19.5l182 299q5 10 23 10h235q2 0 5.5 -0.5t11 -3t11.5 -6.5t3 -12t-10 -19z" />
    <glyph glyph-name="ecircumflex" unicode="&#xea;" horiz-adv-x="1038" 
d="M57 502q0 124 41.5 229.5t110 175t156.5 109t182 39.5q210 0 325 -139t115 -363q0 -69 -10 -117q-1 -9 -9 -14.5t-16 -5.5h-610q22 -114 91.5 -174t176.5 -60q104 0 219 72q7 5 19 2.5t18 -12.5l80 -148q4 -9 2 -18.5t-10 -14.5q-170 -112 -358 -112q-110 0 -205.5 38
t-166 108t-111 174.5t-40.5 230.5zM342 616h389q-12 205 -178 205q-77 0 -134 -53t-77 -152zM238 1188l194 299q5 10 21 10h190q14 0 21 -10l194 -299q1 -2 3 -4.5t4 -9.5t1.5 -12.5t-7.5 -10t-21 -4.5h-164q-13 0 -21 12l-106 150l-107 -150q-8 -12 -20 -12h-162h-5
t-9.5 2.5t-10.5 6.5t-3.5 12.5t8.5 19.5z" />
    <glyph glyph-name="edieresis" unicode="&#xeb;" horiz-adv-x="1038" 
d="M57 502q0 124 41.5 229.5t110 175t156.5 109t182 39.5q210 0 325 -139t115 -363q0 -69 -10 -117q-1 -9 -9 -14.5t-16 -5.5h-610q22 -114 91.5 -174t176.5 -60q104 0 219 72q7 5 19 2.5t18 -12.5l80 -148q4 -9 2 -18.5t-10 -14.5q-170 -112 -358 -112q-110 0 -205.5 38
t-166 108t-111 174.5t-40.5 230.5zM342 616h389q-12 205 -178 205q-77 0 -134 -53t-77 -152zM356 1159q-62 0 -104.5 44t-42.5 106t42 103.5t105 41.5q64 0 106 -41.5t42 -103.5q0 -64 -42 -107t-106 -43zM737 1159q-64 0 -106.5 43.5t-42.5 106.5q0 62 42.5 103.5
t106.5 41.5t106 -41.5t42 -103.5q0 -64 -42 -107t-106 -43z" />
    <glyph glyph-name="igrave" unicode="&#xec;" horiz-adv-x="536" 
d="M123 0v1006q0 11 9 18.5t18 7.5h235q11 0 18 -8.5t7 -17.5v-1006q0 -11 -8 -18t-17 -7h-235q-11 0 -19 8.5t-8 16.5zM223 1157l-243 299q-1 2 -3 4.5t-4.5 9.5t-2 12.5t8 10t21.5 4.5h236q17 0 22 -10l182 -299q1 -2 2.5 -4.5t3.5 -9.5t1 -12.5t-8 -10t-21 -4.5h-174
q-14 0 -21 10z" />
    <glyph glyph-name="iacute" unicode="&#xed;" horiz-adv-x="536" 
d="M123 0v1006q0 11 9 18.5t18 7.5h235q11 0 18 -8.5t7 -17.5v-1006q0 -11 -8 -18t-17 -7h-235q-11 0 -19 8.5t-8 16.5zM555 1456l-242 -299q-7 -10 -20 -10h-176h-5t-10.5 2.5t-11.5 6.5t-4 12.5t8 19.5l185 299q6 12 22 12h234q2 0 5.5 -0.5t11 -3.5t11 -7t2.5 -12.5
t-10 -19.5z" />
    <glyph glyph-name="icircumflex" unicode="&#xee;" horiz-adv-x="536" 
d="M123 0v1006q0 11 9 18.5t18 7.5h235q11 0 18 -8.5t7 -17.5v-1006q0 -11 -8 -18t-17 -7h-235q-11 0 -19 8.5t-8 16.5zM-43 1188l195 299q5 10 20 10h190q14 0 21 -10l195 -299q1 -2 2.5 -4.5t4 -9.5t1.5 -12.5t-8 -10t-21 -4.5h-162q-12 0 -20 12l-107 150l-106 -150
q-8 -12 -21 -12h-164h-5t-9.5 2.5t-10.5 6.5t-3.5 12.5t8.5 19.5z" />
    <glyph glyph-name="idieresis" unicode="&#xef;" horiz-adv-x="536" 
d="M123 0v1006q0 11 9 18.5t18 7.5h235q11 0 18 -8.5t7 -17.5v-1006q0 -11 -8 -18t-17 -7h-235q-11 0 -19 8.5t-8 16.5zM78 1159q-64 0 -106 43t-42 107q0 62 42 103.5t106 41.5t106.5 -41.5t42.5 -103.5q0 -63 -42.5 -106.5t-106.5 -43.5zM459 1159q-64 0 -106 43t-42 107
q0 62 42 103.5t106 41.5q63 0 105 -41.5t42 -103.5t-42.5 -106t-104.5 -44z" />
    <glyph glyph-name="eth" unicode="&#xf0;" horiz-adv-x="1130" 
d="M561 195q99 0 154 83t55 246q0 63 -2 92q-50 58 -100 81.5t-109 23.5q-101 0 -159 -68.5t-58 -191.5q0 -124 63.5 -195t155.5 -71zM1010 1341l-224 -114q261 -285 261 -690q0 -169 -59 -301.5t-171.5 -208.5t-261.5 -76q-97 0 -184 36t-153 101t-105 162t-39 211
q0 109 35.5 202t95.5 155t140.5 97t170.5 35q109 0 191 -53q-54 125 -146 217l-274 -139q-9 -4 -19.5 -1t-15.5 11l-64 109q-11 22 11 34l213 109q-55 38 -170 100q-8 4 -12 13t3 24l105 146q6 8 15.5 10t17.5 -2q164 -85 274 -172l277 141q9 4 19 1t15 -11l64 -111
q11 -23 -10 -35z" />
    <glyph glyph-name="ntilde" unicode="&#xf1;" horiz-adv-x="1146" 
d="M123 0v1006q0 11 9 18.5t18 7.5h194q10 0 16.5 -7t8.5 -15l12 -92q75 66 150.5 102.5t166.5 36.5q170 0 252 -112t82 -314v-631q0 -11 -8 -18t-16 -7h-236q-11 0 -19 8.5t-8 16.5v600q0 118 -29.5 160.5t-101.5 42.5q-54 0 -98 -25t-106 -86v-692q0 -11 -8 -18t-17 -7
h-235q-11 0 -19 8.5t-8 16.5zM276 1184q12 124 68.5 198t147.5 74q41 0 82 -15.5t67.5 -33.5t51 -33.5t36.5 -15.5q33 0 49 78q3 18 25 18h125q26 0 24 -27q-12 -124 -68 -198t-147 -74q-53 0 -102.5 24.5t-84 49t-50.5 24.5q-33 0 -49 -77q-3 -19 -25 -19h-125
q-27 0 -25 27z" />
    <glyph glyph-name="ograve" unicode="&#xf2;" horiz-adv-x="1124" 
d="M57 502q0 127 41.5 232.5t111.5 175t160.5 107.5t190.5 38t191 -38t161.5 -107.5t112 -175t41.5 -232.5q0 -126 -41.5 -231.5t-111.5 -174.5t-161.5 -107t-191.5 -38q-99 0 -190 38t-161 107t-111.5 174.5t-41.5 231.5zM350 502q0 -144 57 -225.5t154 -81.5t155 81.5
t58 225.5q0 145 -58 227t-155 82t-154 -81.5t-57 -227.5zM516 1157l-242 299q-1 2 -3 5t-4 10t-1.5 13t8 10.5t21.5 4.5h233q17 0 23 -12l184 -299q1 -2 2.5 -4.5t3.5 -9.5t1 -12.5t-8 -10t-21 -4.5h-176q-14 0 -21 10z" />
    <glyph glyph-name="oacute" unicode="&#xf3;" horiz-adv-x="1124" 
d="M57 502q0 127 41.5 232.5t111.5 175t160.5 107.5t190.5 38t191 -38t161.5 -107.5t112 -175t41.5 -232.5q0 -126 -41.5 -231.5t-111.5 -174.5t-161.5 -107t-191.5 -38q-99 0 -190 38t-161 107t-111.5 174.5t-41.5 231.5zM350 502q0 -144 57 -225.5t154 -81.5t155 81.5
t58 225.5q0 145 -58 227t-155 82t-154 -81.5t-57 -227.5zM850 1456l-244 -299q-7 -10 -20 -10h-174h-5t-10 2.5t-11 6.5t-4 12.5t7 19.5l182 299q6 12 23 12h235q2 0 5.5 -0.5t11 -3.5t11.5 -7t3 -12.5t-10 -19.5z" />
    <glyph glyph-name="ocircumflex" unicode="&#xf4;" horiz-adv-x="1124" 
d="M57 502q0 127 41.5 232.5t111.5 175t160.5 107.5t190.5 38t191 -38t161.5 -107.5t112 -175t41.5 -232.5q0 -126 -41.5 -231.5t-111.5 -174.5t-161.5 -107t-191.5 -38q-99 0 -190 38t-161 107t-111.5 174.5t-41.5 231.5zM350 502q0 -144 57 -225.5t154 -81.5t155 81.5
t58 225.5q0 145 -58 227t-155 82t-154 -81.5t-57 -227.5zM252 1188l194 299q5 10 21 10h190q14 0 21 -10l194 -299q1 -2 3 -4.5t4 -9.5t1.5 -12.5t-7.5 -10t-21 -4.5h-164q-12 0 -20 12l-107 150l-106 -150q-8 -12 -21 -12h-162h-5t-9.5 2.5t-10.5 6.5t-3.5 12.5t8.5 19.5z
" />
    <glyph glyph-name="otilde" unicode="&#xf5;" horiz-adv-x="1124" 
d="M57 502q0 127 41.5 232.5t111.5 175t160.5 107.5t190.5 38t191 -38t161.5 -107.5t112 -175t41.5 -232.5q0 -126 -41.5 -231.5t-111.5 -174.5t-161.5 -107t-191.5 -38q-99 0 -190 38t-161 107t-111.5 174.5t-41.5 231.5zM350 502q0 -144 57 -225.5t154 -81.5t155 81.5
t58 225.5q0 145 -58 227t-155 82t-154 -81.5t-57 -227.5zM225 1184q12 124 67 197t146 73q53 0 104 -24.5t86 -49t48 -24.5q35 0 49 78q1 9 9 14.5t16 5.5h124q27 0 25 -27q-12 -125 -67.5 -198.5t-147.5 -73.5q-40 0 -81 15.5t-67 33.5t-51 33.5t-39 15.5q-15 0 -27 -14.5
t-20 -60.5q-1 -9 -8.5 -15t-15.5 -6h-125q-27 0 -25 27z" />
    <glyph glyph-name="odieresis" unicode="&#xf6;" horiz-adv-x="1124" 
d="M57 502q0 127 41.5 232.5t111.5 175t160.5 107.5t190.5 38t191 -38t161.5 -107.5t112 -175t41.5 -232.5q0 -126 -41.5 -231.5t-111.5 -174.5t-161.5 -107t-191.5 -38q-99 0 -190 38t-161 107t-111.5 174.5t-41.5 231.5zM350 502q0 -144 57 -225.5t154 -81.5t155 81.5
t58 225.5q0 145 -58 227t-155 82t-154 -81.5t-57 -227.5zM373 1159q-64 0 -106 43t-42 107q0 62 42 103.5t106 41.5q63 0 105 -41.5t42 -103.5t-42.5 -106t-104.5 -44zM752 1159q-63 0 -104.5 43.5t-41.5 106.5q0 61 41 103t105 42t106.5 -41.5t42.5 -103.5
q0 -63 -42.5 -106.5t-106.5 -43.5z" />
    <glyph glyph-name="divide" unicode="&#xf7;" horiz-adv-x="1050" 
d="M524 885q-69 0 -116.5 45t-47.5 114q0 68 48 114t116 46q70 0 118 -46t48 -114q0 -69 -48 -114t-118 -45zM360 307q0 68 48 114t116 46q70 0 118 -46t48 -114q0 -70 -48 -115t-118 -45q-69 0 -116.5 45.5t-47.5 114.5zM45 590v172q0 11 8.5 18.5t16.5 7.5h911q11 0 19 -9
t8 -17v-172q0 -11 -9 -18t-18 -7h-911q-11 0 -18 8t-7 17z" />
    <glyph glyph-name="oslash" unicode="&#xf8;" horiz-adv-x="1124" 
d="M772 625l-330 -402q48 -37 119 -37q99 0 162 82.5t63 220.5q0 71 -14 136zM352 381l328 401q-49 37 -119 37q-97 0 -160 -83t-63 -222q0 -68 14 -133zM1051 967l-90 -111q106 -148 106 -354q0 -126 -41.5 -231.5t-111.5 -175t-161.5 -108t-191.5 -38.5q-150 0 -274 82
l-78 -97q-6 -7 -18 -8.5t-19 4.5l-94 74q-8 6 -9.5 17t5.5 20l90 109q-107 146 -107 352q0 127 41.5 232.5t111.5 175t160.5 107.5t190.5 38q154 0 275 -80l79 98q6 7 18 8.5t19 -4.5l95 -73q8 -6 9 -17t-5 -20z" />
    <glyph glyph-name="ugrave" unicode="&#xf9;" horiz-adv-x="1138" 
d="M115 375l-2 631q0 11 8.5 17.5t17.5 6.5h236q11 0 17.5 -7.5t6.5 -16.5v-600q0 -117 30 -160t101 -43q56 0 99 27.5t98 95.5v680q0 11 9 17.5t18 6.5h235q11 0 18 -8t7 -16v-1006q0 -11 -8.5 -19t-16.5 -8h-192q-20 0 -25 23l-12 98q-136 -143 -311 -143q-170 0 -252 111
t-82 313zM526 1157l-243 299q-1 2 -3 4.5t-4.5 9.5t-2 12.5t8 10t21.5 4.5h236q17 0 22 -10l182 -299q1 -2 2.5 -4.5t3.5 -9.5t1 -12.5t-8 -10t-21 -4.5h-174q-14 0 -21 10z" />
    <glyph glyph-name="uacute" unicode="&#xfa;" horiz-adv-x="1138" 
d="M115 375l-2 631q0 11 8.5 17.5t17.5 6.5h236q11 0 17.5 -7.5t6.5 -16.5v-600q0 -117 30 -160t101 -43q56 0 99 27.5t98 95.5v680q0 11 9 17.5t18 6.5h235q11 0 18 -8t7 -16v-1006q0 -11 -8.5 -19t-16.5 -8h-192q-20 0 -25 23l-12 98q-136 -143 -311 -143q-170 0 -252 111
t-82 313zM858 1456l-242 -299q-7 -10 -20 -10h-176h-5t-10.5 2.5t-11.5 6.5t-4 12.5t8 19.5l185 299q5 10 22 10h234q2 0 5.5 -0.5t11 -3t11 -6.5t2.5 -12t-10 -19z" />
    <glyph glyph-name="ucircumflex" unicode="&#xfb;" horiz-adv-x="1138" 
d="M115 375l-2 631q0 11 8.5 17.5t17.5 6.5h236q11 0 17.5 -7.5t6.5 -16.5v-600q0 -117 30 -160t101 -43q56 0 99 27.5t98 95.5v680q0 11 9 17.5t18 6.5h235q11 0 18 -8t7 -16v-1006q0 -11 -8.5 -19t-16.5 -8h-192q-20 0 -25 23l-12 98q-136 -143 -311 -143q-170 0 -252 111
t-82 313zM260 1188l195 299q5 10 20 10h191q13 0 20 -10l195 -299q1 -2 2.5 -4.5t4 -9.5t1.5 -12.5t-8 -10t-21 -4.5h-162q-12 0 -20 12l-107 150l-106 -150q-8 -12 -21 -12h-163h-5t-10 2.5t-10.5 6.5t-3.5 12.5t8 19.5z" />
    <glyph glyph-name="udieresis" unicode="&#xfc;" horiz-adv-x="1138" 
d="M115 375l-2 631q0 11 8.5 17.5t17.5 6.5h236q11 0 17.5 -7.5t6.5 -16.5v-600q0 -117 30 -160t101 -43q56 0 99 27.5t98 95.5v680q0 11 9 17.5t18 6.5h235q11 0 18 -8t7 -16v-1006q0 -11 -8.5 -19t-16.5 -8h-192q-20 0 -25 23l-12 98q-136 -143 -311 -143q-170 0 -252 111
t-82 313zM381 1159q-64 0 -107 43.5t-43 106.5q0 62 43 103.5t107 41.5t105.5 -41.5t41.5 -103.5q0 -64 -41.5 -107t-105.5 -43zM762 1159q-64 0 -107 43.5t-43 106.5q0 62 43 103.5t107 41.5q63 0 104 -41.5t41 -103.5t-41.5 -106t-103.5 -44z" />
    <glyph glyph-name="yacute" unicode="&#xfd;" horiz-adv-x="1013" 
d="M104 -203q4 17 19 18t41 -5.5t37 -6.5q125 0 176 154l16 53l-393 985q-1 2 -1.5 4t-1 8.5t1 11.5t8.5 9t18 4h239q9 0 16 -6t9 -12l174 -494q13 -37 34 -110t31 -103q10 40 30 110.5t28 100.5l151 496q7 18 25 18h227h4t8.5 -1.5t9 -5t5.5 -10.5t-2 -18l-365 -1050
q-33 -91 -70.5 -157.5t-89 -120t-119.5 -80.5t-153 -27q-74 0 -139 20q-9 3 -14 12.5t-3 18.5zM811 1456l-244 -299q-5 -8 -20 -8h-174h-5t-10 2t-11 5.5t-4 12t7 19.5l182 299q6 12 23 12h236q2 0 5.5 -0.5t11 -3.5t11 -7t2.5 -12.5t-10 -19.5z" />
    <glyph glyph-name="thorn" unicode="&#xfe;" horiz-adv-x="1155" 
d="M410 -82v-315q0 -11 -8.5 -19t-16.5 -8h-235q-11 0 -19 9t-8 18v1843q0 11 9 17.5t18 6.5h235q11 0 18 -8t7 -16v-373l-2 -104q128 88 251 88q204 0 319.5 -148t115.5 -391q0 -129 -37.5 -237.5t-101 -179.5t-146 -110.5t-172.5 -39.5q-119 0 -229 74zM410 266
q91 -71 178 -71q91 0 150 81.5t59 239.5q0 149 -46.5 221t-144.5 72q-94 0 -196 -96v-447z" />
    <glyph glyph-name="ydieresis" unicode="&#xff;" horiz-adv-x="1013" 
d="M104 -203q4 17 19 18t41 -5.5t37 -6.5q125 0 176 154l16 53l-393 985q-1 2 -1.5 4t-1 8.5t1 11.5t8.5 9t18 4h239q9 0 16 -6t9 -12l174 -494q13 -37 34 -110t31 -103q10 40 30 110.5t28 100.5l151 496q7 18 25 18h227h4t8.5 -1.5t9 -5t5.5 -10.5t-2 -18l-365 -1050
q-33 -91 -70.5 -157.5t-89 -120t-119.5 -80.5t-153 -27q-74 0 -139 20q-9 3 -14 12.5t-3 18.5zM332 1159q-62 0 -104 44t-42 106t41.5 103.5t104.5 41.5q64 0 106.5 -41.5t42.5 -103.5q0 -63 -42.5 -106.5t-106.5 -43.5zM713 1159q-64 0 -106 43t-42 107q0 62 42 103.5
t106 41.5t106.5 -41.5t42.5 -103.5q0 -63 -42.5 -106.5t-106.5 -43.5z" />
    <glyph glyph-name="Amacron" unicode="&#x100;" horiz-adv-x="1142" 
d="M864 1638v-155q0 -11 -8 -18t-16 -7h-545q-11 0 -18 8t-7 17v155q0 11 8.5 19t16.5 8h545q11 0 17.5 -9t6.5 -18zM430 573h277l-140 500zM872 -6l-98 342h-414l-98 -342q-8 -19 -24 -19h-242h-4t-8.5 1t-9 4.5t-5.5 10t2 17.5l437 1340q6 16 24 16h279q18 0 24 -16
l436 -1340q1 -1 1.5 -3.5t1 -8t-1 -10t-8 -8t-17.5 -3.5h-250q-21 0 -25 19z" />
    <glyph glyph-name="amacron" unicode="&#x101;" horiz-adv-x="1071" 
d="M82 270q0 172 145 266t445 130q-7 72 -42.5 110.5t-113.5 38.5q-114 0 -270 -96q-23 -11 -35 10l-86 158q-4 9 -2 19.5t10 15.5q212 135 426 135q198 0 300 -120.5t102 -340.5v-596q0 -11 -9 -18t-18 -7h-193q-9 0 -15.5 6t-8.5 15l-12 72q-152 -117 -299 -117
q-142 0 -233 88.5t-91 230.5zM362 289q0 -105 117 -105q50 0 95 24t100 73v186q-121 -18 -192.5 -46.5t-95.5 -59.5t-24 -72zM272 1221v155q0 11 8 18t17 7h532q11 0 19 -8.5t8 -16.5v-155q0 -11 -9 -19t-18 -8h-532q-11 0 -18 9t-7 18z" />
    <glyph glyph-name="Abreve" unicode="&#x102;" horiz-adv-x="1142" 
d="M698 1704h136q26 0 24 -27q-13 -114 -86.5 -186t-204.5 -72q-132 0 -205 72t-86 186q-2 10 4 18.5t21 8.5h133q22 0 25 -18q18 -93 108 -93q89 0 107 93q3 18 24 18zM430 573h277l-140 500zM872 -6l-98 342h-414l-98 -342q-8 -19 -24 -19h-242h-4t-8.5 1t-9 4.5t-5.5 10
t2 17.5l437 1340q6 16 24 16h279q18 0 24 -16l436 -1340q1 -1 1.5 -3.5t1 -8t-1 -10t-8 -8t-17.5 -3.5h-250q-21 0 -25 19z" />
    <glyph glyph-name="abreve" unicode="&#x103;" horiz-adv-x="1071" 
d="M82 270q0 172 145 266t445 130q-7 72 -42.5 110.5t-113.5 38.5q-114 0 -270 -96q-23 -11 -35 10l-86 158q-4 9 -2 19.5t10 15.5q212 135 426 135q198 0 300 -120.5t102 -340.5v-596q0 -11 -9 -18t-18 -7h-193q-9 0 -15.5 6t-8.5 15l-12 72q-152 -117 -299 -117
q-142 0 -233 88.5t-91 230.5zM362 289q0 -105 117 -105q50 0 95 24t100 73v186q-121 -18 -192.5 -46.5t-95.5 -59.5t-24 -72zM563 1151q-72 0 -129.5 26t-92 69.5t-53.5 94.5t-22 107q0 10 7 18.5t18 8.5h137q9 0 16.5 -6t8.5 -15q8 -54 35.5 -86.5t74.5 -32.5t75 32.5
t36 86.5q4 21 24 21h138q9 0 16.5 -7.5t7.5 -19.5q-3 -56 -22 -107t-53.5 -94.5t-92 -69.5t-129.5 -26z" />
    <glyph glyph-name="Aogonek" unicode="&#x104;" horiz-adv-x="1142" 
d="M430 573h277l-140 500zM1165 -248l58 -123q4 -8 2 -16.5t-8 -13.5q-38 -31 -95.5 -50.5t-109.5 -19.5q-101 0 -171.5 56t-70.5 155q0 128 117 237q-11 6 -15 17l-98 342h-414l-98 -342q-8 -19 -24 -19h-242h-4t-8.5 1t-9 4.5t-5.5 10t2 17.5l437 1340q6 16 24 16h279
q18 0 24 -16l436 -1340q4 -9 0 -19.5t-18 -13.5q-67 -17 -111.5 -70t-44.5 -106q0 -59 64 -59q37 0 65 22q1 1 3.5 2.5t7 3.5t9 1.5t10 -4.5t9.5 -13z" />
    <glyph glyph-name="aogonek" unicode="&#x105;" horiz-adv-x="1071" 
d="M362 289q0 -105 117 -105q49 0 93 23.5t100 73.5v186q-176 -26 -243 -70t-67 -108zM80 270q0 172 145.5 266t446.5 130q-6 71 -41.5 109t-114.5 38q-117 0 -270 -94q-23 -11 -35 10l-86 158q-4 9 -2 19.5t10 15.5q212 135 426 135q198 0 298.5 -120t100.5 -341v-596
q0 -19 -16 -25q-80 -27 -121 -74.5t-41 -95.5q0 -30 18.5 -44.5t47.5 -14.5q33 0 61 21q3 3 9 5.5t15.5 -1t14.5 -15.5l53 -110q4 -8 2 -17t-8 -14q-37 -31 -93 -49.5t-107 -18.5q-97 0 -162.5 55t-65.5 152q0 82 45 149.5t105 110.5l-10 54q-151 -119 -299 -119
q-142 0 -234 89.5t-92 231.5z" />
    <glyph glyph-name="Cacute" unicode="&#x106;" horiz-adv-x="1179" 
d="M74 666q0 165 50.5 302.5t138 229t205 141.5t251.5 50q120 0 223.5 -50t175.5 -127q14 -17 0 -34l-133 -148q-6 -8 -17 -9t-20 7q-102 102 -227 102q-156 0 -254 -121.5t-98 -336.5q0 -220 93 -342.5t251 -122.5q150 0 262 125q20 20 37 0l133 -146q14 -18 0 -32
q-178 -203 -436 -203q-134 0 -249.5 48t-201.5 137.5t-135 226t-49 303.5zM1010 1661l-240 -238q-6 -6 -18 -6h-191h-5t-10 2t-10.5 5.5t-3 12t8.5 19.5l172 238q7 10 20 10h258q2 0 5.5 -1t11 -4t11.5 -7.5t2.5 -12.5t-11.5 -18z" />
    <glyph glyph-name="cacute" unicode="&#x107;" horiz-adv-x="946" 
d="M57 502q0 127 43.5 233t117 175t169 107t201.5 38q186 0 313 -123q7 -7 7 -17.5t-5 -17.5l-112 -149q-6 -8 -15.5 -10t-21.5 7q-75 66 -154 66q-111 0 -180.5 -83.5t-69.5 -225.5t68.5 -224.5t175.5 -82.5q93 0 190 79q22 16 37 -6l99 -149q10 -18 -5 -33
q-73 -65 -163.5 -100t-182.5 -35q-223 0 -367.5 149t-144.5 402zM870 1456l-241 -299q-7 -10 -21 -10h-176h-5t-10 2.5t-11 6.5t-4 12.5t8 19.5l184 299q6 12 22 12h234q2 0 5.5 -0.5t11 -3.5t11 -7t2.5 -12.5t-10 -19.5z" />
    <glyph glyph-name="Ccircumflex" unicode="&#x108;" horiz-adv-x="1179" 
d="M74 666q0 165 50.5 302.5t138 229t205 141.5t251.5 50q120 0 223.5 -50t175.5 -127q14 -17 0 -34l-133 -148q-6 -8 -17 -9t-20 7q-102 102 -227 102q-156 0 -254 -121.5t-98 -336.5q0 -220 93 -342.5t251 -122.5q150 0 262 125q20 20 37 0l133 -146q14 -18 0 -32
q-178 -203 -436 -203q-134 0 -249.5 48t-201.5 137.5t-135 226t-49 303.5zM563 1415h-184q-2 0 -5.5 0.5t-11 3.5t-11.5 7t-3 12.5t10 19.5l197 238q5 8 20 8h230q15 0 20 -8l197 -238q1 -2 3 -5t4 -10t1.5 -13t-8 -10.5t-21.5 -4.5h-184q-10 0 -18 8l-109 117l-108 -117
q-5 -8 -19 -8z" />
    <glyph glyph-name="ccircumflex" unicode="&#x109;" horiz-adv-x="946" 
d="M57 502q0 127 43.5 233t117 175t169 107t201.5 38q186 0 313 -123q7 -7 7 -17.5t-5 -17.5l-112 -149q-6 -8 -15.5 -10t-21.5 7q-75 66 -154 66q-111 0 -180.5 -83.5t-69.5 -225.5t68.5 -224.5t175.5 -82.5q93 0 190 79q22 16 37 -6l99 -149q10 -18 -5 -33
q-73 -65 -163.5 -100t-182.5 -35q-223 0 -367.5 149t-144.5 402zM272 1188l195 299q5 10 20 10h191q13 0 20 -10l195 -299q1 -2 2.5 -4.5t4 -9.5t1.5 -12.5t-8 -10t-21 -4.5h-161q-13 0 -21 12l-106 150l-107 -150q-8 -12 -20 -12h-164h-5t-10 2.5t-10.5 6.5t-3.5 12.5
t8 19.5z" />
    <glyph glyph-name="Cdotaccent" unicode="&#x10a;" horiz-adv-x="1179" 
d="M74 666q0 165 50.5 302.5t138 229t205 141.5t251.5 50q120 0 223.5 -50t175.5 -127q14 -17 0 -34l-133 -148q-6 -8 -17 -9t-20 7q-102 102 -227 102q-156 0 -254 -121.5t-98 -336.5q0 -220 93 -342.5t251 -122.5q150 0 262 125q20 20 37 0l133 -146q14 -18 0 -32
q-178 -203 -436 -203q-134 0 -249.5 48t-201.5 137.5t-135 226t-49 303.5zM690 1421q-72 0 -121 46t-49 116t48.5 114t121.5 44t122.5 -44.5t49.5 -113.5q0 -70 -49.5 -116t-122.5 -46z" />
    <glyph glyph-name="cdotaccent" unicode="&#x10b;" horiz-adv-x="946" 
d="M57 502q0 127 43.5 233t117 175t169 107t201.5 38q186 0 313 -123q7 -7 7 -17.5t-5 -17.5l-112 -149q-6 -8 -15.5 -10t-21.5 7q-75 66 -154 66q-111 0 -180.5 -83.5t-69.5 -225.5t68.5 -224.5t175.5 -82.5q93 0 190 79q22 16 37 -6l99 -149q10 -18 -5 -33
q-73 -65 -163.5 -100t-182.5 -35q-223 0 -367.5 149t-144.5 402zM584 1155q-71 0 -118.5 46t-47.5 116q0 69 47.5 113.5t118.5 44.5q70 0 117 -45t47 -113q0 -70 -47 -116t-117 -46z" />
    <glyph glyph-name="Ccaron" unicode="&#x10c;" horiz-adv-x="1179" 
d="M74 666q0 165 50.5 302.5t138 229t205 141.5t251.5 50q120 0 223.5 -50t175.5 -127q14 -17 0 -34l-133 -148q-6 -8 -17 -9t-20 7q-102 102 -227 102q-156 0 -254 -121.5t-98 -336.5q0 -220 93 -342.5t251 -122.5q150 0 262 125q20 20 37 0l133 -146q14 -18 0 -32
q-178 -203 -436 -203q-134 0 -249.5 48t-201.5 137.5t-135 226t-49 303.5zM817 1704l184 2q2 0 5.5 -0.5t11 -3.5t11.5 -7t3 -12.5t-10 -19.5l-197 -238q-7 -10 -20 -10h-230q-13 0 -20 10l-197 238q-1 2 -3 4.5t-4 9.5t-1.5 12.5t8 10t21.5 4.5h184q13 0 19 -6l108 -117
l109 117q4 6 18 6z" />
    <glyph glyph-name="ccaron" unicode="&#x10d;" horiz-adv-x="946" 
d="M57 502q0 127 43.5 233t117 175t169 107t201.5 38q186 0 313 -123q7 -7 7 -17.5t-5 -17.5l-112 -149q-6 -8 -15.5 -10t-21.5 7q-75 66 -154 66q-111 0 -180.5 -83.5t-69.5 -225.5t68.5 -224.5t175.5 -82.5q93 0 190 79q22 16 37 -6l99 -149q10 -18 -5 -33
q-73 -65 -163.5 -100t-182.5 -35q-223 0 -367.5 149t-144.5 402zM467 1159l-195 299q-1 2 -2.5 4.5t-4 9.5t-1.5 12.5t8 10t21 4.5h164q12 0 20 -12l107 -150l106 150q8 12 21 12h161h5t10 -2.5t10.5 -6.5t3.5 -12.5t-8 -19.5l-195 -299q-6 -12 -20 -12h-191q-12 0 -20 12z
" />
    <glyph glyph-name="Dcaron" unicode="&#x10e;" horiz-adv-x="1280" 
d="M143 0v1339q0 11 9 19t18 8h358q321 0 498.5 -176.5t177.5 -513.5q0 -338 -175.5 -519.5t-487.5 -181.5h-371q-11 0 -19 8.5t-8 16.5zM432 219h80q196 0 296.5 111t100.5 346q0 233 -99.5 339.5t-297.5 106.5h-80v-903zM768 1706h184q2 0 5.5 -0.5t11 -3.5t11.5 -7
t3 -12.5t-10 -19.5l-197 -238q-5 -8 -20 -8h-230q-15 0 -20 8l-197 238q-1 2 -3 5t-4 10t-1.5 13t8 10.5t21.5 4.5h184q10 0 18 -8l109 -117l109 117q5 8 18 8z" />
    <glyph glyph-name="dcaron" unicode="&#x10f;" horiz-adv-x="1216" 
d="M61 502q0 123 37.5 228.5t100.5 175.5t144.5 109.5t170.5 39.5q129 0 236 -80l-5 104v2v365q0 11 8 17.5t17 6.5h236q11 0 18.5 -8t7.5 -16v-1446q0 -11 -9 -19t-17 -8h-195q-9 0 -16 7t-9 16l-10 67q-129 -112 -274 -112q-203 0 -322 148t-119 403zM356 504
q0 -156 53 -232.5t150 -76.5q98 0 186 98v446q-87 70 -180 70q-88 0 -148.5 -79.5t-60.5 -225.5zM1214 1096h-106q-10 0 -17.5 7.5t-7.5 18.5l-10 445q0 10 7 17t18 7h157q11 0 18 -7t7 -17l-2 -129v-4l-37 -316q-1 -10 -10 -16t-17 -6z" />
    <glyph glyph-name="Dcroat" unicode="&#x110;" horiz-adv-x="1329" 
d="M481 219h80q397 0 397 457q0 232 -100 339t-297 107h-80v-340h256q11 0 18 -8t7 -16v-121q0 -11 -8.5 -19t-16.5 -8h-256v-391zM219 1366l356 -2q323 0 500.5 -175.5t177.5 -512.5q0 -339 -176 -521t-489 -182h-369q-11 0 -18.5 9t-7.5 18v610h-132q-11 0 -17.5 9
t-6.5 18v113q0 10 6.5 17t15.5 7l134 8v557q0 11 9 19t17 8z" />
    <glyph glyph-name="dcroat" unicode="&#x111;" horiz-adv-x="1155" 
d="M745 293v405q-90 72 -180 72q-88 0 -148.5 -76t-60.5 -211q0 -286 203 -286q100 0 186 96zM1176 1276v-111q0 -10 -8 -17t-17 -7l-119 -11v-1130q0 -11 -8.5 -18t-17.5 -7h-199q-21 0 -25 21l-10 59q-125 -104 -270 -104q-202 0 -321.5 142t-119.5 388q0 119 37.5 220.5
t100.5 169.5t145 106.5t170 38.5q126 0 236 -82l-5 104v2v90h-294q-11 0 -18 8t-7 17v121q0 11 8.5 19t16.5 8h294v143q0 11 8 17.5t17 6.5h236q11 0 18.5 -8t7.5 -16v-143h117q11 0 19 -9t8 -18z" />
    <glyph glyph-name="Emacron" unicode="&#x112;" horiz-adv-x="1101" 
d="M143 0v1339q0 11 9 19t18 8h807q11 0 19 -9t8 -18v-200q0 -11 -9 -18t-18 -7h-545v-293h457q11 0 17.5 -7.5t6.5 -16.5v-201q0 -11 -8 -19t-16 -8h-457v-342h565q11 0 19 -9t8 -17v-201q0 -11 -9 -18t-18 -7h-827q-11 0 -19 8.5t-8 16.5zM291 1483v155q0 11 8 19t16 8
h543q11 0 19 -9t8 -18v-155q0 -11 -9 -18t-18 -7h-543q-11 0 -17.5 8t-6.5 17z" />
    <glyph glyph-name="emacron" unicode="&#x113;" horiz-adv-x="1038" 
d="M57 502q0 124 41.5 229.5t110 175t156.5 109t182 39.5q210 0 325 -139t115 -363q0 -69 -10 -117q-1 -9 -9 -14.5t-16 -5.5h-610q22 -114 91.5 -174t176.5 -60q104 0 219 72q7 5 19 2.5t18 -12.5l80 -148q4 -9 2 -18.5t-10 -14.5q-170 -112 -358 -112q-110 0 -205.5 38
t-166 108t-111 174.5t-40.5 230.5zM342 616h389q-12 205 -178 205q-77 0 -134 -53t-77 -152zM254 1221v155q0 11 9 18t18 7h534q11 0 18 -8t7 -17v-155q0 -11 -8.5 -19t-16.5 -8h-534q-11 0 -19 9t-8 18z" />
    <glyph glyph-name="Ebreve" unicode="&#x114;" horiz-adv-x="1101" 
d="M143 0v1339q0 11 9 19t18 8h807q11 0 19 -9t8 -18v-200q0 -11 -9 -18t-18 -7h-545v-293h457q11 0 17.5 -7.5t6.5 -16.5v-201q0 -11 -8 -19t-16 -8h-457v-342h565q11 0 19 -9t8 -17v-201q0 -11 -9 -18t-18 -7h-827q-11 0 -19 8.5t-8 16.5zM586 1417q-131 0 -203.5 72
t-87.5 186q-2 10 3.5 19.5t20.5 9.5h136q21 0 24 -18q18 -93 107 -93q90 0 108 93q3 18 25 18h133q27 0 25 -27q-13 -114 -86 -187t-205 -73z" />
    <glyph glyph-name="ebreve" unicode="&#x115;" horiz-adv-x="1038" 
d="M57 502q0 124 41.5 229.5t110 175t156.5 109t182 39.5q210 0 325 -139t115 -363q0 -69 -10 -117q-1 -9 -9 -14.5t-16 -5.5h-610q22 -114 91.5 -174t176.5 -60q104 0 219 72q7 5 19 2.5t18 -12.5l80 -148q4 -9 2 -18.5t-10 -14.5q-170 -112 -358 -112q-110 0 -205.5 38
t-166 108t-111 174.5t-40.5 230.5zM342 616h389q-12 205 -178 205q-77 0 -134 -53t-77 -152zM547 1151q-72 0 -129 26t-91.5 69.5t-54 94.5t-22.5 107q0 10 6.5 18.5t17.5 8.5h138q20 0 24 -21q8 -54 36 -86.5t75 -32.5t74.5 32.5t35.5 86.5q1 9 8.5 15t16.5 6h137
q9 0 17 -7.5t8 -19.5q-3 -56 -22 -107t-53.5 -94.5t-92 -69.5t-129.5 -26z" />
    <glyph glyph-name="Edotaccent" unicode="&#x116;" horiz-adv-x="1101" 
d="M143 0v1339q0 11 9 19t18 8h807q11 0 19 -9t8 -18v-200q0 -11 -9 -18t-18 -7h-545v-293h457q11 0 17.5 -7.5t6.5 -16.5v-201q0 -11 -8 -19t-16 -8h-457v-342h565q11 0 19 -9t8 -17v-201q0 -11 -9 -18t-18 -7h-827q-11 0 -19 8.5t-8 16.5zM586 1421q-72 0 -122 45.5
t-50 116.5q0 69 50 113.5t122 44.5q73 0 122.5 -44.5t49.5 -113.5q0 -71 -49.5 -116.5t-122.5 -45.5z" />
    <glyph glyph-name="edotaccent" unicode="&#x117;" horiz-adv-x="1038" 
d="M57 502q0 124 41.5 229.5t110 175t156.5 109t182 39.5q210 0 325 -139t115 -363q0 -69 -10 -117q-1 -9 -9 -14.5t-16 -5.5h-610q22 -114 91.5 -174t176.5 -60q104 0 219 72q7 5 19 2.5t18 -12.5l80 -148q4 -9 2 -18.5t-10 -14.5q-170 -112 -358 -112q-110 0 -205.5 38
t-166 108t-111 174.5t-40.5 230.5zM342 616h389q-12 205 -178 205q-77 0 -134 -53t-77 -152zM547 1155q-70 0 -118 46t-48 116q0 68 48 113t118 45q71 0 117.5 -44.5t46.5 -113.5q0 -70 -46.5 -116t-117.5 -46z" />
    <glyph glyph-name="Eogonek" unicode="&#x118;" horiz-adv-x="1101" 
d="M143 0v1339q0 11 9 19t18 8h807q11 0 17.5 -9t6.5 -18v-200q0 -11 -8 -18t-16 -7h-545v-291h457q11 0 17.5 -8.5t6.5 -17.5v-201q0 -11 -8 -18t-16 -7h-457v-344h565q11 0 18 -8.5t7 -17.5v-201q0 -11 -8 -18t-17 -7h-8q-59 -6 -108.5 -60t-49.5 -116q0 -30 18.5 -44.5
t47.5 -14.5q33 0 64 22q24 16 36 -10l60 -123q4 -8 2 -16.5t-8 -13.5q-40 -31 -97.5 -50.5t-109.5 -19.5q-101 0 -171.5 56t-70.5 155q0 128 111 235h-543q-11 0 -19 8.5t-8 16.5z" />
    <glyph glyph-name="eogonek" unicode="&#x119;" horiz-adv-x="1038" 
d="M57 502q0 124 41.5 229.5t110 176t156.5 110t182 39.5q141 0 242 -66.5t150.5 -179t49.5 -258.5q0 -59 -12 -117q-3 -18 -25 -18h-610q22 -114 91.5 -174t176.5 -60t219 70q7 5 19 2.5t18 -12.5l80 -148q4 -9 2 -18.5t-10 -14.5q-126 -89 -168.5 -144.5t-42.5 -113.5
q0 -59 66 -59q31 0 61 21q24 16 37 -11l53 -110q4 -8 2 -17t-8 -14q-36 -31 -93.5 -48.5t-107.5 -17.5q-97 0 -161 54t-64 151q0 105 76 197h-8q-110 0 -205.5 38t-166 108t-111 174.5t-40.5 230.5zM342 618h389q-12 205 -178 205q-77 0 -134 -52.5t-77 -152.5z" />
    <glyph glyph-name="Ecaron" unicode="&#x11a;" horiz-adv-x="1101" 
d="M143 0v1339q0 11 9 19t18 8h807q11 0 19 -9t8 -18v-200q0 -11 -9 -18t-18 -7h-545v-293h457q11 0 17.5 -7.5t6.5 -16.5v-201q0 -11 -8 -19t-16 -8h-457v-342h565q11 0 19 -9t8 -17v-201q0 -11 -9 -18t-18 -7h-827q-11 0 -19 8.5t-8 16.5zM713 1706h184q2 0 5.5 -0.5
t11 -3.5t11.5 -7t3 -12.5t-10 -19.5l-197 -238q-5 -8 -21 -8h-229q-15 0 -20 8l-197 238q-1 2 -3 5t-4.5 10t-2 13t8 10.5t21.5 4.5h185q10 0 18 -8l109 -117l108 117q5 8 19 8z" />
    <glyph glyph-name="ecaron" unicode="&#x11b;" horiz-adv-x="1038" 
d="M57 502q0 124 41.5 229.5t110 175t156.5 109t182 39.5q210 0 325 -139t115 -363q0 -69 -10 -117q-1 -9 -9 -14.5t-16 -5.5h-610q22 -114 91.5 -174t176.5 -60q104 0 219 72q7 5 19 2.5t18 -12.5l80 -148q4 -9 2 -18.5t-10 -14.5q-170 -112 -358 -112q-110 0 -205.5 38
t-166 108t-111 174.5t-40.5 230.5zM342 616h389q-12 205 -178 205q-77 0 -134 -53t-77 -152zM432 1159l-194 299q-1 2 -3 4.5t-4 9t-1.5 12t7.5 9.5t21 4h162q13 0 20 -10l107 -150l106 150q7 10 21 10h164h5t9.5 -2t10.5 -5.5t3.5 -12t-8.5 -19.5l-194 -299q-6 -12 -21 -12
h-190q-13 0 -21 12z" />
    <glyph glyph-name="Gcircumflex" unicode="&#x11c;" horiz-adv-x="1286" 
d="M74 666q0 166 51 303t140 228.5t211 141.5t263 50q245 0 418 -177q7 -8 6.5 -18t-6.5 -16l-131 -148q-6 -8 -17 -8.5t-20 6.5q-55 52 -110 77t-138 25q-169 0 -270.5 -121.5t-101.5 -336.5q0 -224 98.5 -343.5t286.5 -119.5q106 0 168 45v250h-230q-11 0 -17.5 8.5
t-6.5 17.5v195q0 11 8 18t16 7h467q11 0 19 -8.5t8 -16.5v-590q0 -10 -8 -18q-76 -75 -195.5 -120.5t-257.5 -45.5q-139 0 -258 48t-206.5 137.5t-137 225.5t-49.5 304zM610 1417l-184 -2q-2 0 -5.5 0.5t-11 3.5t-11 7t-2.5 12.5t10 19.5l196 238q7 10 21 10h229
q13 0 20 -10l197 -238q1 -2 3 -4.5t4.5 -9.5t2 -12.5t-8 -10t-21.5 -4.5h-185q-12 0 -18 6l-109 117l-108 -117q-4 -6 -19 -6z" />
    <glyph glyph-name="gcircumflex" unicode="&#x11d;" horiz-adv-x="1064" 
d="M305 -147q0 -53 58.5 -86t173.5 -33q111 0 178 43t67 94q0 41 -32.5 58.5t-118.5 17.5h-137q-88 0 -132 10q-57 -49 -57 -104zM57 -182q0 127 129 219q-75 65 -75 172q0 105 100 190q-54 48 -87.5 118t-33.5 153q0 119 60 209t154.5 134t207.5 44q75 0 152 -25h356
q11 0 19 -9t8 -17v-175q0 -11 -9 -17.5t-18 -6.5h-137q37 -66 37 -145q0 -173 -116.5 -270t-291.5 -97q-63 0 -131 22q-29 -25 -29 -67q0 -33 27 -49.5t110 -16.5h179q393 0 393 -274q0 -166 -156.5 -273.5t-404.5 -107.5q-125 0 -222.5 30t-159 96.5t-61.5 162.5zM512 494
q64 0 107 46t43 130q0 82 -42.5 128t-107.5 46q-66 0 -108 -45.5t-42 -128.5q0 -85 42 -130.5t108 -45.5zM193 1188l194 299q6 12 21 12h190q12 0 20 -12l195 -299q1 -2 3 -4.5t4 -9.5t1.5 -12.5t-7.5 -10t-21 -4.5h-162q-13 0 -21 12l-106 150l-107 -150q-7 -10 -20 -10
h-164h-5t-9.5 2t-10.5 5.5t-3.5 12t8.5 19.5z" />
    <glyph glyph-name="Gbreve" unicode="&#x11e;" horiz-adv-x="1286" 
d="M74 666q0 166 51 303t140 228.5t211 141.5t263 50q245 0 418 -177q7 -8 6.5 -18t-6.5 -16l-131 -148q-6 -8 -17 -8.5t-20 6.5q-55 52 -110 77t-138 25q-169 0 -270.5 -121.5t-101.5 -336.5q0 -224 98.5 -343.5t286.5 -119.5q106 0 168 45v250h-230q-11 0 -17.5 8.5
t-6.5 17.5v195q0 11 8 18t16 7h467q11 0 19 -8.5t8 -16.5v-590q0 -10 -8 -18q-76 -75 -195.5 -120.5t-257.5 -45.5q-139 0 -258 48t-206.5 137.5t-137 225.5t-49.5 304zM737 1417q-131 0 -203.5 72t-87.5 186q-2 10 4 19.5t21 9.5h135q22 0 25 -18q18 -93 106 -93
q91 0 109 93q3 18 24 18h134q26 0 24 -27q-13 -114 -86 -187t-205 -73z" />
    <glyph glyph-name="gbreve" unicode="&#x11f;" horiz-adv-x="1064" 
d="M305 -147q0 -53 58.5 -86t173.5 -33q111 0 178 43t67 94q0 41 -32.5 58.5t-118.5 17.5h-137q-88 0 -132 10q-57 -49 -57 -104zM57 -182q0 127 129 219q-75 65 -75 172q0 105 100 190q-54 48 -87.5 118t-33.5 153q0 119 60 209t154.5 134t207.5 44q75 0 152 -25h356
q11 0 19 -9t8 -17v-175q0 -11 -9 -17.5t-18 -6.5h-137q37 -66 37 -145q0 -173 -116.5 -270t-291.5 -97q-63 0 -131 22q-29 -25 -29 -67q0 -33 27 -49.5t110 -16.5h179q393 0 393 -274q0 -166 -156.5 -273.5t-404.5 -107.5q-125 0 -222.5 30t-159 96.5t-61.5 162.5zM512 494
q64 0 107 46t43 130q0 82 -42.5 128t-107.5 46q-66 0 -108 -45.5t-42 -128.5q0 -85 42 -130.5t108 -45.5zM504 1153q-72 0 -129.5 25.5t-92.5 68.5t-54 94t-21 107q0 12 6.5 20.5t17.5 8.5h138q20 0 24 -25q6 -53 34 -84t77 -31q47 0 74.5 31.5t35.5 85.5q2 9 9 16t16 7h135
q10 0 17.5 -8.5t7.5 -20.5q-2 -56 -21 -107t-53.5 -94t-91.5 -68.5t-129 -25.5z" />
    <glyph glyph-name="Gdotaccent" unicode="&#x120;" horiz-adv-x="1286" 
d="M74 666q0 166 51 303t140 228.5t211 141.5t263 50q245 0 418 -177q7 -8 6.5 -18t-6.5 -16l-131 -148q-6 -8 -17 -8.5t-20 6.5q-55 52 -110 77t-138 25q-169 0 -270.5 -121.5t-101.5 -336.5q0 -224 98.5 -343.5t286.5 -119.5q106 0 168 45v250h-230q-11 0 -17.5 8.5
t-6.5 17.5v195q0 11 8 18t16 7h467q11 0 19 -8.5t8 -16.5v-590q0 -10 -8 -18q-76 -75 -195.5 -120.5t-257.5 -45.5q-139 0 -258 48t-206.5 137.5t-137 225.5t-49.5 304zM737 1421q-72 0 -122 45.5t-50 116.5q0 69 50 113.5t122 44.5q73 0 122.5 -44.5t49.5 -113.5
q0 -71 -49.5 -116.5t-122.5 -45.5z" />
    <glyph glyph-name="gdotaccent" unicode="&#x121;" horiz-adv-x="1064" 
d="M305 -147q0 -53 58.5 -86t173.5 -33q111 0 178 43t67 94q0 41 -32.5 58.5t-118.5 17.5h-137q-88 0 -132 10q-57 -49 -57 -104zM57 -182q0 127 129 219q-75 65 -75 172q0 105 100 190q-54 48 -87.5 118t-33.5 153q0 119 60 209t154.5 134t207.5 44q75 0 152 -25h356
q11 0 19 -9t8 -17v-175q0 -11 -9 -17.5t-18 -6.5h-137q37 -66 37 -145q0 -173 -116.5 -270t-291.5 -97q-63 0 -131 22q-29 -25 -29 -67q0 -33 27 -49.5t110 -16.5h179q393 0 393 -274q0 -166 -156.5 -273.5t-404.5 -107.5q-125 0 -222.5 30t-159 96.5t-61.5 162.5zM512 494
q64 0 107 46t43 130q0 82 -42.5 128t-107.5 46q-66 0 -108 -45.5t-42 -128.5q0 -85 42 -130.5t108 -45.5zM504 1157q-71 0 -117.5 45t-46.5 115q0 69 46.5 114.5t117.5 45.5q70 0 118 -46t48 -114q0 -70 -48 -115t-118 -45z" />
    <glyph glyph-name="uni0122" unicode="&#x122;" horiz-adv-x="1286" 
d="M74 666q0 166 51 303t140 228.5t211 141.5t263 50q245 0 418 -177q7 -8 6.5 -18t-6.5 -16l-131 -148q-6 -8 -17 -8.5t-20 6.5q-55 52 -110 77t-138 25q-169 0 -270.5 -121.5t-101.5 -336.5q0 -224 98.5 -343.5t286.5 -119.5q106 0 168 45v250h-230q-11 0 -17.5 8.5
t-6.5 17.5v195q0 11 8 18t16 7h467q11 0 19 -8.5t8 -16.5v-590q0 -10 -8 -18q-76 -75 -195.5 -120.5t-257.5 -45.5q-139 0 -258 48t-206.5 137.5t-137 225.5t-49.5 304zM664 -68q125 -14 185 -58.5t60 -129.5q0 -56 -30 -99t-82.5 -68t-111.5 -39t-128 -19q-24 0 -27 20
l-18 103q-2 9 4.5 18t18.5 10q51 6 86 16.5t49 21.5t14 22q0 22 -16.5 35.5t-59.5 23.5q-30 10 -16 37l47 94q6 16 25 12z" />
    <glyph glyph-name="uni0123" unicode="&#x123;" horiz-adv-x="1064" 
d="M305 -147q0 -53 58.5 -86t173.5 -33q111 0 178 43t67 94q0 41 -32.5 58.5t-118.5 17.5h-137q-88 0 -132 10q-57 -49 -57 -104zM57 -182q0 127 129 219q-75 65 -75 172q0 105 100 190q-54 48 -87.5 118t-33.5 153q0 119 60 209t154.5 134t207.5 44q75 0 152 -25h356
q11 0 19 -9t8 -17v-175q0 -11 -9 -17.5t-18 -6.5h-137q37 -66 37 -145q0 -173 -116.5 -270t-291.5 -97q-63 0 -131 22q-29 -25 -29 -67q0 -33 27 -49.5t110 -16.5h179q393 0 393 -274q0 -166 -156.5 -273.5t-404.5 -107.5q-125 0 -222.5 30t-159 96.5t-61.5 162.5zM512 494
q64 0 107 46t43 130q0 82 -42.5 128t-107.5 46q-66 0 -108 -45.5t-42 -128.5q0 -85 42 -130.5t108 -45.5zM565 1087q-125 14 -185.5 59t-60.5 130q0 56 30 99t82.5 69t112 40t128.5 19q10 0 17 -7t9 -15l21 -103q2 -10 -4 -18.5t-19 -9.5q-52 -6 -87.5 -16.5t-49.5 -21.5
t-14 -22q0 -22 16 -34.5t60 -22.5q31 -10 16 -39l-47 -94q-7 -17 -25 -13z" />
    <glyph glyph-name="Hcircumflex" unicode="&#x124;" horiz-adv-x="1357" 
d="M143 0v1339q0 11 9 18t18 7h238q11 0 17.5 -8t6.5 -17v-512h494v512q0 11 8 18t16 7h238q11 0 18.5 -8.5t7.5 -16.5v-1339q0 -11 -8.5 -18t-17.5 -7h-238q-11 0 -17.5 8t-6.5 17v569h-494v-569q0 -11 -8 -18t-16 -7h-238q-11 0 -19 8.5t-8 16.5zM551 1417l-184 -2
q-2 0 -5.5 0.5t-11 3.5t-11.5 7t-3 12.5t10 19.5l197 238q7 10 20 10h230q13 0 20 -10l197 -238q1 -2 3 -4.5t4 -9.5t1.5 -12.5t-8 -10t-21.5 -4.5h-184q-13 0 -19 6l-108 117l-109 -117q-4 -6 -18 -6z" />
    <glyph glyph-name="hcircumflex" unicode="&#x125;" horiz-adv-x="1142" 
d="M123 0l2 1446q0 11 8 17.5t17 6.5h235q11 0 19 -8t8 -16v-373l-6 -135q141 119 292 119q170 0 252 -112t82 -314v-631q0 -11 -8 -18t-16 -7h-236q-11 0 -19 8.5t-8 16.5v600q0 118 -29.5 160.5t-101.5 42.5q-54 0 -98 -25t-106 -86v-692q0 -11 -8 -18t-17 -7h-235
q-11 0 -19 8.5t-8 16.5zM139 1507h-184q-2 0 -5.5 0.5t-11 3.5t-11.5 7t-3 12.5t10 19.5l197 238q5 8 21 8h229q15 0 20 -8l197 -238q1 -2 3 -5t4.5 -10t2 -13t-8 -10.5t-21.5 -4.5h-185q-7 0 -18 11l-109 116l-108 -116q-7 -11 -19 -11z" />
    <glyph glyph-name="Hbar" unicode="&#x126;" horiz-adv-x="1433" 
d="M967 827v148h-494v-148h494zM1401 1122v-121q0 -11 -9 -18.5t-18 -7.5h-119v-975q0 -11 -8.5 -18t-17.5 -7h-238q-11 0 -17.5 8t-6.5 17v569h-494v-569q0 -11 -8 -18t-16 -7h-238q-11 0 -19 8.5t-8 16.5v975h-127q-11 0 -17.5 8.5t-6.5 17.5v111q0 10 6.5 17.5t15.5 7.5
l129 10v192q0 11 9 18t18 7h238q11 0 17.5 -8t6.5 -17v-192h494v192q0 11 8 18t16 7h238q11 0 18.5 -8.5t7.5 -16.5v-192h119q11 0 19 -8.5t8 -16.5z" />
    <glyph glyph-name="hbar" unicode="&#x127;" horiz-adv-x="1142" 
d="M410 1032l-4 -135q141 119 292 119q170 0 252 -112t82 -314v-590q0 -11 -8 -18t-16 -7h-236q-11 0 -19 8.5t-8 16.5v559q0 118 -29.5 160.5t-101.5 42.5q-54 0 -98 -25t-106 -86v-651q0 -11 -8 -18t-17 -7h-235q-11 0 -19 8.5t-8 16.5v1130h-119q-11 0 -17.5 8t-6.5 17
v111q0 10 6.5 17t15.5 7l121 10v146q0 11 9 17.5t18 6.5h235q11 0 18 -8t7 -16v-143h335q11 0 18 -9t7 -18v-121q0 -11 -8 -18t-17 -7h-335v-98z" />
    <glyph glyph-name="Itilde" unicode="&#x128;" horiz-adv-x="577" 
d="M143 0v1339q0 11 9 18t18 7h238q11 0 17.5 -8t6.5 -17v-1339q0 -11 -8 -18t-16 -7h-238q-11 0 -19 8.5t-8 16.5zM416 1421q-53 0 -104.5 25.5t-87 50.5t-52.5 25q-42 0 -57 -78q-1 -9 -9 -16t-16 -7h-123q-10 0 -17.5 7t-6.5 22q12 124 71.5 198t149.5 74q42 0 83 -15.5
t67.5 -33.5t52.5 -33.5t41 -15.5q40 0 55 78q1 9 8.5 14.5t15.5 5.5h125q27 0 25 -26q-12 -123 -71.5 -199t-149.5 -76z" />
    <glyph glyph-name="itilde" unicode="&#x129;" horiz-adv-x="536" 
d="M123 0v1006q0 11 9 18.5t18 7.5h235q11 0 18 -8.5t7 -17.5v-1006q0 -11 -8 -18t-17 -7h-235q-11 0 -19 8.5t-8 16.5zM-70 1184q12 124 68 198t147 74q40 0 81 -15.5t67.5 -33.5t51.5 -33.5t38 -15.5q34 0 47 76q1 9 9 14.5t16 5.5h127q26 0 24 -27q-12 -124 -68 -198
t-147 -74q-41 0 -82 15.5t-67.5 33.5t-51 33.5t-36.5 15.5q-16 0 -28 -15.5t-22 -61.5q-3 -19 -24 -19h-125q-27 0 -25 27z" />
    <glyph glyph-name="Imacron" unicode="&#x12a;" horiz-adv-x="577" 
d="M143 0v1339q0 11 9 18t18 7h238q11 0 17.5 -8t6.5 -17v-1339q0 -11 -8 -18t-16 -7h-238q-11 0 -19 8.5t-8 16.5zM-8 1483v155q0 11 8 19t16 8h545q11 0 18 -9t7 -18v-155q0 -11 -8 -18t-17 -7h-545q-11 0 -17.5 8t-6.5 17z" />
    <glyph glyph-name="imacron" unicode="&#x12b;" horiz-adv-x="536" 
d="M123 0v1006q0 11 9 18.5t18 7.5h235q11 0 18 -8.5t7 -17.5v-1006q0 -11 -8 -18t-17 -7h-235q-11 0 -19 8.5t-8 16.5zM-25 1221v155q0 11 8.5 19t16.5 8h535q11 0 18.5 -9t7.5 -18v-155q0 -11 -8.5 -18t-17.5 -7h-535q-11 0 -18 8t-7 17z" />
    <glyph glyph-name="uni012C" unicode="&#x12c;" horiz-adv-x="577" 
d="M143 0v1339q0 11 9 18t18 7h238q11 0 17.5 -8t6.5 -17v-1339q0 -11 -8 -18t-16 -7h-238q-11 0 -19 8.5t-8 16.5zM289 1417q-131 0 -204.5 73t-86.5 187q-2 10 4 18.5t21 8.5h135q21 0 24 -18q18 -93 107 -93q90 0 108 93q3 18 25 18h133q27 0 25 -27q-13 -114 -86 -187
t-205 -73z" />
    <glyph glyph-name="uni012D" unicode="&#x12d;" horiz-adv-x="536" 
d="M123 0v1006q0 11 9 18.5t18 7.5h235q11 0 18 -8.5t7 -17.5v-1006q0 -11 -8 -18t-17 -7h-235q-11 0 -19 8.5t-8 16.5zM268 1151q-72 0 -129 26t-91.5 69.5t-54 94.5t-22.5 107q0 10 7 19.5t18 9.5h137q9 0 16 -7t9 -16q8 -54 35.5 -85.5t74.5 -31.5t75 31.5t36 85.5
q2 9 8.5 16t15.5 7h138q9 0 16.5 -8.5t7.5 -20.5q-3 -56 -22 -107t-53.5 -94.5t-92 -69.5t-129.5 -26z" />
    <glyph glyph-name="Iogonek" unicode="&#x12e;" horiz-adv-x="577" 
d="M143 0v1339q0 11 9 19t18 8h238q11 0 17.5 -9t6.5 -18v-1339q0 -15 -12 -23q-131 -75 -131 -178q0 -30 18.5 -44.5t46.5 -14.5q35 0 64 22q1 1 3.5 2.5t7 3.5t9 1.5t10 -4.5t9.5 -13l57 -123q4 -8 2 -16.5t-8 -13.5q-38 -31 -95.5 -50.5t-109.5 -19.5q-101 0 -171.5 56
t-70.5 155q0 126 105 235q-10 1 -16.5 9t-6.5 16z" />
    <glyph glyph-name="iogonek" unicode="&#x12f;" horiz-adv-x="536" 
d="M123 0l2 1006q0 11 8.5 18.5t16.5 7.5h235q11 0 19 -9t8 -17v-1006q0 -16 -15 -23q-63 -32 -94 -78t-31 -94q0 -59 66 -59q26 0 61 21q5 6 17.5 4t19.5 -15l53 -110q4 -8 2 -17t-8 -14q-36 -31 -93 -48.5t-107 -17.5q-97 0 -161.5 54t-64.5 151q0 113 95 221
q-12 0 -20.5 8.5t-8.5 16.5zM266 1155q-72 0 -121 45t-49 115q0 71 49 115.5t121 44.5q74 0 124 -44.5t50 -115.5q0 -70 -50.5 -115t-123.5 -45z" />
    <glyph glyph-name="Idotaccent" unicode="&#x130;" horiz-adv-x="577" 
d="M143 0v1339q0 11 9 18t18 7h238q11 0 17.5 -8t6.5 -17v-1339q0 -11 -8 -18t-16 -7h-238q-11 0 -19 8.5t-8 16.5zM289 1421q-72 0 -121 46t-49 116t48.5 114t121.5 44t122.5 -44.5t49.5 -113.5q0 -70 -49.5 -116t-122.5 -46z" />
    <glyph glyph-name="dotlessi" unicode="&#x131;" horiz-adv-x="536" 
d="M123 0v1006q0 11 9 18.5t18 7.5h235q11 0 18 -8.5t7 -17.5v-1006q0 -11 -8 -18t-17 -7h-235q-11 0 -19 8.5t-8 16.5z" />
    <glyph glyph-name="IJ" unicode="&#x132;" horiz-adv-x="1390" 
d="M127 0v1339q0 11 9 18t18 7h237q11 0 18 -8t7 -17v-1339q0 -11 -8 -18t-17 -7h-237q-11 0 -19 8.5t-8 16.5zM426 223l164 121q5 6 17.5 5.5t19.5 -13.5q69 -129 186 -129q86 0 124 50t38 183v899q0 11 8.5 18t17.5 7h238q11 0 18 -8t7 -17v-919q0 -77 -15.5 -146
t-48.5 -129t-82 -103t-120 -68t-158 -25q-288 0 -422 241q-4 9 -1.5 18.5t9.5 14.5z" />
    <glyph glyph-name="ij" unicode="&#x133;" horiz-adv-x="956" 
d="M285 1155q-73 0 -121.5 45t-48.5 115t48.5 115t121.5 45t122.5 -45t49.5 -115t-49.5 -115t-122.5 -45zM139 0v1006q0 11 9 18.5t18 7.5h235q11 0 18 -8.5t7 -17.5v-1006q0 -11 -8 -18t-17 -7h-235q-11 0 -19 8.5t-8 16.5zM528 -55v1061q0 11 8.5 18.5t16.5 7.5h238
q11 0 18.5 -8.5t7.5 -17.5v-1057q0 -85 -18.5 -154.5t-58 -124.5t-108 -85.5t-161.5 -30.5q-96 0 -172 26q-20 7 -16 31l45 176q8 24 32 18q47 -14 78 -14q51 0 70.5 33t19.5 121zM672 1155q-72 0 -122 45.5t-50 114.5q0 71 50 115.5t122 44.5q73 0 122.5 -44.5t49.5 -115.5
q0 -70 -49.5 -115t-122.5 -45z" />
    <glyph glyph-name="Jcircumflex" unicode="&#x134;" horiz-adv-x="1011" 
d="M35 223l164 121q5 6 17.5 5.5t19.5 -13.5q69 -129 186 -129q86 0 125 50t39 183v899q0 11 8 18t16 7h238q11 0 18.5 -8.5t7.5 -16.5v-919q0 -97 -25 -180.5t-75.5 -149.5t-133.5 -103.5t-191 -37.5q-288 0 -422 241q-4 9 -1.5 18.5t9.5 14.5zM598 1415h-184
q-2 0 -5.5 0.5t-11 3.5t-11.5 7t-3 12.5t10 19.5l197 238q5 8 20 8h230q15 0 20 -8l197 -238q1 -2 3 -5t4 -10t1.5 -13t-8 -10.5t-21.5 -4.5h-184q-10 0 -18 8l-109 117l-109 -117q-5 -8 -18 -8z" />
    <glyph glyph-name="jcircumflex" unicode="&#x135;" horiz-adv-x="538" 
d="M127 -55v1061q0 11 8.5 18.5t16.5 7.5h237q11 0 19 -9t8 -17v-1057q0 -85 -18.5 -154.5t-58 -124.5t-108 -85.5t-161.5 -30.5q-96 0 -172 26q-9 3 -14 12.5t-3 18.5l45 176q8 24 33 18q47 -14 78 -14q51 0 70.5 33t19.5 121zM-41 1188l197 299q5 10 20 10h189
q13 0 20 -10l197 -299q1 -2 2.5 -4.5t4 -9.5t1.5 -12.5t-8 -10t-21 -4.5h-164q-12 0 -20 12l-107 150l-106 -150q-8 -12 -21 -12h-163h-5t-10 2.5t-10.5 6.5t-3.5 12.5t8 19.5z" />
    <glyph glyph-name="uni0136" unicode="&#x136;" horiz-adv-x="1222" 
d="M143 0v1339q0 11 9 18t18 7h238q11 0 17.5 -8t6.5 -17v-542l438 559q5 8 21 8h264q2 0 5.5 -0.5t10.5 -3t11 -6.5t3.5 -12t-9.5 -19l-402 -508l473 -803q1 -2 2.5 -4.5t3 -9t0.5 -12t-8 -9.5t-20 -4h-262q-13 0 -23 15l-344 598l-164 -203v-383q0 -11 -8 -18t-16 -7h-238
q-11 0 -19 8.5t-8 16.5zM608 -68q126 -14 187 -58.5t61 -129.5q0 -56 -30 -99t-82.5 -68t-112 -39t-129.5 -19q-24 0 -27 20l-18 103q-2 10 4.5 18.5t17.5 9.5q51 6 86.5 16.5t49.5 21.5t14 22q0 22 -16.5 35.5t-59.5 23.5q-30 10 -16 37l47 94q6 16 24 12z" />
    <glyph glyph-name="uni0137" unicode="&#x137;" horiz-adv-x="1069" 
d="M123 0v1446q0 11 9 17.5t18 6.5h231q11 0 18 -8t7 -16v-838l333 414q7 10 21 10h258q2 0 5.5 -0.5t11 -3.5t11 -7t2.5 -12.5t-10 -19.5l-333 -395l370 -580q1 -2 2.5 -4.5t3.5 -9t1 -12t-8 -9.5t-21 -4h-256q-14 0 -23 13l-239 405l-129 -147v-246q0 -11 -8 -18t-17 -7
h-231q-11 0 -19 8.5t-8 16.5zM516 -68q125 -14 185.5 -58.5t60.5 -129.5q0 -56 -30 -99t-82.5 -68t-111.5 -39t-128 -19q-10 0 -17.5 6t-9.5 14l-21 103q-2 10 4 18.5t19 9.5q52 6 88 16.5t50 21.5t14 22q0 22 -16.5 35.5t-59.5 23.5q-31 10 -17 37l48 94q6 16 24 12z" />
    <glyph glyph-name="kgreenlandic" unicode="&#x138;" horiz-adv-x="1069" 
d="M123 0l2 1006q0 11 8.5 18.5t16.5 7.5h235q11 0 19 -9t8 -17v-404l327 420q7 10 21 10h258q2 0 5.5 -0.5t11 -3.5t11 -7t2.5 -12.5t-10 -19.5l-329 -395l366 -580q1 -2 2.5 -4.5t3.5 -9t1 -12t-8 -9.5t-21 -4h-256q-14 0 -23 13l-239 399l-125 -149v-238q0 -11 -8 -18
t-17 -7h-235q-11 0 -19 8.5t-8 16.5z" />
    <glyph glyph-name="Lacute" unicode="&#x139;" horiz-adv-x="1028" 
d="M143 0v1339q0 11 9 18t18 7h238q11 0 17.5 -8t6.5 -17v-1112h533q11 0 18.5 -8.5t7.5 -17.5v-201q0 -11 -8.5 -18t-17.5 -7h-795q-11 0 -19 8.5t-8 16.5zM614 1661l-237 -238q-6 -6 -19 -6h-192h-5.5t-10.5 2t-11 5.5t-3.5 12t9.5 19.5l174 238q7 10 21 10h256
q2 0 5.5 -0.5t11 -4t11.5 -7.5t2 -12.5t-12 -18.5z" />
    <glyph glyph-name="lacute" unicode="&#x13a;" horiz-adv-x="555" 
d="M123 258l2 1188q0 11 8.5 19t16.5 8h235q11 0 19 -9t8 -18v-1200q0 -51 24 -51q5 0 18 1.5t20 1t14.5 -5.5t9.5 -16l30 -176q3 -20 -14 -27q-52 -22 -135 -22q-133 0 -194.5 82t-61.5 225zM586 1772l-238 -238q-6 -6 -18 -6h-193h-5t-10 2t-10.5 5.5t-3 12t8.5 19.5
l172 237q9 13 20 13h258q2 0 5.5 -1t11.5 -4.5t11.5 -8t2 -13t-11.5 -18.5z" />
    <glyph glyph-name="uni013B" unicode="&#x13b;" horiz-adv-x="1028" 
d="M143 0v1339q0 11 9 18t18 7h238q11 0 17.5 -8t6.5 -17v-1112h533q11 0 18.5 -8.5t7.5 -17.5v-201q0 -11 -8.5 -18t-17.5 -7h-795q-11 0 -19 8.5t-8 16.5zM528 -68q124 -14 185 -58.5t61 -129.5q0 -56 -30 -99t-82.5 -68t-111.5 -39t-128 -19q-10 0 -17.5 6t-9.5 14
l-20 103q-4 25 22 28q52 6 88 16.5t50 21.5t14 22q0 22 -16.5 35.5t-61.5 23.5q-4 0 -9.5 2.5t-10.5 11t4 23.5l49 94q6 16 24 12z" />
    <glyph glyph-name="uni013C" unicode="&#x13c;" horiz-adv-x="555" 
d="M123 258l2 1188q0 11 8.5 19t16.5 8h235q11 0 19 -9t8 -18v-1200q0 -51 24 -51q5 0 18 1.5t20 1t14.5 -5.5t9.5 -16l30 -176q3 -20 -14 -27q-52 -22 -135 -22q-133 0 -194.5 82t-61.5 225zM305 -68q126 -14 187 -58.5t61 -129.5q0 -56 -30.5 -99t-83 -68t-112 -39
t-128.5 -19q-10 0 -17.5 6t-9.5 14l-20 103q-4 25 22 28q52 6 88.5 16.5t51 21.5t14.5 22q0 22 -17 35.5t-61 23.5q-31 10 -17 37l48 94q6 16 24 12z" />
    <glyph glyph-name="Lcaron" unicode="&#x13d;" horiz-adv-x="1028" 
d="M143 0v1339q0 11 9 18t18 7h238q11 0 17.5 -8t6.5 -17v-1112h533q11 0 18.5 -8.5t7.5 -17.5v-201q0 -11 -8.5 -18t-17.5 -7h-795q-11 0 -19 8.5t-8 16.5zM809 1024h-107q-10 0 -17 8t-7 17l-8 444q0 11 7 19t17 8h158q11 0 18 -7.5t7 -19.5l-5 -129v-4l-36 -316
q-3 -20 -27 -20z" />
    <glyph glyph-name="lcaron" unicode="&#x13e;" horiz-adv-x="598" 
d="M123 258l2 1188q0 11 8.5 19t16.5 8h235q11 0 19 -9t8 -18v-1200q0 -51 24 -51q5 0 18 1.5t20 1t14.5 -5.5t9.5 -16l30 -176q3 -20 -14 -27q-52 -22 -135 -22q-133 0 -194.5 82t-61.5 225zM594 1098h-107q-10 0 -17 7.5t-7 16.5l-8 445q0 11 7 18.5t17 7.5h158
q10 0 17.5 -7.5t7.5 -18.5l-3 -129v-4l-41 -316q-3 -20 -24 -20z" />
    <glyph glyph-name="Ldot" unicode="&#x13f;" horiz-adv-x="1028" 
d="M143 0v1339q0 11 9 18t18 7h238q11 0 17.5 -8t6.5 -17v-1112h533q11 0 18.5 -8.5t7.5 -17.5v-201q0 -11 -8.5 -18t-17.5 -7h-795q-11 0 -19 8.5t-8 16.5zM627 670q0 78 52.5 131t127.5 53t125.5 -53t50.5 -131t-50.5 -132.5t-125.5 -54.5t-127.5 54.5t-52.5 132.5z" />
    <glyph glyph-name="ldot" unicode="&#x140;" horiz-adv-x="835" 
d="M123 258l2 1188q0 11 8.5 19t16.5 8h235q11 0 19 -9t8 -18v-1200q0 -51 24 -51q5 0 18 1.5t20 1t14.5 -5.5t9.5 -16l30 -176q3 -20 -14 -27q-52 -22 -135 -22q-133 0 -194.5 82t-61.5 225zM508 670q0 78 50.5 132t125.5 54t127.5 -54t52.5 -132t-52.5 -131.5
t-127.5 -53.5t-125.5 53.5t-50.5 131.5z" />
    <glyph glyph-name="Lslash" unicode="&#x141;" horiz-adv-x="1038" 
d="M449 227l528 -2q11 0 19 -8t8 -16v-201q0 -11 -9 -19t-18 -8h-793q-11 0 -17.5 9t-6.5 18v416l-123 -70q-2 -1 -4 -2.5t-8.5 -3t-11.5 0t-9 8.5t-4 20v186q0 15 12 23l146 84v677q0 11 8.5 18t17.5 7h238q11 0 17.5 -8t6.5 -17v-540l330 178q2 1 4 2.5t8.5 3t11.5 0
t9 -8.5t4 -20v-186q0 -17 -12 -23l-352 -190v-328z" />
    <glyph glyph-name="lslash" unicode="&#x142;" horiz-adv-x="579" 
d="M553 803l-125 -76v-481q0 -53 23 -53q6 0 18.5 1.5t19.5 1.5t14 -4.5t9 -15.5l31 -176q3 -20 -15 -27q-57 -24 -135 -24q-133 0 -194.5 82.5t-61.5 226.5v315l-84 -53q-2 -1 -4.5 -2.5t-9.5 -3.5t-12.5 -0.5t-10 8.5t-4.5 21v192q0 17 13 23l112 69v619q0 11 9 17.5
t18 6.5h237q11 0 18 -8t7 -16v-465l102 61q2 1 4 2.5t8.5 3.5t11.5 1t9 -8t4 -21v-195q0 -14 -12 -22z" />
    <glyph glyph-name="Nacute" unicode="&#x143;" horiz-adv-x="1343" 
d="M143 0v1339q0 11 9 18t18 7h244q14 0 22 -12l418 -754v-2l88 -180q-20 226 -20 342v581q0 11 8 18t16 7h228q11 0 18.5 -8.5t7.5 -16.5v-1339q0 -11 -8.5 -18t-17.5 -7h-244q-14 0 -23 13l-418 753v2l-88 181q21 -237 21 -338v-586q0 -11 -8 -18t-17 -7h-227
q-11 0 -19 8.5t-8 16.5zM995 1661l-239 -238q-6 -6 -19 -6h-190h-5t-10.5 2t-11 5.5t-3 12t8.5 19.5l172 238q7 10 21 10h258q2 0 5.5 -1t10.5 -4t11 -7.5t2.5 -12.5t-11.5 -18z" />
    <glyph glyph-name="nacute" unicode="&#x144;" horiz-adv-x="1146" 
d="M123 0v1006q0 11 9 18.5t18 7.5h194q10 0 16.5 -7t8.5 -15l12 -92q75 66 150.5 102.5t166.5 36.5q170 0 252 -112t82 -314v-631q0 -11 -8 -18t-16 -7h-236q-11 0 -19 8.5t-8 16.5v600q0 118 -29.5 160.5t-101.5 42.5q-54 0 -98 -25t-106 -86v-692q0 -11 -8 -18t-17 -7
h-235q-11 0 -19 8.5t-8 16.5zM901 1456l-242 -299q-7 -10 -20 -10h-176h-5t-10.5 2.5t-11.5 6.5t-4 12.5t8 19.5l185 299q6 12 22 12h234q2 0 5.5 -0.5t11 -3.5t11 -7t2.5 -12.5t-10 -19.5z" />
    <glyph glyph-name="uni0145" unicode="&#x145;" horiz-adv-x="1343" 
d="M143 0v1339q0 11 9 18t18 7h244q14 0 22 -12l418 -754v-2l88 -180q-20 226 -20 342v581q0 11 8 18t16 7h228q11 0 18.5 -8.5t7.5 -16.5v-1339q0 -11 -8.5 -18t-17.5 -7h-244q-14 0 -23 13l-418 753v2l-88 181q21 -237 21 -338v-586q0 -11 -8 -18t-17 -7h-227
q-11 0 -19 8.5t-8 16.5zM625 -68q124 -14 185.5 -59t61.5 -129q0 -56 -30.5 -99t-83 -68t-112 -39t-128.5 -19q-22 0 -26 20l-21 103q-2 10 4 18.5t19 9.5q52 6 87.5 16.5t49.5 21.5t14 22q0 22 -16.5 35.5t-61.5 23.5q-4 0 -9.5 2.5t-10.5 11t4 23.5l49 94q6 16 25 12z" />
    <glyph glyph-name="uni0146" unicode="&#x146;" horiz-adv-x="1146" 
d="M123 0v1006q0 11 9 18.5t18 7.5h194q10 0 16.5 -7t8.5 -15l12 -92q75 66 150.5 102.5t166.5 36.5q170 0 252 -112t82 -314v-631q0 -11 -8 -18t-16 -7h-236q-11 0 -19 8.5t-8 16.5v600q0 118 -29.5 160.5t-101.5 42.5q-54 0 -98 -25t-106 -86v-692q0 -11 -8 -18t-17 -7
h-235q-11 0 -19 8.5t-8 16.5zM520 -68q125 -14 185.5 -58.5t60.5 -129.5q0 -56 -30 -99t-82.5 -68t-111.5 -39t-128 -19q-10 0 -17.5 6t-9.5 14l-20 103q-4 25 22 28q52 6 88 16.5t50 21.5t14 22q0 22 -16.5 35.5t-59.5 23.5q-30 10 -16 37l47 94q6 16 24 12z" />
    <glyph glyph-name="Ncaron" unicode="&#x147;" horiz-adv-x="1343" 
d="M143 0v1339q0 11 9 18t18 7h244q14 0 22 -12l418 -754v-2l88 -180q-20 226 -20 342v581q0 11 8 18t16 7h228q11 0 18.5 -8.5t7.5 -16.5v-1339q0 -11 -8.5 -18t-17.5 -7h-244q-14 0 -23 13l-418 753v2l-88 181q21 -237 21 -338v-586q0 -11 -8 -18t-17 -7h-227
q-11 0 -19 8.5t-8 16.5zM803 1706h184q2 0 5.5 -0.5t11 -3.5t11.5 -7t3 -12.5t-10 -19.5l-197 -238q-5 -8 -20 -8h-230q-15 0 -20 8l-197 238q-1 2 -3 5t-4 10t-1.5 13t8 10.5t21.5 4.5h184q10 0 18 -8l109 -117l108 117q5 8 19 8z" />
    <glyph glyph-name="ncaron" unicode="&#x148;" horiz-adv-x="1146" 
d="M123 0v1006q0 11 9 18.5t18 7.5h194q10 0 16.5 -7t8.5 -15l12 -92q75 66 150.5 102.5t166.5 36.5q170 0 252 -112t82 -314v-631q0 -11 -8 -18t-16 -7h-236q-11 0 -19 8.5t-8 16.5v600q0 118 -29.5 160.5t-101.5 42.5q-54 0 -98 -25t-106 -86v-692q0 -11 -8 -18t-17 -7
h-235q-11 0 -19 8.5t-8 16.5zM500 1159l-197 299q-1 2 -2.5 4.5t-4 9.5t-1.5 12.5t8 10t21 4.5h163q13 0 21 -12l106 -150l107 150q8 12 20 12h164h5t10 -2.5t10.5 -6.5t3.5 -12.5t-8 -19.5l-197 -299q-6 -12 -20 -12h-189q-12 0 -20 12z" />
    <glyph glyph-name="napostrophe" unicode="&#x149;" horiz-adv-x="1667" 
d="M172 788l-57 105q-5 9 -2 20t12 15q77 45 113.5 93t42.5 116q-63 3 -107.5 44t-44.5 107q0 73 45.5 119.5t114.5 46.5q91 0 138.5 -68t47.5 -184q0 -284 -268 -424q-9 -5 -20 -2t-15 12zM893 918q74 65 150 101t169 36q170 0 252 -111t82 -313v-631q0 -11 -8 -19t-16 -8
h-236q-11 0 -18.5 9t-7.5 18v600q0 117 -30.5 159t-101.5 42q-55 0 -98.5 -24.5t-105.5 -84.5v-692q0 -11 -8.5 -19t-16.5 -8h-235q-11 0 -19 9t-8 18v1006q0 11 9 17.5t18 6.5h192q22 0 25 -20z" />
    <glyph glyph-name="Omacron" unicode="&#x14c;" horiz-adv-x="1380" 
d="M690 -49q-276 0 -446 197.5t-170 527.5q0 328 169.5 520.5t446.5 192.5q278 0 448.5 -192.5t170.5 -520.5q0 -330 -171 -527.5t-448 -197.5zM690 209q145 0 233.5 124.5t88.5 342.5q0 215 -88 334.5t-234 119.5t-233.5 -119.5t-87.5 -334.5q0 -218 88 -342.5t233 -124.5z
M393 1483v155q0 11 8.5 19t16.5 8h545q11 0 17.5 -9t6.5 -18v-155q0 -11 -8 -18t-16 -7h-545q-11 0 -18 8t-7 17z" />
    <glyph glyph-name="omacron" unicode="&#x14d;" horiz-adv-x="1124" 
d="M57 502q0 127 41.5 232.5t111.5 175t160.5 107.5t190.5 38t191 -38t161.5 -107.5t112 -175t41.5 -232.5q0 -126 -41.5 -231.5t-111.5 -174.5t-161.5 -107t-191.5 -38q-99 0 -190 38t-161 107t-111.5 174.5t-41.5 231.5zM350 502q0 -144 57 -225.5t154 -81.5t155 81.5
t58 225.5q0 145 -58 227t-155 82t-154 -81.5t-57 -227.5zM270 1221v155q0 11 8.5 19t16.5 8h534q11 0 19 -9t8 -18v-155q0 -11 -9 -18t-18 -7h-534q-11 0 -18 8t-7 17z" />
    <glyph glyph-name="uni014E" unicode="&#x14e;" horiz-adv-x="1380" 
d="M690 -49q-276 0 -446 197.5t-170 527.5q0 328 169.5 520.5t446.5 192.5q278 0 448.5 -192.5t170.5 -520.5q0 -330 -171 -527.5t-448 -197.5zM690 209q145 0 233.5 124.5t88.5 342.5q0 215 -88 334.5t-234 119.5t-233.5 -119.5t-87.5 -334.5q0 -218 88 -342.5t233 -124.5z
M690 1417q-131 0 -204.5 73t-86.5 187q-2 10 4 18.5t21 8.5h135q22 0 25 -18q18 -93 106 -93q91 0 109 93q3 18 24 18h133q27 0 25 -27q-13 -114 -86 -187t-205 -73z" />
    <glyph glyph-name="uni014F" unicode="&#x14f;" horiz-adv-x="1124" 
d="M57 502q0 127 41.5 232.5t111.5 175t160.5 107.5t190.5 38t191 -38t161.5 -107.5t112 -175t41.5 -232.5q0 -126 -41.5 -231.5t-111.5 -174.5t-161.5 -107t-191.5 -38q-99 0 -190 38t-161 107t-111.5 174.5t-41.5 231.5zM350 502q0 -144 57 -225.5t154 -81.5t155 81.5
t58 225.5q0 145 -58 227t-155 82t-154 -81.5t-57 -227.5zM561 1151q-72 0 -129 26t-91.5 69.5t-53.5 94.5t-21 107q0 11 7 19t18 8h135q9 0 16.5 -6t8.5 -15q8 -54 35.5 -86.5t74.5 -32.5q49 0 77 31.5t34 85.5q3 23 24 23h138q11 0 18.5 -7.5t7.5 -19.5
q-2 -56 -21.5 -107.5t-54.5 -94.5t-93 -69t-130 -26z" />
    <glyph glyph-name="Ohungarumlaut" unicode="&#x150;" horiz-adv-x="1380" 
d="M690 -49q-276 0 -446 197.5t-170 527.5q0 328 169.5 520.5t446.5 192.5q278 0 448.5 -192.5t170.5 -520.5q0 -330 -171 -527.5t-448 -197.5zM690 209q145 0 233.5 124.5t88.5 342.5q0 215 -88 334.5t-234 119.5t-233.5 -119.5t-87.5 -334.5q0 -218 88 -342.5t233 -124.5z
M602 1417h-164q0 1 -4.5 0t-10 1t-10 5t-4 11.5t6.5 19.5l131 238q7 14 22 14h209h5.5t10.5 -2.5t11 -6.5t3.5 -12.5t-9.5 -19.5l-176 -238q-7 -10 -21 -10zM762 1454l131 238q7 14 22 14h209q2 0 5.5 -0.5t10.5 -3t11 -6.5t3.5 -13t-9.5 -20l-178 -238q-5 -8 -21 -8h-162
q0 1 -4.5 0t-10 1t-10 5t-4 11.5t6.5 19.5z" />
    <glyph glyph-name="ohungarumlaut" unicode="&#x151;" horiz-adv-x="1124" 
d="M57 502q0 127 41.5 232.5t111.5 175t160.5 107.5t190.5 38t191 -38t161.5 -107.5t112 -175t41.5 -232.5q0 -126 -41.5 -231.5t-111.5 -174.5t-161.5 -107t-191.5 -38q-99 0 -190 38t-161 107t-111.5 174.5t-41.5 231.5zM350 502q0 -144 57 -225.5t154 -81.5t155 81.5
t58 225.5q0 145 -58 227t-155 82t-154 -81.5t-57 -227.5zM309 1182l144 301q8 16 22 16h195h5t10 -2.5t11 -6.5t4 -12.5t-8 -19.5l-188 -301q-5 -10 -23 -10h-149h-4.5t-9 0.5t-9 4.5t-5 11t4.5 19zM637 1182l141 301q6 16 23 16h194h5t10.5 -2.5t11.5 -6.5t4 -12.5
t-8 -19.5l-189 -301q-5 -10 -22 -10h-148h-4t-8.5 0.5t-9.5 4.5t-5 11t5 19z" />
    <glyph glyph-name="OE" unicode="&#x152;" horiz-adv-x="1759" 
d="M74 676q0 224 88 381t243.5 233t366.5 76h862q11 0 18 -9t7 -18v-200q0 -11 -8 -18t-17 -7h-510v-293h424q11 0 18 -8t7 -16v-201q0 -11 -8.5 -19t-16.5 -8h-424v-342h531q11 0 17.5 -8.5t6.5 -17.5v-201q0 -11 -8 -18t-16 -7h-895q-312 0 -499 183t-187 518zM369 676
q0 -459 417 -459h50v905h-50q-205 0 -311 -106.5t-106 -339.5z" />
    <glyph glyph-name="oe" unicode="&#x153;" horiz-adv-x="1699" 
d="M348 502q0 -144 56 -225.5t145 -81.5q90 0 145.5 82t55.5 225q0 146 -55.5 227.5t-145.5 81.5q-89 0 -145 -82t-56 -227zM57 502q0 127 39.5 232.5t107.5 175t157 107.5t188 38q106 0 195.5 -49.5t148.5 -139.5q63 90 150.5 139.5t185.5 49.5q134 0 231 -67t144 -180
t47 -259q0 -46 -11 -115q-4 -22 -24 -22h-592q18 -107 85.5 -165.5t164.5 -58.5q56 0 105 19t110 57q24 14 37 -10l84 -158q4 -9 2 -18.5t-10 -14.5q-170 -112 -361 -112q-100 0 -191 50.5t-153 139.5q-128 -190 -352 -190q-99 0 -187.5 38t-155.5 107t-106 174.5t-39 231.5
zM1024 612h371q-12 209 -172 209q-73 0 -127 -54t-72 -155z" />
    <glyph glyph-name="Racute" unicode="&#x154;" horiz-adv-x="1226" 
d="M938 1661l-240 -238q-6 -6 -18 -6h-191h-5t-10 2t-10.5 5.5t-3 12t8.5 19.5l172 238q7 10 21 10h258q2 0 5.5 -1t10.5 -4t11 -7.5t2.5 -12.5t-11.5 -18zM432 1124v-385h166q256 0 256 203q0 100 -60 141t-196 41h-166zM1167 -25h-266q-15 0 -22 13l-281 512h-166v-500
q0 -11 -8 -18t-16 -7h-238q-11 0 -19 8.5t-8 16.5v1339q0 11 9 19t18 8h453q88 0 162.5 -13.5t141 -45t112.5 -79.5t73 -120.5t27 -165.5q0 -148 -68 -249t-186 -148l305 -533q1 -2 2.5 -4t3 -8.5t0 -11.5t-8.5 -9t-20 -4z" />
    <glyph glyph-name="racute" unicode="&#x155;" horiz-adv-x="763" 
d="M123 0v1006q0 11 9 17.5t18 6.5h194q21 0 25 -22l12 -113q116 160 272 160q75 0 125 -23q18 -11 15 -26l-41 -205q-2 -10 -11 -17.5t-22 -3.5q-52 15 -96 15q-58 0 -115.5 -44.5t-97.5 -140.5v-610q0 -11 -8 -18t-17 -7h-235q-11 0 -19 8.5t-8 16.5zM764 1456l-244 -299
q-7 -10 -20 -10h-174h-5t-10 2.5t-11 6.5t-4 12.5t7 19.5l182 299q5 10 23 10h235q2 0 5.5 -0.5t11 -3t11.5 -6.5t3 -12t-10 -19z" />
    <glyph glyph-name="uni0156" unicode="&#x156;" horiz-adv-x="1226" 
d="M516 -174l47 94q6 16 25 12q126 -14 187 -58.5t61 -129.5q0 -56 -30.5 -99t-83.5 -68t-112.5 -39t-128.5 -19q-22 0 -26 20l-21 103q-2 10 4 18.5t19 9.5q52 6 87.5 16.5t49.5 21.5t14 22q0 22 -16.5 35.5t-59.5 23.5q-30 10 -16 37zM432 1124v-385h166q258 0 258 203
q0 99 -61 140.5t-197 41.5h-166zM885 545l305 -533q1 -2 2.5 -4t3 -8.5t0 -11.5t-8.5 -9t-20 -4h-266q-15 0 -22 13l-281 512h-166v-500q0 -11 -8 -18t-16 -7h-238q-11 0 -19 8.5t-8 16.5v1339q0 11 9 18t18 7h453q111 0 201 -22t163 -69.5t113.5 -131.5t40.5 -199
q0 -147 -68.5 -248t-187.5 -149z" />
    <glyph glyph-name="uni0157" unicode="&#x157;" horiz-adv-x="763" 
d="M123 0v1006q0 11 9 17.5t18 6.5h194q21 0 25 -22l12 -113q116 160 272 160q75 0 125 -23q18 -11 15 -26l-41 -205q-2 -10 -11 -17.5t-22 -3.5q-52 15 -96 15q-58 0 -115.5 -44.5t-97.5 -140.5v-610q0 -11 -8 -18t-17 -7h-235q-11 0 -19 8.5t-8 16.5zM201 -68
q125 -14 185 -58.5t60 -129.5q0 -56 -30 -99t-82.5 -68t-111.5 -39t-128 -19q-23 0 -26 20l-19 103q-2 9 4.5 18t18.5 10q51 6 86 16.5t49 21.5t14 22q0 22 -16.5 35.5t-59.5 23.5q-30 10 -16 37l47 94q6 16 25 12z" />
    <glyph glyph-name="Rcaron" unicode="&#x158;" horiz-adv-x="1226" 
d="M733 1417h-229q-16 0 -21 8l-196 238q-1 2 -3 5t-4.5 10t-2 13t8 10.5t21.5 4.5h185q10 0 18 -8l108 -117l109 117q5 8 18 8h185q2 0 5.5 -0.5t11 -3.5t11 -7t2.5 -12.5t-10 -19.5l-196 -238q-5 -8 -21 -8zM434 1124v-385h164q258 0 258 203q0 99 -61 140.5t-197 41.5
h-164zM1167 -25h-266q-15 0 -22 13l-281 512h-164v-500q0 -11 -8.5 -18t-17.5 -7h-238q-11 0 -18 8t-7 17v1339q0 11 8.5 19t16.5 8h453q111 0 201 -22.5t163 -70t113.5 -132t40.5 -199.5q0 -147 -68.5 -248t-187.5 -149l305 -533q1 -2 2.5 -4t3 -8.5t0 -11.5t-8.5 -9
t-20 -4z" />
    <glyph glyph-name="rcaron" unicode="&#x159;" horiz-adv-x="763" 
d="M123 0v1006q0 11 9 17.5t18 6.5h194q21 0 25 -22l12 -113q116 160 272 160q75 0 125 -23q18 -11 15 -26l-41 -205q-2 -10 -11 -17.5t-22 -3.5q-52 15 -96 15q-58 0 -115.5 -44.5t-97.5 -140.5v-610q0 -11 -8 -18t-17 -7h-235q-11 0 -19 8.5t-8 16.5zM360 1159l-194 299
q-1 2 -3 4.5t-4 9.5t-1.5 12.5t7.5 10t21 4.5h162q13 0 21 -12l106 -150l107 150q7 10 20 10h164h5t9.5 -2t10.5 -5.5t3.5 -12t-8.5 -19.5l-194 -299q-6 -12 -21 -12h-190q-13 0 -21 12z" />
    <glyph glyph-name="Sacute" unicode="&#x15a;" horiz-adv-x="1116" 
d="M59 188l140 162q6 8 17 8.5t20 -6.5q71 -66 158 -105.5t171 -39.5q105 0 157 39.5t52 107.5q0 23 -4.5 41t-18 33.5t-25.5 26.5t-39.5 25t-46.5 22.5t-58 25.5l-185 80q-56 24 -102.5 55t-89.5 76t-67.5 108.5t-24.5 139.5q0 172 135.5 287t339.5 115q120 0 233.5 -47
t196.5 -130q7 -7 7.5 -17.5t-5.5 -16.5l-121 -152q-6 -8 -17 -9.5t-20 5.5q-66 55 -130.5 81.5t-143.5 26.5q-89 0 -137 -35t-48 -96q0 -25 11 -45.5t24 -34t44.5 -30.5t51 -25.5t66.5 -27.5l182 -76q135 -58 211 -150t76 -237q0 -179 -140 -300.5t-368 -121.5
q-140 0 -272 53.5t-230 149.5q-7 8 -6.5 18t6.5 16zM903 1661l-237 -238q-8 -8 -19 -8h-192h-5t-10.5 2.5t-11 6.5t-3 12.5t8.5 19.5l172 238q7 10 21 10h258q2 0 5.5 -0.5t11 -4t11.5 -7.5t2 -12.5t-12 -18.5z" />
    <glyph glyph-name="sacute" unicode="&#x15b;" horiz-adv-x="882" 
d="M29 129l110 152q7 8 17 10.5t20 -4.5q138 -107 262 -107q135 0 135 94q0 40 -48 69.5t-150 68.5q-47 17 -83.5 34t-79.5 45t-71 60t-47.5 78.5t-19.5 99.5q0 145 108.5 236.5t284.5 91.5q188 0 350 -127q9 -6 9.5 -18t-5.5 -19l-108 -143q-6 -9 -17 -10t-18 5
q-111 80 -207 80q-123 0 -123 -84q0 -16 9.5 -30.5t23.5 -25.5t42 -23.5t52 -21.5t66 -24q42 -16 70 -28t68 -33.5t66 -45t51 -56t37.5 -74.5t12.5 -92q0 -146 -111.5 -241t-304.5 -95q-105 0 -212 39.5t-185 103.5q-8 6 -9 16.5t5 18.5zM754 1456l-242 -299q-5 -8 -20 -8
h-177h-5t-10 2t-11 5.5t-4 12t8 19.5l184 299q6 12 23 12h233q2 0 5.5 -0.5t11 -3.5t11.5 -7t3 -12.5t-10 -19.5z" />
    <glyph glyph-name="Scircumflex" unicode="&#x15c;" horiz-adv-x="1116" 
d="M59 188l140 162q6 8 17 8.5t20 -6.5q71 -66 158 -105.5t171 -39.5q105 0 157 39.5t52 107.5q0 23 -4.5 41t-18 33.5t-25.5 26.5t-39.5 25t-46.5 22.5t-58 25.5l-185 80q-56 24 -102.5 55t-89.5 76t-67.5 108.5t-24.5 139.5q0 172 135.5 287t339.5 115q120 0 233.5 -47
t196.5 -130q7 -7 7.5 -17.5t-5.5 -16.5l-121 -152q-6 -8 -17 -9.5t-20 5.5q-66 55 -130.5 81.5t-143.5 26.5q-89 0 -137 -35t-48 -96q0 -25 11 -45.5t24 -34t44.5 -30.5t51 -25.5t66.5 -27.5l182 -76q135 -58 211 -150t76 -237q0 -179 -140 -300.5t-368 -121.5
q-140 0 -272 53.5t-230 149.5q-7 8 -6.5 18t6.5 16zM457 1415h-185q-2 0 -5.5 0.5t-11 3.5t-11 7t-2.5 12.5t10 19.5l197 238q5 8 20 8h229q16 0 21 -8l196 -238q1 -2 3 -5t4.5 -10t2 -13t-8 -10.5t-21.5 -4.5h-184q-11 0 -19 8l-108 117l-109 -117q-5 -8 -18 -8z" />
    <glyph glyph-name="scircumflex" unicode="&#x15d;" horiz-adv-x="882" 
d="M29 129l110 152q7 8 17 10.5t20 -4.5q138 -107 262 -107q135 0 135 94q0 40 -48 69.5t-150 68.5q-47 17 -83.5 34t-79.5 45t-71 60t-47.5 78.5t-19.5 99.5q0 145 108.5 236.5t284.5 91.5q188 0 350 -127q9 -6 9.5 -18t-5.5 -19l-108 -143q-6 -9 -17 -10t-18 5
q-111 80 -207 80q-123 0 -123 -84q0 -16 9.5 -30.5t23.5 -25.5t42 -23.5t52 -21.5t66 -24q42 -16 70 -28t68 -33.5t66 -45t51 -56t37.5 -74.5t12.5 -92q0 -146 -111.5 -241t-304.5 -95q-105 0 -212 39.5t-185 103.5q-8 6 -9 16.5t5 18.5zM156 1188l196 299q6 12 21 12h188
q13 0 21 -12l196 -299q1 -2 3 -4.5t4 -9.5t1.5 -12.5t-7.5 -10t-21 -4.5h-164q-13 0 -21 12l-106 150l-107 -150q-7 -10 -20 -10h-164h-5t-9.5 2t-10.5 5.5t-3.5 12t8.5 19.5z" />
    <glyph glyph-name="uni015E" unicode="&#x15e;" horiz-adv-x="1116" 
d="M600 836l182 -76q135 -58 211 -150t76 -237q0 -161 -113 -277.5t-303 -140.5l-16 -35q113 -54 113 -164q0 -56 -30.5 -99t-83.5 -68t-112.5 -39t-128.5 -19q-22 0 -26 20l-21 103q-2 10 4 19t19 10q76 9 114.5 27.5t38.5 41.5q0 42 -106 70q-31 10 -17 37l52 100
q-232 36 -394 195q-7 8 -6.5 18t6.5 16l140 162q6 8 17 8.5t20 -6.5q70 -66 157 -104.5t172 -38.5q105 0 157 39t52 106q0 23 -4.5 41t-18 33.5t-25.5 26.5t-39.5 25t-46.5 22.5t-58 25.5l-185 80q-56 24 -102.5 55t-89.5 76t-67.5 108.5t-24.5 139.5q0 172 135.5 287
t339.5 115q120 0 233.5 -47t196.5 -130q7 -7 7.5 -17.5t-5.5 -16.5l-121 -152q-6 -8 -17 -9.5t-20 5.5q-66 55 -130.5 81.5t-143.5 26.5q-90 0 -138.5 -35t-48.5 -96q0 -39 29 -69.5t58.5 -45t102.5 -44.5q6 -3 9 -4z" />
    <glyph glyph-name="uni015F" unicode="&#x15f;" horiz-adv-x="882" 
d="M821 893l-108 -143q-6 -9 -17 -10t-18 5q-111 80 -207 80q-121 0 -121 -84q0 -38 44 -63.5t147 -61.5q43 -16 70.5 -28t68 -33.5t66.5 -45t51.5 -56t38 -74.5t12.5 -92q0 -117 -76 -205.5t-209 -118.5l-20 -43q108 -50 108 -164q0 -56 -30 -99t-82.5 -68t-111.5 -39
t-128 -19q-24 0 -27 20l-18 103q-2 10 4.5 19t17.5 10q76 9 114 27.5t38 41.5q0 42 -106 70q-31 10 -17 37l49 96q-179 23 -321 139q-8 6 -9 16.5t5 18.5l110 152q7 8 17 10.5t20 -4.5q138 -107 262 -107q135 0 135 94q0 40 -48 69.5t-150 68.5q-47 17 -83.5 34t-79.5 45
t-71 60t-47.5 78.5t-19.5 99.5q0 145 108.5 236.5t284.5 91.5q188 0 350 -127q9 -6 9.5 -18t-5.5 -19z" />
    <glyph glyph-name="Scaron" unicode="&#x160;" horiz-adv-x="1116" 
d="M59 188l140 162q6 8 17 8.5t20 -6.5q71 -66 158 -105.5t171 -39.5q105 0 157 39.5t52 107.5q0 23 -4.5 41t-18 33.5t-25.5 26.5t-39.5 25t-46.5 22.5t-58 25.5l-185 80q-56 24 -102.5 55t-89.5 76t-67.5 108.5t-24.5 139.5q0 172 135.5 287t339.5 115q120 0 233.5 -47
t196.5 -130q7 -7 7.5 -17.5t-5.5 -16.5l-121 -152q-6 -8 -17 -9.5t-20 5.5q-66 55 -130.5 81.5t-143.5 26.5q-89 0 -137 -35t-48 -96q0 -25 11 -45.5t24 -34t44.5 -30.5t51 -25.5t66.5 -27.5l182 -76q135 -58 211 -150t76 -237q0 -179 -140 -300.5t-368 -121.5
q-140 0 -272 53.5t-230 149.5q-7 8 -6.5 18t6.5 16zM711 1704h184q2 0 5.5 -0.5t11 -3t11 -6.5t2.5 -12t-10 -19l-196 -238q-7 -10 -21 -10h-229q-13 0 -20 10l-197 238q-1 2 -3 4.5t-4.5 9.5t-2 12.5t8 10t21.5 4.5h185q12 0 18 -6l109 -117l108 117q4 6 19 6z" />
    <glyph glyph-name="scaron" unicode="&#x161;" horiz-adv-x="882" 
d="M29 129l110 152q7 8 17 10.5t20 -4.5q138 -107 262 -107q135 0 135 94q0 40 -48 69.5t-150 68.5q-47 17 -83.5 34t-79.5 45t-71 60t-47.5 78.5t-19.5 99.5q0 145 108.5 236.5t284.5 91.5q188 0 350 -127q9 -6 9.5 -18t-5.5 -19l-108 -143q-6 -9 -17 -10t-18 5
q-111 80 -207 80q-123 0 -123 -84q0 -16 9.5 -30.5t23.5 -25.5t42 -23.5t52 -21.5t66 -24q42 -16 70 -28t68 -33.5t66 -45t51 -56t37.5 -74.5t12.5 -92q0 -146 -111.5 -241t-304.5 -95q-105 0 -212 39.5t-185 103.5q-8 6 -9 16.5t5 18.5zM352 1159l-196 299q-1 2 -3 4.5
t-4 9.5t-1.5 12.5t7.5 10t21 4.5h164q12 0 20 -12l107 -150l106 150q8 12 21 12h164h5t9.5 -2.5t10.5 -6.5t3.5 -12.5t-8.5 -19.5l-196 -299q-6 -12 -21 -12h-188q-13 0 -21 12z" />
    <glyph glyph-name="uni0162" unicode="&#x162;" horiz-adv-x="1118" 
d="M678 -25h-23l-26 -55q112 -52 112 -164q0 -56 -30.5 -99t-83 -68t-112 -39t-128.5 -19q-10 0 -17.5 6t-9.5 14l-20 103q-4 26 22 29q76 9 115 27.5t39 41.5q0 42 -106 70q-31 10 -17 37l60 116h-13q-11 0 -18.5 8.5t-7.5 16.5v1114h-361q-11 0 -17.5 8t-6.5 17v200
q0 11 8 19t16 8h1012q11 0 18 -9t7 -18v-200q0 -11 -8 -18t-17 -7h-363v-1114q0 -11 -8 -18t-16 -7z" />
    <glyph glyph-name="uni0163" unicode="&#x163;" horiz-adv-x="739" 
d="M555 -47l-14 -33q110 -52 110 -164q0 -56 -30 -99t-82.5 -68t-112 -39t-129.5 -19q-24 0 -27 20l-18 103q-2 10 4.5 19t17.5 10q76 9 113 27.5t37 41.5q0 43 -102 70q-31 10 -17 37l57 112q-204 72 -204 369v455h-117q-11 0 -19 8t-8 16v176q0 10 8 17.5t17 7.5l135 10
l27 252q4 25 24 25h197q11 0 19 -9t8 -18v-248h229q11 0 19 -9t8 -17v-187q0 -11 -9 -17.5t-18 -6.5h-229v-455q0 -82 26.5 -117t87.5 -35q41 0 94 21q29 10 35 -16l41 -175q3 -9 -2 -18t-14 -12q-74 -26 -162 -35z" />
    <glyph glyph-name="Tcaron" unicode="&#x164;" horiz-adv-x="1118" 
d="M414 0v1114h-361q-11 0 -17.5 8t-6.5 17v200q0 11 8 19t16 8h1012q11 0 18 -9t7 -18v-200q0 -11 -8 -18t-17 -7h-363v-1114q0 -11 -8 -18t-16 -7h-238q-11 0 -18.5 8.5t-7.5 16.5zM686 1706h184q2 0 5.5 -0.5t11 -3.5t11.5 -7t3 -12.5t-10 -19.5l-197 -238q-5 -8 -20 -8
h-230q-15 0 -20 8l-197 238q-1 2 -3 5t-4 10t-1.5 13t8 10.5t21.5 4.5h184q11 0 19 -8l108 -117l109 117q5 8 18 8z" />
    <glyph glyph-name="tcaron" unicode="&#x165;" horiz-adv-x="739" 
d="M160 340l-2 455h-117q-11 0 -19 8t-8 16v176q0 10 8 17.5t17 7.5l135 10l27 252q4 25 24 25h197q11 0 17.5 -9t6.5 -18v-248h232q11 0 17.5 -8.5t6.5 -17.5v-187q0 -11 -7.5 -17.5t-16.5 -6.5h-232v-455q0 -82 28 -116t89 -34q47 0 94 19q29 10 35 -16l41 -175
q4 -23 -16 -30q-117 -37 -213 -37q-91 0 -158.5 28.5t-107.5 82t-59 122.5t-19 156zM655 1098h-106q-10 0 -17.5 7.5t-7.5 16.5l-8 445q0 11 7.5 18.5t17.5 7.5h155q10 0 17.5 -7.5t7.5 -18.5l-2 -129v-4l-39 -316q-3 -20 -25 -20z" />
    <glyph glyph-name="Utilde" unicode="&#x168;" horiz-adv-x="1341" 
d="M139 588v751q0 11 8 18t17 7h237q11 0 19 -8.5t8 -16.5v-770q0 -104 17 -176t51 -111.5t76 -56t100 -16.5t102 17t79.5 56.5t54 111.5t18.5 175v770q0 11 8 18t16 7h228q11 0 18.5 -8.5t7.5 -16.5v-751q0 -327 -139 -482t-393 -155q-253 0 -393 155t-140 482zM797 1421
q-53 0 -104 25.5t-87 50.5t-53 25q-39 0 -57 -80q-4 -21 -25 -21h-123q-10 0 -17.5 7t-6.5 22q12 124 71.5 199t149.5 75q53 0 104 -25t86.5 -50t52.5 -25q40 0 58 80q3 18 24 18h123q27 0 25 -26q-12 -123 -71.5 -199t-149.5 -76z" />
    <glyph glyph-name="utilde" unicode="&#x169;" horiz-adv-x="1138" 
d="M115 375l-2 631q0 11 8.5 17.5t17.5 6.5h236q11 0 17.5 -7.5t6.5 -16.5v-600q0 -117 30 -160t101 -43q56 0 99 27.5t98 95.5v680q0 11 9 17.5t18 6.5h235q11 0 18 -8t7 -16v-1006q0 -11 -8.5 -19t-16.5 -8h-192q-20 0 -25 23l-12 98q-136 -143 -311 -143q-170 0 -252 111
t-82 313zM233 1184q12 123 68.5 196.5t147.5 73.5q52 0 102 -24.5t85 -49t50 -24.5q33 0 47 78q1 9 9 14.5t16 5.5h127q26 0 24 -27q-12 -124 -68 -198t-147 -74q-41 0 -82 15.5t-67.5 33.5t-51 33.5t-36.5 15.5q-16 0 -27.5 -15t-21.5 -62q-4 -21 -25 -21h-125q-10 0 -18 7
t-7 22z" />
    <glyph glyph-name="Umacron" unicode="&#x16a;" horiz-adv-x="1341" 
d="M139 588v751q0 11 8 18t17 7h237q11 0 19 -8.5t8 -16.5v-770q0 -104 17 -176t51 -111.5t76 -56t100 -16.5t102 17t79.5 56.5t54 111.5t18.5 175v770q0 11 8 18t16 7h228q11 0 18.5 -8.5t7.5 -16.5v-751q0 -327 -139 -482t-393 -155q-253 0 -393 155t-140 482zM373 1483
v155q0 11 9 19t17 8h543q11 0 18 -9t7 -18v-155q0 -11 -8 -18t-17 -7h-543q-11 0 -18.5 8.5t-7.5 16.5z" />
    <glyph glyph-name="umacron" unicode="&#x16b;" horiz-adv-x="1138" 
d="M115 375l-2 631q0 11 8.5 17.5t17.5 6.5h236q11 0 17.5 -7.5t6.5 -16.5v-600q0 -117 30 -160t101 -43q56 0 99 27.5t98 95.5v680q0 11 9 17.5t18 6.5h235q11 0 18 -8t7 -16v-1006q0 -11 -8.5 -19t-16.5 -8h-192q-20 0 -25 23l-12 98q-136 -143 -311 -143q-170 0 -252 111
t-82 313zM272 1221v155q0 11 9 18t18 7h535q11 0 17.5 -8t6.5 -17v-155q0 -11 -8 -19t-16 -8h-535q-11 0 -19 9t-8 18z" />
    <glyph glyph-name="Ubreve" unicode="&#x16c;" horiz-adv-x="1341" 
d="M139 588v751q0 11 8 18t17 7h237q11 0 19 -8.5t8 -16.5v-770q0 -104 17 -176t51 -111.5t76 -56t100 -16.5t102 17t79.5 56.5t54 111.5t18.5 175v770q0 11 8 18t16 7h228q11 0 18.5 -8.5t7.5 -16.5v-751q0 -327 -139 -482t-393 -155q-253 0 -393 155t-140 482zM672 1417
q-132 0 -205 73t-86 187q-2 10 4 18.5t21 8.5h133q21 0 24 -18q18 -93 109 -93q88 0 106 93q3 18 25 18h135q10 0 18 -7t7 -22q-15 -114 -87.5 -186t-203.5 -72z" />
    <glyph glyph-name="ubreve" unicode="&#x16d;" horiz-adv-x="1138" 
d="M115 375l-2 631q0 11 8.5 17.5t17.5 6.5h236q11 0 17.5 -7.5t6.5 -16.5v-600q0 -117 30 -160t101 -43q56 0 99 27.5t98 95.5v680q0 11 9 17.5t18 6.5h235q11 0 18 -8t7 -16v-1006q0 -11 -8.5 -19t-16.5 -8h-192q-20 0 -25 23l-12 98q-136 -143 -311 -143q-170 0 -252 111
t-82 313zM571 1151q-72 0 -129.5 26t-92 69.5t-53.5 94.5t-22 107q0 10 7 18.5t18 8.5h137q9 0 16.5 -6t8.5 -15q8 -54 35.5 -86.5t74.5 -32.5t75 32.5t36 86.5q4 21 25 21h137q9 0 16.5 -7.5t7.5 -19.5q-3 -56 -22.5 -107t-54 -94.5t-91.5 -69.5t-129 -26z" />
    <glyph glyph-name="Uring" unicode="&#x16e;" horiz-adv-x="1341" 
d="M139 588v751q0 11 8 18t17 7h237q11 0 19 -8.5t8 -16.5v-770q0 -104 17 -176t51 -111.5t76 -56t100 -16.5t102 17t79.5 56.5t54 111.5t18.5 175v770q0 11 8 18t16 7h228q11 0 18.5 -8.5t7.5 -16.5v-751q0 -327 -139 -482t-393 -155q-253 0 -393 155t-140 482zM672 1405
q-103 0 -170.5 58.5t-67.5 156.5q0 97 67.5 157t170.5 60q101 0 168 -60t67 -157q0 -98 -66.5 -156.5t-168.5 -58.5zM672 1550q27 0 44 17.5t17 52.5q0 34 -17.5 53t-43.5 19q-29 0 -47.5 -19.5t-18.5 -52.5q0 -34 18 -52t48 -18z" />
    <glyph glyph-name="uring" unicode="&#x16f;" horiz-adv-x="1138" 
d="M115 375l-2 631q0 11 8.5 17.5t17.5 6.5h236q11 0 17.5 -7.5t6.5 -16.5v-600q0 -117 30 -160t101 -43q56 0 99 27.5t98 95.5v680q0 11 9 17.5t18 6.5h235q11 0 18 -8t7 -16v-1006q0 -11 -8.5 -19t-16.5 -8h-192q-20 0 -25 23l-12 98q-136 -143 -311 -143q-170 0 -252 111
t-82 313zM571 1090q-103 0 -170 63t-67 162q0 100 66.5 162.5t170.5 62.5t170 -62.5t66 -162.5q0 -99 -66.5 -162t-169.5 -63zM571 1235q26 0 45 21.5t19 58.5q0 38 -18.5 59t-45.5 21q-28 0 -47.5 -21t-19.5 -59q0 -36 20 -58t47 -22z" />
    <glyph glyph-name="Uhungarumlaut" unicode="&#x170;" horiz-adv-x="1341" 
d="M139 588v751q0 11 8 18t17 7h237q11 0 19 -8.5t8 -16.5v-770q0 -104 17 -176t51 -111.5t76 -56t100 -16.5t102 17t79.5 56.5t54 111.5t18.5 175v770q0 11 8 18t16 7h228q11 0 18.5 -8.5t7.5 -16.5v-751q0 -327 -139 -482t-393 -155q-253 0 -393 155t-140 482zM582 1417
h-164q0 1 -4.5 0t-10 1t-10 5t-4.5 11.5t6 19.5l133 238q7 14 23 14h207h5.5t10.5 -2.5t10.5 -6.5t3 -12.5t-9.5 -19.5l-176 -238q-7 -10 -20 -10zM741 1454l133 238q7 14 23 14h207h5.5t10.5 -2.5t10.5 -6.5t3 -12.5t-9.5 -19.5l-176 -238q-7 -10 -20 -10h-164q0 1 -4.5 0
t-10 1t-10 5t-4.5 11.5t6 19.5z" />
    <glyph glyph-name="uhungarumlaut" unicode="&#x171;" horiz-adv-x="1138" 
d="M115 375l-2 631q0 11 8.5 17.5t17.5 6.5h236q11 0 17.5 -7.5t6.5 -16.5v-600q0 -117 30 -160t101 -43q56 0 99 27.5t98 95.5v680q0 11 9 17.5t18 6.5h235q11 0 18 -8t7 -16v-1006q0 -11 -8.5 -19t-16.5 -8h-192q-20 0 -25 23l-12 98q-136 -143 -311 -143q-170 0 -252 111
t-82 313zM319 1182l142 301q6 16 22 16h195h5t10 -2.5t11 -6.5t4 -12.5t-8 -19.5l-186 -301q-6 -12 -22 -12h-150h-4.5t-9 1t-9 5t-5 11.5t4.5 19.5zM645 1182l143 301q8 16 23 16h193h5t10 -2.5t11 -6.5t4 -12.5t-8 -19.5l-186 -301q-6 -12 -23 -12h-149h-4.5t-9 1t-9 5
t-5 11.5t4.5 19.5z" />
    <glyph glyph-name="Uogonek" unicode="&#x172;" horiz-adv-x="1341" 
d="M139 588v751q0 11 8 18t17 7h237q11 0 19 -8.5t8 -16.5v-770q0 -104 17 -176.5t51 -112t76.5 -56.5t99.5 -17q58 0 102 17.5t79.5 57t54 112t18.5 175.5v770q0 11 8 18t16 7h228q11 0 18.5 -8.5t7.5 -16.5v-751q0 -139 -22.5 -241t-71 -173.5t-109.5 -118.5t-151 -90
q-68 -33 -102.5 -79.5t-34.5 -86.5q0 -59 65 -59q33 0 64 22q25 17 37 -10l57 -123q4 -8 2 -16.5t-8 -13.5q-39 -31 -96.5 -51.5t-108.5 -20.5q-102 0 -172 56.5t-70 156.5q0 113 99 217q-443 56 -443 631z" />
    <glyph glyph-name="uogonek" unicode="&#x173;" horiz-adv-x="1138" 
d="M115 375v631q0 11 8 18.5t16 7.5h236q11 0 18.5 -8.5t7.5 -17.5v-600q0 -117 29.5 -159t99.5 -42q57 0 101 27t98 94v680q0 11 8.5 18.5t16.5 7.5h235q11 0 19 -9t8 -17v-1006q0 -18 -17 -25q-161 -63 -161 -170q0 -29 17.5 -44t45.5 -15q34 0 62 21q3 3 9 5.5t15 -1
t14 -15.5l54 -110q4 -8 2 -17t-8 -14q-36 -31 -93.5 -48.5t-107.5 -17.5q-97 0 -161 54t-64 151q0 148 149 260l-12 80q-136 -143 -311 -143q-170 0 -252 111t-82 313z" />
    <glyph glyph-name="Wcircumflex" unicode="&#x174;" horiz-adv-x="1638" 
d="M279 -4l-267 1339q-3 9 1.5 20t23.5 11h244q8 0 15 -7.5t9 -15.5l117 -675q3 -20 22 -134t27 -174q39 201 64 310l163 676q1 9 9 14.5t16 5.5h207q9 0 15.5 -6t8.5 -14l164 -676q12 -54 33.5 -158.5t32.5 -153.5q2 14 20.5 131.5t26.5 178.5l117 675q1 9 8.5 16t15.5 7
h227q5 0 10.5 -1.5t11.5 -9t3 -20.5l-256 -1339q-1 -9 -9 -15t-16 -6h-294q-21 0 -25 19l-166 704q-18 86 -39 195q-3 -17 -41 -195l-162 -704q-3 -19 -24 -19h-289q-9 0 -15.5 6.5t-8.5 14.5zM692 1417h-184q-2 0 -5.5 0.5t-11 3t-11.5 6.5t-3 12t10 19l197 238q7 10 21 10
h229q13 0 20 -10l197 -238q1 -2 3 -4.5t4 -9.5t1.5 -12.5t-8 -10t-21.5 -4.5h-184q-12 0 -18 6l-109 117l-108 -117q-4 -6 -19 -6z" />
    <glyph glyph-name="wcircumflex" unicode="&#x175;" horiz-adv-x="1531" 
d="M291 -6l-266 1005l-1 5q-1 4 -0.5 8.5t2 9t7.5 7.5t16 3h238q9 0 15.5 -6t8.5 -14l121 -523q29 -143 35 -178q6 30 41 178l131 523q1 9 9 14.5t16 5.5h215q9 0 15.5 -6t8.5 -14l133 -523q19 -76 45 -188q17 93 35 188l121 523q1 9 9 14.5t16 5.5h221q32 0 24 -33
l-256 -1005q-3 -19 -24 -19h-281q-20 0 -24 19l-117 469q-14 60 -39 184q-6 -35 -41 -186l-115 -467q-3 -19 -24 -19h-271q-20 0 -24 19zM457 1188l194 299q6 12 21 12h190q13 0 21 -12l194 -299q1 -2 3 -4.5t4 -9.5t1.5 -12.5t-7.5 -10t-21 -4.5h-162q-13 0 -21 12
l-106 150l-106 -150q-7 -10 -21 -10h-164h-5t-9.5 2t-10.5 5.5t-3.5 12t8.5 19.5z" />
    <glyph glyph-name="Ycircumflex" unicode="&#x176;" horiz-adv-x="1026" 
d="M369 0v492l-400 837l-2 4t-2.5 8.5t0 11.5t8 9t19.5 4h254q16 0 24 -16l146 -342q37 -96 98 -248q63 147 102 248l146 342q6 14 24 14h248h4.5t9 -0.5t9 -4.5t5 -11t-4.5 -19l-400 -837v-492q0 -11 -8.5 -18t-17.5 -7h-238q-11 0 -17.5 8t-6.5 17zM385 1417h-184
q-2 0 -5.5 0.5t-11 3t-11.5 6.5t-3 12t10 19l197 238q7 10 20 10h230q13 0 20 -10l197 -238q1 -2 3 -4.5t4 -9.5t1.5 -12.5t-8 -10t-21.5 -4.5h-184q-12 0 -18 6l-109 117l-109 -117q-4 -6 -18 -6z" />
    <glyph glyph-name="ycircumflex" unicode="&#x177;" horiz-adv-x="1013" 
d="M104 -203q4 17 19 18t41 -5.5t37 -6.5q125 0 176 154l16 53l-393 985q-1 2 -1.5 4t-1 8.5t1 11.5t8.5 9t18 4h239q9 0 16 -6t9 -12l174 -494q13 -37 34 -110t31 -103q10 40 30 110.5t28 100.5l151 496q7 18 25 18h227h4t8.5 -1.5t9 -5t5.5 -10.5t-2 -18l-365 -1050
q-33 -91 -70.5 -157.5t-89 -120t-119.5 -80.5t-153 -27q-74 0 -139 20q-9 3 -14 12.5t-3 18.5zM213 1188l195 299q5 10 20 10h190q14 0 21 -10l195 -299q1 -2 2.5 -4.5t4 -9.5t1.5 -12.5t-8 -10t-21 -4.5h-164q-12 0 -20 12l-107 150l-106 -150q-8 -12 -21 -12h-162h-5
t-9.5 2.5t-10.5 6.5t-3.5 12.5t8.5 19.5z" />
    <glyph glyph-name="Ydieresis" unicode="&#x178;" horiz-adv-x="1026" 
d="M369 0v492l-400 837l-2 4t-2.5 8.5t0 11.5t8 9t19.5 4h254q16 0 24 -16l146 -342q37 -96 98 -248q63 147 102 248l146 342q6 14 24 14h248h4.5t9 -0.5t9 -4.5t5 -11t-4.5 -19l-400 -837v-492q0 -11 -8.5 -18t-17.5 -7h-238q-11 0 -17.5 8t-6.5 17zM324 1425
q-64 0 -106 41.5t-42 104.5q0 65 42 107t106 42q63 0 105 -42.5t42 -106.5q0 -63 -42 -104.5t-105 -41.5zM702 1425q-64 0 -104.5 41.5t-40.5 104.5q0 64 40.5 106.5t104.5 42.5q65 0 107.5 -42.5t42.5 -106.5q0 -63 -42.5 -104.5t-107.5 -41.5z" />
    <glyph glyph-name="Zacute" unicode="&#x179;" horiz-adv-x="1105" 
d="M57 0v143q0 7 4 15l621 956h-541q-11 0 -18.5 8.5t-7.5 16.5v200q0 11 9 19t17 8h883q11 0 18 -9t7 -18v-143q0 -4 -5 -14l-622 -955h606q11 0 18 -8.5t7 -17.5v-201q0 -11 -8 -18t-17 -7h-946q-11 0 -18 8t-7 17zM897 1661l-240 -238q-6 -6 -18 -6h-190h-5t-10.5 2
t-11 5.5t-3 12t8.5 19.5l172 238q7 10 21 10h258q2 0 5.5 -1t10.5 -4t11 -7.5t2.5 -12.5t-11.5 -18z" />
    <glyph glyph-name="zacute" unicode="&#x17a;" horiz-adv-x="907" 
d="M45 0v127q0 6 4 14l447 654h-373q-11 0 -18 8t-7 16v187q0 11 8.5 18.5t16.5 7.5h717q11 0 17.5 -8.5t6.5 -17.5v-125q0 -7 -4 -15l-444 -651h440q11 0 18 -9t7 -18v-188q0 -11 -8 -18t-17 -7h-786q-11 0 -18 8t-7 17zM774 1456l-244 -299q-5 -8 -20 -8h-174h-5t-10 2
t-11 5.5t-4 12t7 19.5l183 299q6 12 22 12h236q2 0 5.5 -0.5t11 -3.5t11 -7t2.5 -12.5t-10 -19.5z" />
    <glyph glyph-name="Zdotaccent" unicode="&#x17b;" horiz-adv-x="1105" 
d="M57 0v143q0 7 4 15l621 956h-541q-11 0 -18.5 8.5t-7.5 16.5v200q0 11 9 19t17 8h883q11 0 18 -9t7 -18v-143q0 -4 -5 -14l-622 -955h606q11 0 18 -8.5t7 -17.5v-201q0 -11 -8 -18t-17 -7h-946q-11 0 -18 8t-7 17zM578 1421q-73 0 -122.5 46t-49.5 116q0 69 49.5 113.5
t122.5 44.5t121.5 -44t48.5 -114t-49 -116t-121 -46z" />
    <glyph glyph-name="zdotaccent" unicode="&#x17c;" horiz-adv-x="907" 
d="M45 0v127q0 6 4 14l447 654h-373q-11 0 -18 8t-7 16v187q0 11 8.5 18.5t16.5 7.5h717q11 0 17.5 -8.5t6.5 -17.5v-125q0 -7 -4 -15l-444 -651h440q11 0 18 -9t7 -18v-188q0 -11 -8 -18t-17 -7h-786q-11 0 -18 8t-7 17zM485 1157q-70 0 -118 45t-48 115q0 68 48 114
t118 46q71 0 117.5 -45.5t46.5 -114.5q0 -70 -46.5 -115t-117.5 -45z" />
    <glyph glyph-name="Zcaron" unicode="&#x17d;" horiz-adv-x="1105" 
d="M57 0v143q0 7 4 15l621 956h-541q-11 0 -18.5 8.5t-7.5 16.5v200q0 11 9 19t17 8h883q11 0 18 -9t7 -18v-143q0 -4 -5 -14l-622 -955h606q11 0 18 -8.5t7 -17.5v-201q0 -11 -8 -18t-17 -7h-946q-11 0 -18 8t-7 17zM705 1704l184 2q2 0 5.5 -0.5t11 -3.5t11 -7t2.5 -12.5
t-10 -19.5l-196 -238q-7 -10 -21 -10h-229q-14 0 -21 10l-196 238q-1 2 -3 4.5t-4.5 9.5t-2 12.5t8 10t21.5 4.5h185q12 0 18 -6l109 -117l108 117q4 6 19 6z" />
    <glyph glyph-name="zcaron" unicode="&#x17e;" horiz-adv-x="907" 
d="M45 0v127q0 6 4 14l447 654h-373q-11 0 -18 8t-7 16v187q0 11 8.5 18.5t16.5 7.5h717q11 0 17.5 -8.5t6.5 -17.5v-125q0 -7 -4 -15l-444 -651h440q11 0 18 -9t7 -18v-188q0 -11 -8 -18t-17 -7h-786q-11 0 -18 8t-7 17zM371 1159l-195 299q-1 2 -2.5 4.5t-4 9.5t-1.5 12.5
t8 10t21 4.5h161q13 0 21 -12l106 -150l107 150q8 12 20 12h164h5t10 -2.5t10.5 -6.5t3.5 -12.5t-8 -19.5l-195 -299q-5 -10 -20 -10h-191q-13 0 -20 10z" />
    <glyph glyph-name="uni0180" unicode="&#x180;" horiz-adv-x="1142" 
d="M410 672v-406q86 -69 178 -69t150.5 75.5t58.5 223.5q0 274 -191 274q-92 0 -196 -98zM410 1032l-4 -112q135 96 264 96q199 0 311.5 -141.5t112.5 -374.5q0 -125 -37.5 -230t-101 -174t-146 -107t-172.5 -38q-139 0 -264 106l-13 -61q-1 -9 -8.5 -15t-15.5 -6h-186
q-11 0 -19 8.5t-8 16.5v1130h-119q-11 0 -19 8.5t-8 16.5v111q0 10 8 17t17 7l121 10v146q0 11 9 17.5t18 6.5h235q11 0 18 -8t7 -16v-143h335q11 0 18 -9t7 -18v-121q0 -11 -8 -18t-17 -7h-335v-98z" />
    <glyph glyph-name="uni018F" unicode="&#x18f;" horiz-adv-x="1368" 
d="M997 537h-614q18 -166 97.5 -253t201.5 -87q121 0 205 88.5t110 251.5zM336 1026l-111 162q-14 17 2 33q82 77 200 122.5t263 45.5q274 0 439 -193.5t165 -523.5q0 -328 -169.5 -524.5t-442.5 -196.5q-269 0 -432.5 195t-163.5 518q0 2 6 77q0 9 8 17t17 8h884
q-19 188 -103.5 283.5t-231.5 95.5q-163 0 -293 -123q-23 -17 -37 4z" />
    <glyph glyph-name="uni0192" unicode="&#x192;" horiz-adv-x="1050" 
d="M1004 1321l-48 -178q-2 -10 -10.5 -17t-21.5 -2q-4 1 -16.5 6t-19 7.5t-17.5 5.5t-22 4.5t-22 1.5q-120 0 -143 -188l-10 -93h205q11 0 17.5 -8.5t6.5 -17.5v-174q0 -11 -8 -18t-16 -7h-232l-47 -414q-12 -100 -35.5 -176.5t-66.5 -141.5t-115 -99.5t-170 -34.5
q-122 3 -176 35q-16 9 -12 28l36 174q9 28 35 17q38 -15 84 -15q47 1 75 24.5t47 84t32 172.5l37 346h-138q-11 0 -17.5 8t-6.5 17v163q0 10 6.5 17.5t15.5 7.5l148 10l2 2h16l9 76q25 226 120.5 335.5t284.5 109.5q94 0 178 -39q19 -9 15 -29z" />
    <glyph glyph-name="Ohorn" unicode="&#x1a0;" horiz-adv-x="1380" 
d="M694 209q145 0 233.5 124.5t88.5 342.5q0 215 -88 334.5t-234 119.5q-145 0 -232 -119t-87 -335q0 -218 87 -342.5t232 -124.5zM1073 1542l164 74q20 8 31 -6q57 -75 57 -164q0 -175 -188 -244q172 -193 172 -526q0 -331 -169.5 -528t-445.5 -197q-277 0 -447.5 197
t-170.5 528q0 328 170 521.5t448 193.5q150 0 281 -64q64 13 89.5 36.5t25.5 66.5q0 31 -27 75q-17 26 10 37z" />
    <glyph glyph-name="ohorn" unicode="&#x1a1;" horiz-adv-x="1124" 
d="M561 195q97 0 155 81.5t58 225.5q0 145 -58 227t-155 82t-154 -81.5t-57 -227.5q0 -144 57 -225.5t154 -81.5zM846 1229l164 76q19 8 30 -7q60 -70 60 -165q0 -87 -47.5 -146.5t-124.5 -91.5q139 -155 139 -393q0 -126 -41.5 -231.5t-111.5 -174.5t-161.5 -107
t-191.5 -38q-99 0 -190 38t-161 107t-111.5 174.5t-41.5 231.5q0 127 41.5 233t111.5 175.5t161 108t190 38.5q104 0 197 -41q55 11 80.5 34.5t25.5 65.5q0 36 -28 76q-17 25 10 37z" />
    <glyph glyph-name="Uhorn" unicode="&#x1af;" horiz-adv-x="1374" 
d="M1190 1583l164 74q20 8 30 -6q58 -77 58 -164q0 -108 -65.5 -171t-172.5 -89v-639q0 -328 -139 -483.5t-393 -155.5q-253 0 -393 156t-140 483v751q0 11 8 18t17 7h237q11 0 19 -8.5t8 -16.5v-770q0 -104 17 -176.5t51 -112t76.5 -56.5t99.5 -17q58 0 102 17.5t79.5 57
t54 112t18.5 175.5v770q0 11 8 18t16 7h105q76 5 112.5 28.5t36.5 77.5q0 37 -24 76q-17 26 10 37z" />
    <glyph glyph-name="uhorn" unicode="&#x1b0;" horiz-adv-x="1138" 
d="M952 1249l164 76q20 8 31 -6q57 -75 57 -166q0 -93 -54 -153.5t-136 -90.5v-909q0 -11 -8 -18t-17 -7h-192q-21 0 -25 21l-12 98q-136 -143 -311 -143q-170 0 -252 111t-82 313v631q0 11 8 18.5t16 7.5h236q11 0 18.5 -8.5t7.5 -17.5v-600q0 -117 29.5 -159t99.5 -42
q57 0 101 27t98 94v680q0 11 8.5 18.5t16.5 7.5h69q71 5 107.5 28t36.5 77q0 34 -25 75q-18 25 10 37z" />
    <glyph glyph-name="uni01CD" unicode="&#x1cd;" horiz-adv-x="1142" 
d="M682 1417h-229q-16 0 -21 8l-196 238q-1 2 -3 5t-4.5 10t-2 13t8 10.5t21.5 4.5h184q11 0 19 -8l108 -117l109 117q5 8 18 8h185q2 0 5.5 -0.5t11 -3.5t11 -7t2.5 -12.5t-10 -19.5l-197 -238q-5 -8 -20 -8zM430 575h277l-140 498zM872 -6l-98 344h-414l-98 -344
q-8 -19 -24 -19h-242h-4t-8.5 1t-9 4.5t-5.5 10t2 17.5l437 1340q7 18 24 18h279q17 0 24 -18l436 -1340q1 -1 1.5 -3.5t1 -8t-1 -10t-8 -8t-17.5 -3.5h-250q-21 0 -25 19z" />
    <glyph glyph-name="uni01CE" unicode="&#x1ce;" horiz-adv-x="1071" 
d="M82 270q0 172 145 266t445 130q-7 72 -42.5 110.5t-113.5 38.5q-114 0 -270 -96q-23 -11 -35 10l-86 158q-4 9 -2 19.5t10 15.5q212 135 426 135q198 0 300 -120.5t102 -340.5v-596q0 -11 -9 -18t-18 -7h-193q-9 0 -15.5 6t-8.5 15l-12 72q-152 -117 -299 -117
q-142 0 -233 88.5t-91 230.5zM362 289q0 -105 117 -105q50 0 95 24t100 73v186q-121 -18 -192.5 -46.5t-95.5 -59.5t-24 -72zM449 1159l-197 299q-1 2 -3 4.5t-4 9t-1.5 12t7.5 9.5t21 4h164q14 0 21 -10l106 -150l107 150q7 10 20 10h164h5t9.5 -2t10.5 -5.5t3.5 -12
t-8.5 -19.5l-196 -299q-6 -12 -21 -12h-188q-12 0 -20 12z" />
    <glyph glyph-name="uni01CF" unicode="&#x1cf;" horiz-adv-x="577" 
d="M143 0v1339q0 11 9 18t18 7h238q11 0 17.5 -8t6.5 -17v-1339q0 -11 -8 -18t-16 -7h-238q-11 0 -19 8.5t-8 16.5zM416 1706h184q2 0 5.5 -0.5t11 -3.5t11.5 -7t3 -12.5t-10 -19.5l-197 -238q-5 -8 -21 -8h-229q-15 0 -20 8l-197 238q-1 2 -3 5t-4.5 10t-2 13t8 10.5
t21.5 4.5h185q10 0 18 -8l109 -117l108 117q5 8 19 8z" />
    <glyph glyph-name="uni01D0" unicode="&#x1d0;" horiz-adv-x="536" 
d="M123 0v1006q0 11 9 18.5t18 7.5h235q11 0 18 -8.5t7 -17.5v-1006q0 -11 -8 -18t-17 -7h-235q-11 0 -19 8.5t-8 16.5zM152 1159l-195 299q-1 2 -3 4.5t-4 9.5t-1.5 12.5t7.5 10t21 4.5h164q13 0 21 -12l106 -150l107 150q8 12 20 12h162h5t10 -2.5t10.5 -6.5t3.5 -12.5
t-8 -19.5l-195 -299q-6 -12 -21 -12h-190q-12 0 -20 12z" />
    <glyph glyph-name="uni01D1" unicode="&#x1d1;" horiz-adv-x="1380" 
d="M690 -49q-276 0 -446 197.5t-170 527.5q0 328 169.5 520.5t446.5 192.5q278 0 448.5 -192.5t170.5 -520.5q0 -330 -171 -527.5t-448 -197.5zM690 209q145 0 233.5 124.5t88.5 342.5q0 215 -88 334.5t-234 119.5t-233.5 -119.5t-87.5 -334.5q0 -218 88 -342.5t233 -124.5z
M817 1706h184q2 0 5.5 -0.5t11 -3.5t11.5 -7t3 -12.5t-10 -19.5l-197 -238q-5 -8 -20 -8h-230q-15 0 -20 8l-197 238q-1 2 -3 5t-4 10t-1.5 13t8 10.5t21.5 4.5h184q11 0 19 -8l108 -117l109 117q5 8 18 8z" />
    <glyph glyph-name="uni01D2" unicode="&#x1d2;" horiz-adv-x="1124" 
d="M57 502q0 127 41.5 232.5t111.5 175t160.5 107.5t190.5 38t191 -38t161.5 -107.5t112 -175t41.5 -232.5q0 -126 -41.5 -231.5t-111.5 -174.5t-161.5 -107t-191.5 -38q-99 0 -190 38t-161 107t-111.5 174.5t-41.5 231.5zM350 502q0 -144 57 -225.5t154 -81.5t155 81.5
t58 225.5q0 145 -58 227t-155 82t-154 -81.5t-57 -227.5zM446 1159l-194 299q-1 2 -3 4.5t-4 9.5t-1.5 12.5t7.5 10t21 4.5h162q13 0 21 -12l106 -150l107 150q8 12 20 12h164h5t9.5 -2.5t10.5 -6.5t3.5 -12.5t-8.5 -19.5l-194 -299q-6 -12 -21 -12h-190q-13 0 -21 12z" />
    <glyph glyph-name="uni01D3" unicode="&#x1d3;" horiz-adv-x="1341" 
d="M139 588v751q0 11 8 18t17 7h237q11 0 19 -8.5t8 -16.5v-770q0 -104 17 -176t51 -111.5t76 -56t100 -16.5t102 17t79.5 56.5t54 111.5t18.5 175v770q0 11 8 18t16 7h228q11 0 18.5 -8.5t7.5 -16.5v-751q0 -327 -139 -482t-393 -155q-253 0 -393 155t-140 482zM799 1706
h184q2 0 5.5 -0.5t11 -3.5t11.5 -7t3 -12.5t-10 -19.5l-197 -238q-5 -8 -21 -8h-229q-15 0 -20 8l-197 238q-1 2 -3 5t-4.5 10t-2 13t8 10.5t21.5 4.5h185q10 0 18 -8l109 -117l108 117q5 8 19 8z" />
    <glyph glyph-name="uni01D4" unicode="&#x1d4;" horiz-adv-x="1138" 
d="M115 375l-2 631q0 11 8.5 17.5t17.5 6.5h236q11 0 17.5 -7.5t6.5 -16.5v-600q0 -117 30 -160t101 -43q56 0 99 27.5t98 95.5v680q0 11 9 17.5t18 6.5h235q11 0 18 -8t7 -16v-1006q0 -11 -8.5 -19t-16.5 -8h-192q-20 0 -25 23l-12 98q-136 -143 -311 -143q-170 0 -252 111
t-82 313zM455 1159l-195 299q-1 2 -2.5 4.5t-4 9.5t-1.5 12.5t8 10t21 4.5h163q13 0 21 -12l106 -150l107 150q7 10 20 10h162h5t10 -2t10.5 -5.5t3.5 -12t-8 -19.5l-195 -299q-6 -12 -20 -12h-191q-12 0 -20 12z" />
    <glyph glyph-name="uni01D5" unicode="&#x1d5;" horiz-adv-x="1341" 
d="M139 588v751q0 11 8 18t17 7h237q11 0 19 -8.5t8 -16.5v-770q0 -104 17 -176t51 -111.5t76 -56t100 -16.5t102 17t79.5 56.5t54 111.5t18.5 175v770q0 11 8 18t16 7h228q11 0 18.5 -8.5t7.5 -16.5v-751q0 -327 -139 -482t-393 -155q-253 0 -393 155t-140 482zM373 1774
v118q0 11 9 19t17 8h543q11 0 18 -9t7 -18v-118q0 -11 -8 -18t-17 -7h-543q-11 0 -18.5 8.5t-7.5 16.5zM481 1425q-58 0 -97.5 38t-39.5 96q0 59 39 98t98 39q58 0 95.5 -39.5t37.5 -97.5q0 -59 -37.5 -96.5t-95.5 -37.5zM860 1425q-59 0 -97 38t-38 96t38.5 97.5t96.5 39.5
q59 0 97 -39t38 -98q0 -58 -38 -96t-97 -38z" />
    <glyph glyph-name="uni01D6" unicode="&#x1d6;" horiz-adv-x="1138" 
d="M115 375l-2 631q0 11 8.5 17.5t17.5 6.5h236q11 0 17.5 -7.5t6.5 -16.5v-600q0 -117 30 -160t101 -43q56 0 99 27.5t98 95.5v680q0 11 9 17.5t18 6.5h235q11 0 18 -8t7 -16v-1006q0 -11 -8.5 -19t-16.5 -8h-192q-20 0 -25 23l-12 98q-136 -143 -311 -143q-170 0 -252 111
t-82 313zM381 1159q-58 0 -97.5 40t-39.5 97t39.5 95.5t97.5 38.5t96.5 -38.5t38.5 -95.5q0 -58 -38.5 -97.5t-96.5 -39.5zM762 1159q-59 0 -98 40t-39 97t38.5 95.5t98.5 38.5q58 0 95.5 -38.5t37.5 -95.5t-38 -97t-95 -40zM276 1542v119q0 11 9 18t18 7h535q11 0 17.5 -8
t6.5 -17v-119q0 -11 -8 -18.5t-16 -7.5h-535q-11 0 -19 9t-8 17z" />
    <glyph glyph-name="uni01D7" unicode="&#x1d7;" horiz-adv-x="1341" 
d="M139 588v751q0 11 8 18t17 7h237q11 0 19 -8.5t8 -16.5v-770q0 -104 17 -176t51 -111.5t76 -56t100 -16.5t102 17t79.5 56.5t54 111.5t18.5 175v770q0 11 8 18t16 7h228q11 0 18.5 -8.5t7.5 -16.5v-751q0 -327 -139 -482t-393 -155q-253 0 -393 155t-140 482zM520 1747
l176 238q8 12 21 12h250q2 0 5.5 -1t10.5 -4.5t11 -8t2.5 -13t-11.5 -18.5l-235 -238q-6 -6 -19 -6h-190h-5.5t-10.5 2t-11 5.5t-3.5 12t9.5 19.5zM481 1425q-58 0 -97.5 38t-39.5 96q0 59 39 98t98 39q58 0 95.5 -39.5t37.5 -97.5q0 -59 -37.5 -96.5t-95.5 -37.5zM860 1425
q-59 0 -97 38t-38 96t38.5 97.5t96.5 39.5q59 0 97 -39t38 -98q0 -58 -38 -96t-97 -38z" />
    <glyph glyph-name="uni01D8" unicode="&#x1d8;" horiz-adv-x="1138" 
d="M115 375l-2 631q0 11 8.5 17.5t17.5 6.5h236q11 0 17.5 -7.5t6.5 -16.5v-600q0 -117 30 -160t101 -43q56 0 99 27.5t98 95.5v680q0 11 9 17.5t18 6.5h235q11 0 18 -8t7 -16v-1006q0 -11 -8.5 -19t-16.5 -8h-192q-20 0 -25 23l-12 98q-136 -143 -311 -143q-170 0 -252 111
t-82 313zM426 1509l170 220q5 8 20 8h211q2 0 5.5 -1t11 -4t11.5 -7.5t2.5 -12.5t-11.5 -18l-225 -219q-9 -9 -19 -9h-156q-2 0 -5.5 0.5t-10.5 3t-10.5 6.5t-3 13t9.5 20zM381 1159q-58 0 -97.5 40t-39.5 97t39.5 95.5t97.5 38.5t96.5 -38.5t38.5 -95.5q0 -58 -38.5 -97.5
t-96.5 -39.5zM762 1159q-59 0 -98 40t-39 97t38.5 95.5t98.5 38.5q58 0 95.5 -38.5t37.5 -95.5t-38 -97t-95 -40z" />
    <glyph glyph-name="uni01D9" unicode="&#x1d9;" horiz-adv-x="1341" 
d="M139 588v751q0 11 8 18t17 7h237q11 0 19 -8.5t8 -16.5v-770q0 -104 17 -176t51 -111.5t76 -56t100 -16.5t102 17t79.5 56.5t54 111.5t18.5 175v770q0 11 8 18t16 7h228q11 0 18.5 -8.5t7.5 -16.5v-751q0 -327 -139 -482t-393 -155q-253 0 -393 155t-140 482zM481 1425
q-58 0 -97.5 38t-39.5 96q0 59 39 98t98 39q58 0 95.5 -39.5t37.5 -97.5q0 -59 -37.5 -96.5t-95.5 -37.5zM860 1425q-59 0 -97 38t-38 96t38.5 97.5t96.5 39.5q59 0 97 -39t38 -98q0 -58 -38 -96t-97 -38zM799 1997h184q2 0 5.5 -0.5t11 -3.5t11.5 -7t3 -12.5t-10 -19.5
l-197 -238q-5 -8 -21 -8h-229q-15 0 -20 8l-197 238q-1 2 -3 5t-4.5 10t-2 13t8 10.5t21.5 4.5h185q10 0 18 -8l109 -117l108 117q5 8 19 8z" />
    <glyph glyph-name="uni01DA" unicode="&#x1da;" horiz-adv-x="1138" 
d="M115 375l-2 631q0 11 8.5 17.5t17.5 6.5h236q11 0 17.5 -7.5t6.5 -16.5v-600q0 -117 30 -160t101 -43q56 0 99 27.5t98 95.5v680q0 11 9 17.5t18 6.5h235q11 0 18 -8t7 -16v-1006q0 -11 -8.5 -19t-16.5 -8h-192q-20 0 -25 23l-12 98q-136 -143 -311 -143q-170 0 -252 111
t-82 313zM451 1477l-181 219q-1 2 -3 4.5t-4 9.5t-1.5 12.5t8 10t21.5 4.5h164q10 0 18 -8l98 -107l97 107q5 8 18 8h166q2 0 5.5 -0.5t11 -3t11 -6.5t2.5 -12t-10 -19l-180 -219q-7 -11 -20 -11h-201q-13 0 -20 11zM381 1159q-58 0 -97.5 40t-39.5 97t39.5 95.5t97.5 38.5
t96.5 -38.5t38.5 -95.5q0 -58 -38.5 -97.5t-96.5 -39.5zM762 1159q-59 0 -98 40t-39 97t38.5 95.5t98.5 38.5q58 0 95.5 -38.5t37.5 -95.5t-38 -97t-95 -40z" />
    <glyph glyph-name="uni01DB" unicode="&#x1db;" horiz-adv-x="1341" 
d="M139 588v751q0 11 8 18t17 7h237q11 0 19 -8.5t8 -16.5v-770q0 -104 17 -176t51 -111.5t76 -56t100 -16.5t102 17t79.5 56.5t54 111.5t18.5 175v770q0 11 8 18t16 7h228q11 0 18.5 -8.5t7.5 -16.5v-751q0 -327 -139 -482t-393 -155q-253 0 -393 155t-140 482zM647 1985
l174 -238q1 -2 3 -4.5t4.5 -9.5t2 -12.5t-8 -10t-21.5 -4.5h-191q-10 0 -18 8l-236 238q-1 2 -3 5t-5 10t-2 13t8 10.5t21 4.5h252q13 0 20 -10zM860 1423q-58 0 -96.5 38.5t-38.5 97.5q0 57 38.5 96t96.5 39q60 0 97.5 -38t37.5 -97t-38.5 -97.5t-96.5 -38.5zM481 1423
q-57 0 -97 39t-40 97t39 96.5t98 38.5q58 0 95.5 -38.5t37.5 -96.5q0 -59 -37.5 -97.5t-95.5 -38.5z" />
    <glyph glyph-name="uni01DC" unicode="&#x1dc;" horiz-adv-x="1138" 
d="M115 375l-2 631q0 11 8.5 17.5t17.5 6.5h236q11 0 17.5 -7.5t6.5 -16.5v-600q0 -117 30 -160t101 -43q56 0 99 27.5t98 95.5v680q0 11 9 17.5t18 6.5h235q11 0 18 -8t7 -16v-1006q0 -11 -8.5 -19t-16.5 -8h-192q-20 0 -25 23l-12 98q-136 -143 -311 -143q-170 0 -252 111
t-82 313zM547 1729l168 -220q1 -2 3 -5t4 -10t1.5 -13t-8 -10.5t-21.5 -4.5h-155q-10 0 -19 9l-223 219q-1 2 -3 5t-4.5 10t-2 13t7 10.5t20.5 4.5h211q16 0 21 -8zM762 1159q-59 0 -98 40t-39 97t38.5 95.5t98.5 38.5q58 0 95.5 -38.5t37.5 -95.5t-38 -97t-95 -40z
M381 1159q-58 0 -97.5 40t-39.5 97t39.5 95.5t97.5 38.5t96.5 -38.5t38.5 -95.5q0 -58 -38.5 -97.5t-96.5 -39.5z" />
    <glyph glyph-name="Gcaron" unicode="&#x1e6;" horiz-adv-x="1286" 
d="M74 666q0 166 51 303t140 228.5t211 141.5t263 50q245 0 418 -177q7 -8 6.5 -18t-6.5 -16l-131 -148q-6 -8 -17 -8.5t-20 6.5q-55 52 -110 77t-138 25q-169 0 -270.5 -121.5t-101.5 -336.5q0 -224 98.5 -343.5t286.5 -119.5q106 0 168 45v250h-230q-11 0 -17.5 8.5
t-6.5 17.5v195q0 11 8 18t16 7h467q11 0 19 -8.5t8 -16.5v-590q0 -10 -8 -18q-76 -75 -195.5 -120.5t-257.5 -45.5q-139 0 -258 48t-206.5 137.5t-137 225.5t-49.5 304zM864 1706h185q2 0 5.5 -0.5t11 -3.5t11 -7t2.5 -12.5t-10 -19.5l-197 -238q-5 -8 -20 -8h-229
q-16 0 -21 8l-196 238q-1 2 -3 5t-4.5 10t-2 13t8 10.5t21.5 4.5h184q11 0 19 -8l108 -117l109 117q5 8 18 8z" />
    <glyph glyph-name="gcaron" unicode="&#x1e7;" horiz-adv-x="1064" 
d="M305 -147q0 -53 58.5 -86t173.5 -33q111 0 178 43t67 94q0 41 -32.5 58.5t-118.5 17.5h-137q-88 0 -132 10q-57 -49 -57 -104zM57 -182q0 127 129 219q-75 65 -75 172q0 105 100 190q-54 48 -87.5 118t-33.5 153q0 119 60 209t154.5 134t207.5 44q75 0 152 -25h356
q11 0 19 -9t8 -17v-175q0 -11 -9 -17.5t-18 -6.5h-137q37 -66 37 -145q0 -173 -116.5 -270t-291.5 -97q-63 0 -131 22q-29 -25 -29 -67q0 -33 27 -49.5t110 -16.5h179q393 0 393 -274q0 -166 -156.5 -273.5t-404.5 -107.5q-125 0 -222.5 30t-159 96.5t-61.5 162.5zM512 494
q64 0 107 46t43 130q0 82 -42.5 128t-107.5 46q-66 0 -108 -45.5t-42 -128.5q0 -85 42 -130.5t108 -45.5zM387 1159l-194 299q-1 2 -3 4.5t-4 9.5t-1.5 12.5t7.5 10t21 4.5h164q12 0 20 -12l107 -150l106 150q8 12 21 12h162h5t9.5 -2.5t10.5 -6.5t3.5 -12.5t-8.5 -19.5
l-195 -299q-5 -10 -20 -10h-190q-14 0 -21 10z" />
    <glyph glyph-name="uni01EA" unicode="&#x1ea;" horiz-adv-x="1380" 
d="M504 -260q0 113 96 217q-247 34 -386.5 225.5t-139.5 493.5q0 328 169.5 521.5t446.5 193.5q278 0 447.5 -193t169.5 -522q0 -275 -110.5 -444t-326.5 -267q-69 -30 -103 -77t-34 -89q0 -30 18.5 -44.5t47.5 -14.5q32 0 63 22q24 16 37 -10l59 -123q4 -8 2 -16.5
t-8 -13.5q-40 -31 -97.5 -50.5t-109.5 -19.5q-101 0 -171 55.5t-70 155.5zM690 209q145 0 232.5 124.5t87.5 342.5q0 216 -87.5 336.5t-232.5 120.5t-233 -120.5t-88 -336.5q0 -218 88 -342.5t233 -124.5z" />
    <glyph glyph-name="uni01EB" unicode="&#x1eb;" horiz-adv-x="1124" 
d="M381 -246q0 111 84 207q-177 35 -291.5 179.5t-114.5 361.5q0 127 41 233t111 175.5t160.5 108t189.5 38.5q100 0 191.5 -38.5t161.5 -108t111.5 -175.5t41.5 -233q0 -201 -91 -328t-255 -201q-62 -29 -93.5 -75.5t-31.5 -92.5q0 -59 63 -59q37 0 64 21q24 16 37 -11
l53 -110q4 -8 2 -17t-8 -14q-37 -31 -93 -48.5t-108 -17.5q-96 0 -160.5 54t-64.5 151zM352 502q0 -145 56.5 -226t152.5 -81q97 0 155 81.5t58 225.5q0 146 -58 228.5t-155 82.5q-96 0 -152.5 -82.5t-56.5 -228.5z" />
    <glyph glyph-name="uni0218" unicode="&#x218;" horiz-adv-x="1116" 
d="M59 188l140 162q6 8 17 8.5t20 -6.5q71 -66 158 -105.5t171 -39.5q105 0 157 39.5t52 107.5q0 23 -4.5 41t-18 33.5t-25.5 26.5t-39.5 25t-46.5 22.5t-58 25.5l-185 80q-56 24 -102.5 55t-89.5 76t-67.5 108.5t-24.5 139.5q0 172 135.5 287t339.5 115q120 0 233.5 -47
t196.5 -130q7 -7 7.5 -17.5t-5.5 -16.5l-121 -152q-6 -8 -17 -9.5t-20 5.5q-66 55 -130.5 81.5t-143.5 26.5q-89 0 -137 -35t-48 -96q0 -25 11 -45.5t24 -34t44.5 -30.5t51 -25.5t66.5 -27.5l182 -76q135 -58 211 -150t76 -237q0 -179 -140 -300.5t-368 -121.5
q-140 0 -272 53.5t-230 149.5q-7 8 -6.5 18t6.5 16zM502 -68q125 -14 186.5 -59t61.5 -129q0 -56 -30.5 -99t-83.5 -68t-112.5 -39t-128.5 -19q-22 0 -26 20l-21 103q-2 10 4 18.5t19 9.5q52 6 87.5 16.5t49.5 21.5t14 22q0 22 -16.5 35.5t-61.5 23.5q-4 0 -9.5 2.5
t-10.5 11t4 23.5l49 94q6 16 25 12z" />
    <glyph glyph-name="uni0219" unicode="&#x219;" horiz-adv-x="882" 
d="M29 129l110 152q7 8 17 10.5t20 -4.5q138 -107 262 -107q135 0 135 94q0 40 -48 69.5t-150 68.5q-47 17 -83.5 34t-79.5 45t-71 60t-47.5 78.5t-19.5 99.5q0 145 108.5 236.5t284.5 91.5q188 0 350 -127q9 -6 9.5 -18t-5.5 -19l-108 -143q-6 -9 -17 -10t-18 5
q-111 80 -207 80q-123 0 -123 -84q0 -16 9.5 -30.5t23.5 -25.5t42 -23.5t52 -21.5t66 -24q42 -16 70 -28t68 -33.5t66 -45t51 -56t37.5 -74.5t12.5 -92q0 -146 -111.5 -241t-304.5 -95q-105 0 -212 39.5t-185 103.5q-8 6 -9 16.5t5 18.5zM401 -68q126 -14 187 -58.5
t61 -129.5q0 -56 -30.5 -99t-83 -68t-112 -39t-128.5 -19q-24 0 -27 20l-18 103q-2 10 4.5 18.5t17.5 9.5q51 6 87 16.5t50.5 21.5t14.5 22q0 22 -17 35.5t-61 23.5q-30 10 -16 37l47 94q6 16 24 12z" />
    <glyph glyph-name="uni021A" unicode="&#x21a;" horiz-adv-x="1118" 
d="M414 0v1114h-361q-11 0 -17.5 8t-6.5 17v200q0 11 8 19t16 8h1012q11 0 18 -9t7 -18v-200q0 -11 -8 -18t-17 -7h-363v-1114q0 -11 -8 -18t-16 -7h-238q-11 0 -18.5 8.5t-7.5 16.5zM496 -68q125 -14 185 -58.5t60 -129.5q0 -56 -30 -99t-82.5 -68t-111.5 -39t-128 -19
q-24 0 -27 20l-18 103q-2 9 4.5 18t18.5 10q51 6 86 16.5t49 21.5t14 22q0 22 -16.5 35.5t-59.5 23.5q-30 10 -16 37l47 94q6 16 25 12z" />
    <glyph glyph-name="uni021B" unicode="&#x21b;" horiz-adv-x="739" 
d="M160 340l-2 455h-117q-11 0 -19 8t-8 16v176q0 10 8 17.5t17 7.5l135 10l27 252q4 25 24 25h197q11 0 17.5 -9t6.5 -18v-248h232q11 0 17.5 -8.5t6.5 -17.5v-187q0 -11 -7.5 -17.5t-16.5 -6.5h-232v-455q0 -82 28 -116t89 -34q47 0 94 19q29 10 35 -16l41 -175
q4 -23 -16 -30q-117 -37 -213 -37q-91 0 -158.5 28.5t-107.5 82t-59 122.5t-19 156zM395 -68q125 -14 185.5 -58.5t60.5 -129.5q0 -56 -30 -99t-82.5 -68t-111.5 -39t-128 -19q-10 0 -17.5 6t-9.5 14l-20 103q-4 25 22 28q52 6 88 16.5t50 21.5t14 22q0 22 -16.5 35.5
t-59.5 23.5q-30 10 -16 37l47 94q6 16 24 12z" />
    <glyph glyph-name="uni0237" unicode="&#x237;" horiz-adv-x="538" 
d="M127 -55v1061q0 11 8.5 18.5t16.5 7.5h237q11 0 19 -9t8 -17v-1057q0 -85 -18.5 -154.5t-58 -124.5t-108 -85.5t-161.5 -30.5q-96 0 -172 26q-9 3 -14 12.5t-3 18.5l45 176q8 24 33 18q47 -14 78 -14q51 0 70.5 33t19.5 121z" />
    <glyph glyph-name="uni0243" unicode="&#x243;" horiz-adv-x="1261" 
d="M477 199h174q287 0 287 223q0 104 -71 154.5t-216 50.5h-174v-119h256q11 0 18 -9t7 -18v-121q0 -11 -8 -17.5t-17 -6.5h-256v-137zM477 1143v-320h141q131 0 188.5 43.5t57.5 126.5q0 78 -56 114t-183 36h-148zM965 743q122 -37 187 -122.5t65 -214.5q0 -108 -42 -191.5
t-116 -135t-171 -78t-212 -26.5h-463q-11 0 -18 8t-7 17v336h-131q-11 0 -17.5 7.5t-6.5 16.5v111q0 10 6.5 17.5t15.5 7.5l133 10v833q0 11 8.5 19t16.5 8h428q108 0 195.5 -18.5t158 -58.5t109.5 -109.5t39 -163.5q0 -87 -45.5 -160t-132.5 -113z" />
    <glyph glyph-name="uni0251" unicode="&#x251;" horiz-adv-x="1155" 
d="M356 504q0 -155 53 -231t150 -76q100 0 186 96v446q-90 72 -180 72q-87 0 -148 -80.5t-61 -226.5zM61 502q0 123 38 228.5t102 176t147 110.5t172 40q140 0 260 -105l13 58q1 9 8.5 15.5t15.5 6.5h189q11 0 18.5 -8.5t7.5 -17.5v-1006q0 -11 -8.5 -18t-17.5 -7h-195
q-21 0 -25 21l-10 67q-129 -112 -274 -112q-203 0 -322 148t-119 403z" />
    <glyph glyph-name="uni0259" unicode="&#x259;" horiz-adv-x="1038" 
d="M49 461q0 59 12 117q3 18 25 18h610q-38 225 -237 225q-109 0 -226 -71q-24 -12 -36 10l-80 145q-4 9 -2 18.5t10 14.5q172 119 373 119q211 0 347 -151t136 -402q0 -124 -38 -229t-103.5 -175.5t-153 -109.5t-186.5 -39q-211 0 -331 140.5t-120 369.5zM305 397
q12 -213 189 -213q80 0 133 52.5t71 160.5h-393z" />
    <glyph glyph-name="uni0261" unicode="&#x261;" horiz-adv-x="1169" 
d="M260 -127q129 -80 272 -80q111 0 163 48.5t57 140.5l2 96q-117 -86 -246 -86q-198 0 -318 146.5t-120 381.5q0 118 38 220t101.5 170.5t146 107.5t170.5 39q144 0 258 -99l11 52q1 9 8.5 15.5t15.5 6.5h193q11 0 17.5 -8.5t6.5 -17.5v-1026q0 -202 -133.5 -314
t-370.5 -112q-93 0 -195 30.5t-187 85.5q-19 16 -9 33l82 160q3 9 13 12.5t24 -2.5zM567 238q100 0 185 98v403q-86 72 -181 72q-87 0 -148 -78t-61 -211q0 -139 54 -211.5t151 -72.5z" />
    <glyph glyph-name="h.sups" unicode="&#x2b0;" horiz-adv-x="768" 
d="M70 541v954q0 11 8.5 18t17.5 7h170q11 0 18 -8t7 -17v-246v-2l-4 -65q88 67 186 67q123 0 180.5 -80t57.5 -213v-415q0 -11 -9 -18t-18 -7h-172q-11 0 -18 8t-7 17v393q0 71 -14.5 95t-62.5 24q-55 0 -119 -64v-448q0 -11 -8 -18t-17 -7h-170q-11 0 -18.5 8.5t-7.5 16.5
z" />
    <glyph glyph-name="j.sups" unicode="&#x2b2;" horiz-adv-x="368" 
d="M51 229q-148 0 -137 47l33 130q2 10 11 16.5t24 -0.5q18 -6 45 -6q29 0 38 16t9 72v704q0 11 8.5 18t17.5 7h170q11 0 18 -8t7 -17v-696q0 -127 -58.5 -205t-185.5 -78zM186 1290q-56 0 -92.5 33.5t-36.5 87.5q0 53 36.5 86t92.5 33q54 0 92.5 -33t38.5 -86t-38.5 -87
t-92.5 -34z" />
    <glyph glyph-name="r.sups" unicode="&#x2b3;" horiz-adv-x="524" 
d="M70 541v667q0 11 8.5 18t17.5 7h137q21 0 25 -21l8 -59q78 96 178 96q45 0 78.5 -10.5t28.5 -36.5l-31 -147q-4 -17 -18.5 -18.5t-40 4.5t-35.5 6q-83 0 -133 -111v-395q0 -11 -8 -18t-17 -7h-172q-11 0 -18.5 8.5t-7.5 16.5z" />
    <glyph glyph-name="w.sups" unicode="&#x2b7;" horiz-adv-x="1034" 
d="M184 535l-176 667l-1 4q-1 5 -0.5 8.5t2.5 8.5t8 7.5t16 2.5h172q20 0 24 -19l74 -337l16 -82l17 82v2l88 335q6 19 25 19h143q20 0 24 -19l93 -335l18 -91q9 49 92 426q3 19 25 19h157h7t10 -3t8 -9.5v-18.5l-168 -667q-3 -19 -24 -19h-201q-21 0 -25 19l-73 296l-17 74
l-14 -71v-3l-74 -296q-3 -19 -24 -19h-197q-21 0 -25 19z" />
    <glyph glyph-name="y.sups" unicode="&#x2b8;" horiz-adv-x="688" 
d="M98 444q25 -10 41 -10q78 0 107 92l10 27l-264 645q-1 1 -1.5 3.5t-1.5 8.5t0.5 10.5t8.5 8.5t18 4h172q21 0 25 -16l111 -314q8 -26 34 -117q4 13 35 115l90 313q8 19 25 19h164h3.5t8.5 -1t8.5 -4.5t5.5 -10t-2 -17.5l-235 -686q-50 -130 -120.5 -197t-188.5 -67
q-19 0 -37 1.5t-39.5 5.5t-33 14t-7.5 24l31 131q2 10 10.5 16.5t21.5 1.5z" />
    <glyph glyph-name="uni02B9" unicode="&#x2b9;" horiz-adv-x="563" 
d="M139 809l45 602q0 9 8 17t17 8h235q10 0 19 -6.5t6 -24.5l-43 -252v-2l-84 -350q-1 -8 -9 -13.5t-16 -5.5h-153q-10 0 -18 8t-7 19z" />
    <glyph glyph-name="uni02BB" unicode="&#x2bb;" horiz-adv-x="563" 
d="M391 1423l58 -104q5 -9 1.5 -20t-12.5 -15q-76 -45 -112.5 -93t-42.5 -116q64 -3 108.5 -44t44.5 -107q0 -73 -46 -119.5t-116 -46.5q-90 0 -137 68t-47 184q0 283 266 424q9 4 19.5 0.5t15.5 -11.5z" />
    <glyph glyph-name="uni02BC" unicode="&#x2bc;" horiz-adv-x="563" 
d="M172 788l-57 105q-5 9 -2 20t12 15q77 45 113.5 93t42.5 116q-63 3 -107.5 44t-44.5 107q0 73 45.5 120.5t114.5 47.5q91 0 138.5 -69t47.5 -185q0 -284 -268 -424q-9 -5 -20 -2t-15 12z" />
    <glyph glyph-name="uni02BE" unicode="&#x2be;" horiz-adv-x="321" 
d="M33 1116l-2 92q0 11 9 19t17 8q55 0 76 20t21 60q0 42 -20.5 62t-76.5 20q-11 0 -18.5 8t-7.5 16v95q0 10 8 17t18 7q128 4 200.5 -58t72.5 -167q0 -106 -72 -166.5t-201 -56.5q-10 0 -17 7.5t-7 16.5z" />
    <glyph glyph-name="uni02BF" unicode="&#x2bf;" horiz-adv-x="337" 
d="M303 1516v-95q0 -11 -7.5 -17.5t-16.5 -6.5q-56 0 -76.5 -20t-20.5 -62q0 -40 21 -60t76 -20q11 0 17.5 -9t6.5 -18v-92q0 -10 -7.5 -17t-16.5 -7q-127 -4 -199 56.5t-72 166.5t72 168.5t199 58.5q10 0 17 -8t7 -18z" />
    <glyph glyph-name="circumflex" unicode="&#x2c6;" horiz-adv-x="1124" 
d="M252 1188l194 299q5 10 21 10h190q14 0 21 -10l194 -299q1 -2 3 -4.5t4 -9.5t1.5 -12.5t-7.5 -10t-21 -4.5h-164q-12 0 -20 12l-107 150l-106 -150q-8 -12 -21 -12h-162h-5t-9.5 2.5t-10.5 6.5t-3.5 12.5t8.5 19.5z" />
    <glyph glyph-name="caron" unicode="&#x2c7;" horiz-adv-x="1124" 
d="M446 1159l-194 299q-1 2 -3 4.5t-4 9.5t-1.5 12.5t7.5 10t21 4.5h162q13 0 21 -12l106 -150l107 150q7 10 20 10h164h5t9.5 -2t10.5 -5.5t3.5 -12t-8.5 -19.5l-194 -299q-6 -12 -21 -12h-190q-13 0 -21 12z" />
    <glyph glyph-name="uni02C8" unicode="&#x2c8;" horiz-adv-x="268" 
d="M25 1098l-13 393q0 25 25 25h194q25 0 25 -25l-12 -393q0 -10 -8 -17.5t-17 -7.5h-170q-10 0 -17 8t-7 17z" />
    <glyph glyph-name="uni02C9" unicode="&#x2c9;" horiz-adv-x="600" 
d="M8 1221v155q0 11 8.5 19t16.5 8h534q11 0 19 -9t8 -18v-155q0 -11 -9 -18t-18 -7h-534q-11 0 -18 8t-7 17z" />
    <glyph glyph-name="uni02CA" unicode="&#x2ca;" horiz-adv-x="471" 
d="M522 1456l-243 -299q-7 -10 -21 -10h-174h-5t-10 2.5t-11 6.5t-4 12.5t7 19.5l183 299q5 10 22 10h236q2 0 5.5 -0.5t11 -3t11 -6.5t2.5 -12t-10 -19z" />
    <glyph glyph-name="uni02CB" unicode="&#x2cb;" horiz-adv-x="471" 
d="M188 1157l-241 299q-1 2 -3 5t-4.5 10t-2 13t8 10.5t21.5 4.5h234q16 0 22 -12l185 -299q1 -2 2.5 -4.5t3.5 -9.5t0.5 -12.5t-8.5 -10t-21 -4.5h-176q-14 0 -21 10z" />
    <glyph glyph-name="uni02CC" unicode="&#x2cc;" horiz-adv-x="268" 
d="M49 -113h170q10 0 17.5 -8.5t7.5 -17.5l12 -393q0 -25 -25 -25h-194q-25 0 -25 25l13 393q0 10 7.5 18t16.5 8z" />
    <glyph glyph-name="breve" unicode="&#x2d8;" horiz-adv-x="1124" 
d="M561 1151q-72 0 -129 26t-91.5 69.5t-53.5 94.5t-21 107q0 11 7 19t18 8h135q9 0 16.5 -6t8.5 -15q8 -54 35.5 -86.5t74.5 -32.5q49 0 77 31.5t34 85.5q3 23 24 23h138q11 0 18.5 -7.5t7.5 -19.5q-2 -56 -21.5 -107.5t-54.5 -94.5t-93 -69t-130 -26z" />
    <glyph glyph-name="dotaccent" unicode="&#x2d9;" horiz-adv-x="1124" 
d="M561 1155q-70 0 -117 46t-47 116q0 68 47 113t117 45q71 0 118.5 -44.5t47.5 -113.5q0 -70 -47.5 -116t-118.5 -46z" />
    <glyph glyph-name="ring" unicode="&#x2da;" horiz-adv-x="1124" 
d="M561 1090q-102 0 -169.5 63t-67.5 162q0 100 67.5 163.5t169.5 63.5q104 0 171 -63.5t67 -163.5q0 -99 -67.5 -162t-170.5 -63zM561 1235q27 0 46.5 22t19.5 58q0 38 -19 60t-47 22q-26 0 -45.5 -22t-19.5 -60q0 -37 19.5 -58.5t45.5 -21.5z" />
    <glyph glyph-name="ogonek" unicode="&#x2db;" horiz-adv-x="1124" 
d="M381 -246q0 86 47.5 157.5t108.5 115.5q6 6 14 6h143q2 -1 5.5 -2.5t11 -6t11 -9.5t1.5 -13t-12 -16q-115 -90 -115 -181q0 -59 63 -59q34 0 62 21q3 3 9 5.5t15.5 -1t14.5 -15.5l53 -110q4 -8 2 -17t-8 -14q-37 -31 -93 -48.5t-108 -17.5q-96 0 -160.5 54t-64.5 151z
" />
    <glyph glyph-name="tilde" unicode="&#x2dc;" horiz-adv-x="1124" 
d="M225 1184q12 124 67 197t146 73q53 0 104 -24.5t86 -49t48 -24.5q35 0 49 78q1 9 9 14.5t16 5.5h124q27 0 25 -27q-12 -125 -67.5 -198.5t-147.5 -73.5q-40 0 -81 15.5t-67 33.5t-51 33.5t-39 15.5q-15 0 -27 -14.5t-20 -60.5q-1 -9 -8.5 -15t-15.5 -6h-125q-27 0 -25 27
z" />
    <glyph glyph-name="hungarumlaut" unicode="&#x2dd;" horiz-adv-x="1124" 
d="M309 1182l144 301q8 16 22 16h195h5t10 -2.5t11 -6.5t4 -12.5t-8 -19.5l-188 -301q-5 -10 -23 -10h-149h-4.5t-9 0.5t-9 4.5t-5 11t4.5 19zM637 1182l141 301q6 16 23 16h194h5t10.5 -2.5t11.5 -6.5t4 -12.5t-8 -19.5l-189 -301q-5 -10 -22 -10h-148h-4t-8.5 0.5
t-9.5 4.5t-5 11t5 19z" />
    <glyph glyph-name="l.sups" unicode="&#x2e1;" horiz-adv-x="376" 
d="M70 725v770q0 11 8.5 18t17.5 7h170q11 0 18 -8t7 -17v-778q0 -14 2 -21.5t3.5 -8t3.5 0.5h1q4 0 14 1.5t16 2t12.5 -4.5t8.5 -17l23 -125q9 -45 -115 -45q-190 0 -190 225z" />
    <glyph glyph-name="s.sups" unicode="&#x2e2;" horiz-adv-x="593" 
d="M14 629l76 108q14 20 35 6q95 -67 172 -67q76 0 76 49q0 16 -27 30t-102 44q-40 16 -69.5 32t-62.5 42.5t-51 64t-18 84.5q0 98 75 162.5t195 64.5q135 0 248 -86q8 -6 9 -17t-5 -20l-80 -102q-6 -8 -16 -9t-18 5q-76 51 -134 51q-63 0 -63 -41q0 -15 22 -27.5t77 -34.5
q17 -6 26 -10q34 -13 55.5 -22.5t53 -29.5t50 -41.5t32.5 -55.5t14 -74q0 -104 -80 -170.5t-211 -66.5q-71 0 -145 26.5t-130 69.5q-8 6 -9 16.5t5 18.5z" />
    <glyph glyph-name="x.sups" unicode="&#x2e3;" horiz-adv-x="671" 
d="M-6 555l209 334l-193 305q-1 2 -2.5 4.5t-3.5 9t-0.5 12t8.5 9.5t21 4h184q15 0 23 -12l54 -96t54 -95l92 191q6 12 23 12h180q0 -1 5 0t10.5 -1t10 -5t4.5 -11.5t-7 -19.5l-193 -328l203 -313q1 -2 2.5 -4.5t3.5 -9t0.5 -12t-8.5 -9.5t-21 -4h-182q-14 0 -22 12
q-5 9 -51 85.5t-70 115.5q-19 -34 -56 -100.5t-55 -100.5q-7 -14 -22 -14h-179h-5t-10 2.5t-11 6.5t-4 12.5t8 19.5z" />
    <glyph glyph-name="uni0300" unicode="&#x300;" 
d="M-45 1157l-242 299q-1 2 -3 5t-4 10t-1.5 13t8 10.5t21.5 4.5h233q17 0 23 -12l184 -299q1 -2 2.5 -4.5t3.5 -9.5t1 -12.5t-8 -10t-21 -4.5h-177q-13 0 -20 10z" />
    <glyph glyph-name="uni0301" unicode="&#x301;" 
d="M287 1456l-242 -299q-7 -10 -20 -10h-177h-5t-10 2.5t-11 6.5t-4 12.5t8 19.5l184 299q5 10 23 10h233q2 0 5.5 -0.5t11 -3t11.5 -6.5t3 -12t-10 -19z" />
    <glyph glyph-name="uni0302" unicode="&#x302;" 
d="M-311 1188l196 299q5 10 21 10h188q14 0 21 -10l196 -299q1 -2 3 -4.5t4 -9.5t1.5 -12.5t-7.5 -10t-21 -4.5h-164q-13 0 -21 12l-106 150l-106 -150q-8 -12 -21 -12h-164h-5t-9.5 2.5t-10.5 6.5t-3.5 12.5t8.5 19.5z" />
    <glyph glyph-name="uni0303" unicode="&#x303;" 
d="M-338 1184q12 124 68 198t147 74q53 0 103.5 -24.5t85.5 -49t49 -24.5q33 0 49 78q3 18 24 18h125q27 0 25 -27q-12 -124 -68 -198t-147 -74q-41 0 -82 15.5t-66.5 33.5t-50.5 33.5t-39 15.5q-33 0 -49 -77q-3 -19 -24 -19h-125q-27 0 -25 27z" />
    <glyph glyph-name="uni0304" unicode="&#x304;" 
d="M-291 1221v155q0 11 8.5 19t16.5 8h532q11 0 19 -9t8 -18v-155q0 -11 -9 -18t-18 -7h-532q-11 0 -18 8t-7 17z" />
    <glyph glyph-name="uni0306" unicode="&#x306;" 
d="M0 1151q-72 0 -129.5 26t-92 69.5t-53.5 94.5t-22 107q0 10 7 19.5t18 9.5h137q9 0 15.5 -7t8.5 -16q8 -54 36 -85.5t75 -31.5t75 31.5t36 85.5q2 9 8.5 16t15.5 7h137q9 0 17 -8.5t8 -20.5q-3 -56 -22 -107t-53.5 -94.5t-92 -69.5t-129.5 -26z" />
    <glyph glyph-name="uni0307" unicode="&#x307;" 
d="M0 1155q-71 0 -117.5 46t-46.5 116q0 69 46.5 113.5t117.5 44.5t118.5 -44.5t47.5 -113.5q0 -70 -47.5 -116t-118.5 -46z" />
    <glyph glyph-name="uni0308" unicode="&#x308;" 
d="M-190 1159q-63 0 -104.5 43.5t-41.5 106.5q0 61 41 103t105 42t106.5 -41.5t42.5 -103.5q0 -63 -42.5 -106.5t-106.5 -43.5zM190 1159q-64 0 -106.5 43.5t-42.5 106.5q0 62 42.5 103.5t106.5 41.5t105 -42t41 -103q0 -63 -41.5 -106.5t-104.5 -43.5z" />
    <glyph glyph-name="uni0309" unicode="&#x309;" 
d="M-90 1130l-21 99q-3 24 19 31q82 19 82 53q0 46 -142 53q-10 0 -18 6.5t-4 24.5l27 125q3 18 24 18q340 -13 340 -203q0 -55 -23.5 -96.5t-65 -67t-88.5 -40.5t-103 -21q-9 -2 -17.5 3.5t-9.5 14.5z" />
    <glyph glyph-name="uni030A" unicode="&#x30a;" 
d="M0 1090q-103 0 -170.5 63t-67.5 162q0 100 67 163.5t171 63.5t171 -63.5t67 -163.5q0 -99 -67.5 -162t-170.5 -63zM0 1235q28 0 47 21.5t19 58.5q0 38 -19 60t-47 22t-47 -22t-19 -60q0 -37 19 -58.5t47 -21.5z" />
    <glyph glyph-name="uni030B" unicode="&#x30b;" 
d="M-252 1182l143 301q8 16 23 16h192h5t10.5 -2.5t11.5 -6.5t4 -12.5t-8 -19.5l-186 -301q-5 -10 -23 -10h-149h-4.5t-9 0.5t-9 4.5t-5 11t4.5 19zM74 1182l143 301q8 16 23 16h194h5t10.5 -2.5t11.5 -6.5t4 -12.5t-8 -19.5l-189 -301q-5 -10 -22 -10h-150h-4t-8.5 0.5
t-9.5 4.5t-5 11t5 19z" />
    <glyph glyph-name="uni030C" unicode="&#x30c;" 
d="M-115 1159l-196 299q-1 2 -3 4.5t-4 9.5t-1.5 12.5t7.5 10t21 4.5h164q13 0 21 -12l106 -150l106 150q7 10 21 10h164h5t9.5 -2t10.5 -5.5t3.5 -12t-8.5 -19.5l-196 -299q-6 -12 -21 -12h-188q-13 0 -21 12z" />
    <glyph glyph-name="uni030F" unicode="&#x30f;" 
d="M109 1483l143 -301q1 -1 2 -3.5t2.5 -8.5t0 -10.5t-8 -8.5t-19.5 -4h-149q-18 0 -23 10l-186 301q-1 2 -2.5 4.5t-3.5 9.5t-0.5 12.5t8.5 10t21 4.5h192q15 0 23 -16zM-217 1483l143 -301q1 -1 2 -3.5t3 -8.5t0.5 -10.5t-8 -8.5t-19.5 -4h-150q-17 0 -22 10l-189 301
q-1 2 -2.5 4.5t-3.5 9.5t-0.5 12.5t8.5 10t21 4.5h194q15 0 23 -16z" />
    <glyph glyph-name="uni0312" unicode="&#x312;" 
d="M84 1536l41 -78q5 -9 2 -20t-14 -15q-84 -40 -103 -86q45 -5 77 -35.5t32 -80.5q0 -59 -35.5 -94t-87.5 -35q-70 0 -106.5 48t-36.5 132q0 90 49.5 162.5t148.5 113.5q21 7 33 -12z" />
    <glyph glyph-name="uni0313" unicode="&#x313;" 
d="M-88 1098l-41 80q-12 25 12 34q82 36 101 86q-44 5 -75.5 36.5t-31.5 80.5q0 59 35.5 94t87.5 35q70 0 106.5 -49t36.5 -131q0 -90 -50 -164t-148 -115q-9 -4 -18.5 0t-14.5 13z" />
    <glyph glyph-name="uni031B" unicode="&#x31b;" 
d="M-25 877l-18 102q-2 11 4 19.5t16 9.5q73 12 102.5 35t29.5 71q0 35 -25 76q-18 25 10 37l164 76q20 8 31 -7q59 -78 59 -166q0 -54 -19 -98t-51 -74t-76.5 -52t-94 -34t-105.5 -16q-10 -1 -17.5 5t-9.5 16z" />
    <glyph glyph-name="uni0323" unicode="&#x323;" 
d="M0 -467q-71 0 -117.5 45t-46.5 115q0 69 46.5 114.5t117.5 45.5t118.5 -45.5t47.5 -114.5q0 -70 -47.5 -115t-118.5 -45z" />
    <glyph glyph-name="uni0324" unicode="&#x324;" 
d="M-190 -451q-63 0 -104.5 42.5t-41.5 103.5q0 63 41 106t105 43t106.5 -43t42.5 -106q0 -62 -42.5 -104t-106.5 -42zM190 -451q-64 0 -106.5 42t-42.5 104q0 63 42.5 106t106.5 43t105 -43t41 -106q0 -61 -41.5 -103.5t-104.5 -42.5z" />
    <glyph glyph-name="uni0326" unicode="&#x326;" 
d="M-63 -68q124 -14 185.5 -59t61.5 -129q0 -56 -30.5 -99t-83 -68t-112 -39t-128.5 -19q-10 0 -17.5 6t-9.5 14l-20 103q-4 25 22 28q52 6 88 16.5t50 21.5t14 22q0 22 -16.5 35.5t-61.5 23.5q-4 0 -9.5 2.5t-10.5 11t4 23.5l49 94q6 16 25 12z" />
    <glyph glyph-name="uni0327" unicode="&#x327;" 
d="M-164 -141l82 159q8 15 23 15h143h4t8.5 -1t9.5 -5t5 -11.5t-5 -19.5l-34 -76q112 -53 112 -164q0 -56 -30.5 -99t-83 -68t-112 -39t-128.5 -19q-10 0 -17.5 6t-9.5 14l-20 103q-4 26 22 29q76 9 115 27.5t39 41.5q0 42 -106 70q-31 10 -17 37z" />
    <glyph glyph-name="uni0328" unicode="&#x328;" 
d="M-180 -246q0 85 46 156.5t105 116.5q6 6 17 6h145q2 -1 5.5 -2.5t11 -6t11 -9.5t1.5 -13t-12 -16q-115 -88 -115 -181q0 -59 63 -59q34 0 62 21q3 3 9 5.5t15.5 -1t14.5 -15.5l53 -110q4 -8 2 -17t-8 -14q-36 -31 -93.5 -48.5t-107.5 -17.5q-97 0 -161 54t-64 151z" />
    <glyph glyph-name="uni032E" unicode="&#x32e;" 
d="M0 -451q-72 0 -129.5 25.5t-92 68.5t-53.5 94t-22 107q0 10 7 19.5t18 9.5h137q9 0 15.5 -7t8.5 -16q17 -114 111 -114t111 114q2 9 8.5 16t15.5 7h137q9 0 17 -8.5t8 -20.5q-3 -56 -22 -107t-53.5 -94t-92 -68.5t-129.5 -25.5z" />
    <glyph glyph-name="uni0331" unicode="&#x331;" 
d="M291 -213v-156q0 -11 -8 -17.5t-17 -6.5h-534q-11 0 -19 8t-8 16v156q0 11 9 19t18 8h534q11 0 18 -9t7 -18z" />
    <glyph glyph-name="pi" unicode="&#x3c0;" horiz-adv-x="1196" 
d="M193 0v791h-150q-11 0 -19 9t-8 17v178q0 10 8 17.5t17 7.5l147 10h2h947q11 0 17.5 -7.5t6.5 -16.5v-189q0 -11 -8 -18.5t-16 -7.5h-121v-525q0 -39 12.5 -55t28.5 -16q4 0 23.5 5t31 1t14.5 -21l31 -176q3 -18 -14 -27q-56 -26 -146 -26q-268 0 -268 328v512h-252v-791
q0 -11 -8 -18t-16 -7h-234q-11 0 -18.5 8.5t-7.5 16.5z" />
    <glyph glyph-name="a.sups" unicode="&#x1d43;" horiz-adv-x="720" 
d="M272 500q-103 0 -166 63t-63 160q0 118 97.5 181.5t293.5 84.5q-6 40 -24.5 57t-61.5 17q-74 0 -182 -64q-9 -5 -20 -1.5t-15 12.5l-61 112q-4 9 -2 19.5t10 15.5q144 92 299 92q136 0 209 -82t73 -233v-393q0 -11 -9 -19t-17 -8h-137q-9 0 -16 6.5t-9 14.5l-8 36
q-92 -71 -191 -71zM328 682q48 0 110 53v103q-178 -23 -178 -101q0 -30 15 -42.5t53 -12.5z" />
    <glyph glyph-name="b.sups" unicode="&#x1d47;" horiz-adv-x="778" 
d="M70 541v954q0 11 8.5 18t17.5 7h170q11 0 18 -8t7 -17v-246v-2l-2 -53q85 57 162 57q136 0 213 -101t77 -263q0 -176 -90 -281.5t-219 -105.5q-95 0 -174 67l-6 -32q-3 -19 -25 -19h-131q-11 0 -18.5 8.5t-7.5 16.5zM291 725q50 -37 106 -37q50 0 84.5 48.5t34.5 148.5
q0 92 -27.5 134t-82.5 42t-115 -57v-279z" />
    <glyph glyph-name="d.sups" unicode="&#x1d48;" horiz-adv-x="778" 
d="M340 500q-142 0 -222.5 103.5t-80.5 283.5q0 159 92 261.5t215 102.5q77 0 145 -45l-2 54v2v233q0 11 8.5 19t16.5 8h170q11 0 19 -9t8 -18v-954q0 -11 -9 -18t-18 -7h-139q-22 0 -25 19l-6 30q-82 -65 -172 -65zM385 688q50 0 102 55v277q-51 43 -106 43
q-48 0 -83.5 -46.5t-35.5 -129.5q0 -107 30.5 -153t92.5 -46z" />
    <glyph glyph-name="e.sups" unicode="&#x1d49;" horiz-adv-x="698" 
d="M676 909q0 -102 -35 -102h-393q29 -125 162 -125q82 0 143 41q7 6 19 4t18 -12l59 -105q10 -21 -8 -32q-119 -78 -252 -78q-156 0 -258 101t-102 273q0 165 99 270t241 105q80 0 141.5 -30.5t96.5 -81t52 -108.5t17 -120zM246 961h231q-14 104 -106 104q-99 0 -125 -104z
" />
    <glyph glyph-name="g.sups" unicode="&#x1d4d;" horiz-adv-x="720" 
d="M221 449q0 -28 34 -47t105 -19q68 0 109 25t41 51q0 17 -18.5 26t-69.5 9h-88q-57 0 -84 6q-29 -25 -29 -51zM29 422q0 86 80 143q-46 43 -46 113q0 72 62 127q-78 71 -78 178q0 125 86.5 195.5t210.5 70.5q62 0 111 -18h233q11 0 19 -8.5t8 -16.5v-127q0 -11 -9 -18.5
t-18 -7.5h-74q17 -42 17 -76q0 -120 -83 -187t-204 -67q-47 0 -82 12q-10 -13 -10 -28q0 -10 2.5 -15t21.5 -10.5t56 -5.5h119q274 0 274 -191q0 -117 -109.5 -189.5t-283.5 -72.5q-132 0 -217.5 49t-85.5 150zM344 881q37 0 61.5 26.5t24.5 75.5q0 48 -24 72t-62 24
q-86 0 -86 -96q0 -50 23.5 -76t62.5 -26z" />
    <glyph glyph-name="k.sups" unicode="&#x1d4f;" horiz-adv-x="724" 
d="M70 541v954q0 11 8.5 18t17.5 7h170q11 0 18 -8t7 -17v-518l196 248q5 8 21 8h186q2 0 5.5 -0.5t11 -3t11.5 -6.5t3 -12t-10 -19l-226 -264l248 -373q1 -2 3 -4.5t4 -9t1.5 -12t-7.5 -9.5t-21 -4h-187q-17 0 -22 10l-152 250l-65 -80v-155q0 -11 -8 -18t-17 -7h-170
q-11 0 -18.5 8.5t-7.5 16.5z" />
    <glyph glyph-name="m.sups" unicode="&#x1d50;" horiz-adv-x="1163" 
d="M70 541v667q0 11 8.5 18t17.5 7h137q21 0 25 -21l8 -47q87 84 193 84q130 0 192 -100q108 100 213 100q119 0 178.5 -80.5t59.5 -212.5v-415q0 -11 -9 -18t-18 -7h-170q-11 0 -17.5 8t-6.5 17v393q0 69 -16.5 94t-61.5 25q-43 0 -105 -62v-450q0 -11 -8.5 -18t-17.5 -7
h-172q-11 0 -18 8t-7 17v393q0 69 -16.5 94t-61.5 25q-41 0 -106 -62v-450q0 -11 -8 -18t-17 -7h-170q-11 0 -18.5 8.5t-7.5 16.5z" />
    <glyph glyph-name="o.sups" unicode="&#x1d52;" horiz-adv-x="755" 
d="M377 500q-145 0 -246.5 102t-101.5 270q0 171 101.5 274t246.5 103t246.5 -103t101.5 -274q0 -168 -101.5 -270t-246.5 -102zM377 688q58 0 90.5 47.5t32.5 136.5q0 92 -32.5 140.5t-90.5 48.5t-90.5 -48.5t-32.5 -140.5q0 -89 32.5 -136.5t90.5 -47.5z" />
    <glyph glyph-name="p.sups" unicode="&#x1d56;" horiz-adv-x="778" 
d="M70 264v944q0 11 8.5 18t17.5 7h135q9 0 16 -6.5t9 -14.5l8 -34q94 73 187 73q136 0 213 -101t77 -263q0 -176 -90 -281.5t-219 -105.5q-81 0 -145 43l4 -74v-2v-203q0 -11 -8.5 -18.5t-16.5 -7.5h-170q-11 0 -18.5 8.5t-7.5 17.5zM291 725q50 -37 106 -37
q50 0 84.5 48.5t34.5 148.5q0 92 -27.5 134t-82.5 42t-115 -57v-279z" />
    <glyph glyph-name="t.sups" unicode="&#x1d57;" horiz-adv-x="503" 
d="M98 774v275h-69q-11 0 -18 8t-7 16v127q0 9 7 16t16 9l82 8l18 158q1 10 8.5 17t16.5 7h143q11 0 19 -9t8 -17v-154h141q11 0 18.5 -9t7.5 -18v-135q0 -11 -8.5 -17.5t-17.5 -6.5h-141v-275q0 -50 15.5 -69t49.5 -19q39 0 57 8q4 3 10.5 4t14 -3.5t10.5 -16.5l33 -123
q3 -10 -2 -19t-14 -12q-82 -24 -154 -24q-126 0 -185 74.5t-59 199.5z" />
    <glyph glyph-name="u.sups" unicode="&#x1d58;" horiz-adv-x="772" 
d="M303 500q-121 0 -179 78.5t-58 209.5v420q0 11 8 18t16 7h172q11 0 19 -8.5t8 -16.5v-397q0 -70 14 -93.5t62 -23.5q54 0 118 64v450q0 11 8 18t17 7h170q11 0 19 -8.5t8 -16.5v-667q0 -11 -9 -18t-18 -7h-135q-22 0 -25 19l-10 49q-99 -84 -205 -84z" />
    <glyph glyph-name="v.sups" unicode="&#x1d5b;" horiz-adv-x="692" 
d="M223 532l-231 668q-1 1 -1.5 3.5t-1 8t1 10t8 8t17.5 3.5h170q22 0 25 -16q54 -179 137 -467q38 133 139 467q6 16 25 16h164h3.5t8.5 -1t8.5 -4.5t5.5 -10t-2 -17.5l-229 -668q-6 -16 -25 -16h-198q-21 0 -25 16z" />
    <glyph glyph-name="c.sups" unicode="&#x1d9c;" horiz-adv-x="634" 
d="M381 500q-156 0 -253 100t-97 274q0 169 104 272t252 103q74 0 132 -22.5t93 -55.5q14 -11 2 -32l-77 -111q-17 -21 -37 -6q-48 39 -99 39q-62 0 -104.5 -51.5t-42.5 -135.5q0 -87 41 -137.5t104 -50.5q67 0 119 45q25 19 39 -4l70 -111q5 -9 3 -19t-9 -15
q-102 -82 -240 -82z" />
    <glyph glyph-name="f.sups" unicode="&#x1da0;" horiz-adv-x="444" 
d="M510 1491l-33 -123q-4 -17 -19 -18t-40 5.5t-37 6.5q-57 0 -57 -92v-35h104q11 0 19 -9t8 -18v-133q0 -11 -9 -17.5t-18 -6.5h-104v-510q0 -11 -9 -18t-18 -7h-170q-11 0 -18 8t-7 17v510h-67q-11 0 -18 8t-7 16v125q0 21 23 25l69 6v31q0 79 25 141t84.5 102.5
t146.5 40.5q80 0 138 -24q18 -9 14 -31z" />
    <glyph glyph-name="z.sups" unicode="&#x1dbb;" horiz-adv-x="616" 
d="M20 541l3 92q0 6 4 14l282 402h-225q-11 0 -18 8t-7 16v135q0 11 8.5 19t16.5 8h487q11 0 19 -9t8 -18v-94q0 -2 -6 -14l-283 -398h273q11 0 17.5 -8.5t6.5 -17.5v-135q0 -11 -8 -18t-16 -7h-535q-11 0 -19 8.5t-8 16.5z" />
    <glyph glyph-name="uni1E06" unicode="&#x1e06;" horiz-adv-x="1222" 
d="M143 0v1339q0 11 9 19t18 8h428q87 0 160 -11t138 -37t110.5 -66.5t71.5 -102t26 -139.5q0 -91 -46.5 -169.5t-133.5 -121.5q121 -35 184 -118t63 -208q0 -140 -73 -236t-191.5 -139t-273.5 -43h-463q-11 0 -19 8.5t-8 16.5zM432 811h146q130 0 185.5 42.5t55.5 127.5
q0 77 -55.5 113t-181.5 36h-150v-319zM432 211h176q281 0 281 199q0 91 -67.5 135.5t-213.5 44.5h-176v-379zM922 -213v-156q0 -11 -8 -17.5t-17 -6.5h-537q-11 0 -17.5 7.5t-6.5 16.5v156q0 11 8 19t16 8h537q11 0 18 -9t7 -18z" />
    <glyph glyph-name="uni1E07" unicode="&#x1e07;" horiz-adv-x="1155" 
d="M123 0l2 1446q0 11 8.5 19t16.5 8h235q11 0 19 -9t8 -18v-373l-6 -112q135 96 264 96q199 0 311.5 -147.5t112.5 -389.5q0 -130 -37.5 -238.5t-101 -180t-146 -111t-172.5 -39.5q-139 0 -264 106l-13 -61q-1 -9 -8.5 -15t-15.5 -6h-186q-11 0 -19 8.5t-8 16.5zM412 266
q86 -69 176 -69q91 0 151 81t60 238q0 295 -193 295q-90 0 -194 -98v-447zM885 -213v-156q0 -11 -9 -17.5t-18 -6.5h-536q-11 0 -19 8t-8 16v156q0 11 9 19t18 8h536q11 0 19 -9t8 -18z" />
    <glyph glyph-name="uni1E0C" unicode="&#x1e0c;" horiz-adv-x="1280" 
d="M143 0v1339q0 11 9 19t18 8h358q321 0 498.5 -176.5t177.5 -513.5q0 -338 -175.5 -519.5t-487.5 -181.5h-371q-11 0 -19 8.5t-8 16.5zM432 219h80q196 0 296.5 111t100.5 346q0 233 -99.5 339.5t-297.5 106.5h-80v-903zM633 -467q-71 0 -118.5 45t-47.5 115
q0 69 47.5 114.5t118.5 45.5q69 0 116.5 -45.5t47.5 -114.5q0 -70 -47 -115t-117 -45z" />
    <glyph glyph-name="uni1E0D" unicode="&#x1e0d;" horiz-adv-x="1155" 
d="M61 502q0 123 37.5 228.5t100.5 175.5t144.5 109.5t170.5 39.5q129 0 236 -80l-5 104v2v365q0 11 8 17.5t17 6.5h236q11 0 18.5 -8t7.5 -16v-1446q0 -11 -9 -19t-17 -8h-195q-9 0 -16 7t-9 16l-10 67q-129 -112 -274 -112q-203 0 -322 148t-119 403zM356 504
q0 -156 53 -232.5t150 -76.5q98 0 186 98v446q-87 70 -180 70q-88 0 -148.5 -79.5t-60.5 -225.5zM629 -469q-70 0 -118 46t-48 116q0 68 48 112.5t118 44.5q71 0 117.5 -44t46.5 -113q0 -70 -46.5 -116t-117.5 -46z" />
    <glyph glyph-name="uni1E0E" unicode="&#x1e0e;" horiz-adv-x="1280" 
d="M143 0v1339q0 11 9 19t18 8h358q321 0 498.5 -176.5t177.5 -513.5q0 -338 -175.5 -519.5t-487.5 -181.5h-371q-11 0 -19 8.5t-8 16.5zM432 219h80q196 0 296.5 111t100.5 346q0 233 -99.5 339.5t-297.5 106.5h-80v-903zM926 -213v-156q0 -11 -9 -17.5t-18 -6.5h-534
q-11 0 -18 8t-7 16v156q0 11 8.5 19t16.5 8h534q11 0 19 -9t8 -18z" />
    <glyph glyph-name="uni1E0F" unicode="&#x1e0f;" horiz-adv-x="1155" 
d="M61 502q0 123 37.5 228.5t100.5 175.5t144.5 109.5t170.5 39.5q129 0 236 -80l-5 104v2v365q0 11 8 17.5t17 6.5h236q11 0 18.5 -8t7.5 -16v-1446q0 -11 -9 -19t-17 -8h-195q-9 0 -16 7t-9 16l-10 67q-129 -112 -274 -112q-203 0 -322 148t-119 403zM356 504
q0 -156 53 -232.5t150 -76.5q98 0 186 98v446q-87 70 -180 70q-88 0 -148.5 -79.5t-60.5 -225.5zM922 -213v-156q0 -11 -9 -18.5t-18 -7.5h-535q-11 0 -17.5 8.5t-6.5 17.5v156q0 11 8 18t16 7h535q11 0 19 -8.5t8 -16.5z" />
    <glyph glyph-name="uni1E16" unicode="&#x1e16;" horiz-adv-x="1101" 
d="M143 0v1339q0 11 9 19t18 8h807q11 0 19 -9t8 -18v-200q0 -11 -9 -18t-18 -7h-545v-293h457q11 0 17.5 -7.5t6.5 -16.5v-201q0 -11 -8 -19t-16 -8h-457v-342h565q11 0 19 -9t8 -17v-201q0 -11 -9 -18t-18 -7h-827q-11 0 -19 8.5t-8 16.5zM434 1747l174 238q8 12 21 12
h252q2 0 5.5 -1t10.5 -4.5t11 -8t2.5 -13t-11.5 -18.5l-235 -238q-6 -6 -19 -6h-190h-5.5t-10.5 2t-11 5.5t-3.5 12t9.5 19.5zM287 1483v155q0 11 8 19t16 8h545q11 0 18 -9t7 -18v-155q0 -11 -8 -18t-17 -7h-545q-11 0 -17.5 8t-6.5 17z" />
    <glyph glyph-name="uni1E17" unicode="&#x1e17;" horiz-adv-x="1038" 
d="M57 502q0 124 41.5 229.5t110 175t156.5 109t182 39.5q210 0 325 -139t115 -363q0 -69 -10 -117q-1 -9 -9 -14.5t-16 -5.5h-610q22 -114 91.5 -174t176.5 -60q104 0 219 72q7 5 19 2.5t18 -12.5l80 -148q4 -9 2 -18.5t-10 -14.5q-170 -112 -358 -112q-110 0 -205.5 38
t-166 108t-111 174.5t-40.5 230.5zM342 616h389q-12 205 -178 205q-77 0 -134 -53t-77 -152zM403 1509l168 220q5 8 21 8h211q2 0 5.5 -1t10.5 -4t11 -7.5t2.5 -12.5t-11.5 -18l-223 -219q-9 -9 -18 -9h-156q-2 0 -5.5 0.5t-10.5 3t-11 6.5t-3.5 13t9.5 20zM254 1221v155
q0 11 9 18t18 7h534q11 0 18 -8t7 -17v-155q0 -11 -8.5 -19t-16.5 -8h-534q-11 0 -19 9t-8 18z" />
    <glyph glyph-name="uni1E20" unicode="&#x1e20;" horiz-adv-x="1286" 
d="M74 666q0 166 51 303t140 228.5t211 141.5t263 50q245 0 418 -177q7 -8 6.5 -18t-6.5 -16l-131 -148q-6 -8 -17 -8.5t-20 6.5q-55 52 -110 77t-138 25q-169 0 -270.5 -121.5t-101.5 -336.5q0 -224 98.5 -343.5t286.5 -119.5q106 0 168 45v250h-230q-11 0 -17.5 8.5
t-6.5 17.5v195q0 11 8 18t16 7h467q11 0 19 -8.5t8 -16.5v-590q0 -10 -8 -18q-76 -75 -195.5 -120.5t-257.5 -45.5q-139 0 -258 48t-206.5 137.5t-137 225.5t-49.5 304zM442 1483v155q0 11 8.5 19t16.5 8h543q11 0 18.5 -9t7.5 -18v-155q0 -11 -8.5 -18t-17.5 -7h-543
q-11 0 -18 8t-7 17z" />
    <glyph glyph-name="uni1E21" unicode="&#x1e21;" horiz-adv-x="1064" 
d="M305 -147q0 -53 58.5 -86t173.5 -33q111 0 178 43t67 94q0 41 -32.5 58.5t-118.5 17.5h-137q-88 0 -132 10q-57 -49 -57 -104zM57 -182q0 127 129 219q-75 65 -75 172q0 105 100 190q-54 48 -87.5 118t-33.5 153q0 119 60 209t154.5 134t207.5 44q75 0 152 -25h356
q11 0 19 -9t8 -17v-175q0 -11 -9 -17.5t-18 -6.5h-137q37 -66 37 -145q0 -173 -116.5 -270t-291.5 -97q-63 0 -131 22q-29 -25 -29 -67q0 -33 27 -49.5t110 -16.5h179q393 0 393 -274q0 -166 -156.5 -273.5t-404.5 -107.5q-125 0 -222.5 30t-159 96.5t-61.5 162.5zM512 494
q64 0 107 46t43 130q0 82 -42.5 128t-107.5 46q-66 0 -108 -45.5t-42 -128.5q0 -85 42 -130.5t108 -45.5zM211 1221v155q0 11 8.5 19t16.5 8h534q11 0 19 -9t8 -18v-155q0 -11 -9 -18t-18 -7h-534q-11 0 -18 8t-7 17z" />
    <glyph glyph-name="uni1E24" unicode="&#x1e24;" horiz-adv-x="1357" 
d="M143 0v1339q0 11 9 18t18 7h238q11 0 17.5 -8t6.5 -17v-512h494v512q0 11 8 18t16 7h238q11 0 18.5 -8.5t7.5 -16.5v-1339q0 -11 -8.5 -18t-17.5 -7h-238q-11 0 -17.5 8t-6.5 17v569h-494v-569q0 -11 -8 -18t-16 -7h-238q-11 0 -19 8.5t-8 16.5zM678 -467
q-71 0 -118.5 45t-47.5 115q0 69 47.5 114.5t118.5 45.5q69 0 116.5 -45.5t47.5 -114.5q0 -70 -47 -115t-117 -45z" />
    <glyph glyph-name="uni1E25" unicode="&#x1e25;" horiz-adv-x="1142" 
d="M123 0l2 1446q0 11 8 17.5t17 6.5h235q11 0 19 -8t8 -16v-373l-6 -135q141 119 292 119q170 0 252 -112t82 -314v-631q0 -11 -8 -18t-16 -7h-236q-11 0 -19 8.5t-8 16.5v600q0 118 -29.5 160.5t-101.5 42.5q-54 0 -98 -25t-106 -86v-692q0 -11 -8 -18t-17 -7h-235
q-11 0 -19 8.5t-8 16.5zM594 -467q-71 0 -117.5 45t-46.5 115q0 69 46.5 114.5t117.5 45.5q70 0 118 -46t48 -114q0 -70 -48 -115t-118 -45z" />
    <glyph glyph-name="uni1E2A" unicode="&#x1e2a;" horiz-adv-x="1357" 
d="M143 0v1339q0 11 9 18t18 7h238q11 0 17.5 -8t6.5 -17v-512h494v512q0 11 8 18t16 7h238q11 0 18.5 -8.5t7.5 -16.5v-1339q0 -11 -8.5 -18t-17.5 -7h-238q-11 0 -17.5 8t-6.5 17v569h-494v-569q0 -11 -8 -18t-16 -7h-238q-11 0 -19 8.5t-8 16.5zM678 -451
q-72 0 -129.5 25.5t-92 68.5t-53.5 94t-22 107q0 10 7 19.5t18 9.5h137q9 0 15.5 -7t8.5 -16q17 -114 111 -114q93 0 110 114q2 9 9 16t16 7h137q9 0 17 -8.5t8 -20.5q-3 -56 -22.5 -107t-54 -94t-91.5 -68.5t-129 -25.5z" />
    <glyph glyph-name="uni1E2B" unicode="&#x1e2b;" horiz-adv-x="1142" 
d="M123 0l2 1446q0 11 8 17.5t17 6.5h235q11 0 19 -8t8 -16v-373l-6 -135q141 119 292 119q170 0 252 -112t82 -314v-631q0 -11 -8 -18t-16 -7h-236q-11 0 -19 8.5t-8 16.5v600q0 118 -29.5 160.5t-101.5 42.5q-54 0 -98 -25t-106 -86v-692q0 -11 -8 -18t-17 -7h-235
q-11 0 -19 8.5t-8 16.5zM592 -451q-72 0 -129 25.5t-91.5 68.5t-54 94t-22.5 107q0 10 6.5 19.5t17.5 9.5h138q9 0 15.5 -7t8.5 -16q17 -114 111 -114q93 0 110 114q2 9 9 16t16 7h137q9 0 17 -8.5t8 -20.5q-3 -56 -22 -107t-53.5 -94t-92 -68.5t-129.5 -25.5z" />
    <glyph glyph-name="uni1E34" unicode="&#x1e34;" horiz-adv-x="1222" 
d="M143 0v1339q0 11 9 18t18 7h238q11 0 17.5 -8t6.5 -17v-542l438 559q5 8 21 8h264q2 0 5.5 -0.5t10.5 -3t11 -6.5t3.5 -12t-9.5 -19l-402 -508l473 -803q1 -2 2.5 -4.5t3 -9t0.5 -12t-8 -9.5t-20 -4h-262q-13 0 -23 15l-344 598l-164 -203v-383q0 -11 -8 -18t-16 -7h-238
q-11 0 -19 8.5t-8 16.5zM965 -213v-156q0 -11 -8.5 -18.5t-16.5 -7.5h-537q-11 0 -18.5 8.5t-7.5 17.5v156q0 11 8.5 18t17.5 7h537q11 0 18 -8t7 -17z" />
    <glyph glyph-name="uni1E35" unicode="&#x1e35;" horiz-adv-x="1069" 
d="M123 0v1446q0 11 9 17.5t18 6.5h231q11 0 18 -8t7 -16v-838l333 414q7 10 21 10h258q2 0 5.5 -0.5t11 -3.5t11 -7t2.5 -12.5t-10 -19.5l-333 -395l370 -580q1 -2 2.5 -4.5t3.5 -9t1 -12t-8 -9.5t-21 -4h-256q-14 0 -23 13l-239 405l-129 -147v-246q0 -11 -8 -18t-17 -7
h-231q-11 0 -19 8.5t-8 16.5zM872 -213v-156q0 -11 -7.5 -17.5t-16.5 -6.5h-537q-11 0 -18.5 8t-7.5 16v156q0 11 9 19t17 8h537q11 0 17.5 -9t6.5 -18z" />
    <glyph glyph-name="uni1E36" unicode="&#x1e36;" horiz-adv-x="1028" 
d="M143 0v1339q0 11 9 18t18 7h238q11 0 17.5 -8t6.5 -17v-1112h533q11 0 18.5 -8.5t7.5 -17.5v-201q0 -11 -8.5 -18t-17.5 -7h-795q-11 0 -19 8.5t-8 16.5zM592 -467q-71 0 -118.5 45t-47.5 115q0 69 47.5 114.5t118.5 45.5t117.5 -45.5t46.5 -114.5q0 -70 -46.5 -115
t-117.5 -45z" />
    <glyph glyph-name="uni1E37" unicode="&#x1e37;" horiz-adv-x="555" 
d="M123 258l2 1188q0 11 8.5 19t16.5 8h235q11 0 19 -9t8 -18v-1200q0 -51 24 -51q5 0 18 1.5t20 1t14.5 -5.5t9.5 -16l30 -176q3 -20 -14 -27q-52 -22 -135 -22q-133 0 -194.5 82t-61.5 225zM369 -467q-70 0 -117 45t-47 115q0 69 47.5 114.5t116.5 45.5q71 0 118.5 -45.5
t47.5 -114.5q0 -70 -47.5 -115t-118.5 -45z" />
    <glyph glyph-name="uni1E38" unicode="&#x1e38;" horiz-adv-x="1028" 
d="M143 0v1339q0 11 9 18t18 7h238q11 0 17.5 -8t6.5 -17v-1112h533q11 0 18.5 -8.5t7.5 -17.5v-201q0 -11 -8.5 -18t-17.5 -7h-795q-11 0 -19 8.5t-8 16.5zM0 1483v155q0 11 8.5 19t16.5 8h542q11 0 19 -9t8 -18v-155q0 -11 -9 -18t-18 -7h-542q-11 0 -18 8t-7 17z
M592 -467q-71 0 -118.5 45t-47.5 115q0 69 47.5 114.5t118.5 45.5t117.5 -45.5t46.5 -114.5q0 -70 -46.5 -115t-117.5 -45z" />
    <glyph glyph-name="uni1E39" unicode="&#x1e39;" horiz-adv-x="555" 
d="M123 258l2 1188q0 11 8.5 19t16.5 8h235q11 0 19 -9t8 -18v-1200q0 -51 24 -51q5 0 18 1.5t20 1t14.5 -5.5t9.5 -16l30 -176q3 -20 -14 -27q-52 -22 -135 -22q-133 0 -194.5 82t-61.5 225zM-27 1663v156q0 11 8.5 18.5t16.5 7.5h534q11 0 19 -9t8 -17v-156q0 -11 -9 -18
t-18 -7h-534q-11 0 -18 8t-7 17zM369 -467q-70 0 -117 45t-47 115q0 69 47.5 114.5t116.5 45.5q71 0 118.5 -45.5t47.5 -114.5q0 -70 -47.5 -115t-118.5 -45z" />
    <glyph glyph-name="uni1E3A" unicode="&#x1e3a;" horiz-adv-x="1028" 
d="M143 0v1339q0 11 9 18t18 7h238q11 0 17.5 -8t6.5 -17v-1112h533q11 0 18.5 -8.5t7.5 -17.5v-201q0 -11 -8.5 -18t-17.5 -7h-795q-11 0 -19 8.5t-8 16.5zM885 -213v-156q0 -11 -9 -17.5t-18 -6.5h-534q-11 0 -18 8t-7 16v156q0 11 8.5 19t16.5 8h534q11 0 19 -9t8 -18z
" />
    <glyph glyph-name="uni1E3B" unicode="&#x1e3b;" horiz-adv-x="555" 
d="M123 258l2 1188q0 11 8.5 19t16.5 8h235q11 0 19 -9t8 -18v-1200q0 -51 24 -51q5 0 18 1.5t20 1t14.5 -5.5t9.5 -16l30 -176q3 -20 -14 -27q-52 -22 -135 -22q-133 0 -194.5 82t-61.5 225zM664 -213v-156q0 -11 -9 -17.5t-18 -6.5h-537q-11 0 -17.5 7.5t-6.5 16.5v156
q0 11 8 19t16 8h537q11 0 19 -9t8 -18z" />
    <glyph glyph-name="uni1E42" unicode="&#x1e42;" horiz-adv-x="1525" 
d="M143 0l2 1339q0 11 8 18t17 7h262q19 0 25 -16q261 -715 309 -854q48 141 303 854q6 16 25 16h262q11 0 18.5 -8.5t7.5 -16.5v-1339q0 -11 -8.5 -18t-17.5 -7h-223q-11 0 -18 8t-7 17v612q0 125 12 254q-40 -114 -85 -234.5t-107 -282.5t-88 -232q-8 -19 -25 -19h-110
q-17 0 -25 19l-231 608l-48 137q13 -143 13 -250v-612q0 -11 -8 -18t-17 -7h-219q-11 0 -19 8.5t-8 16.5zM766 -469q-71 0 -117.5 46t-46.5 116q0 69 46.5 113t117.5 44t118.5 -44.5t47.5 -112.5q0 -70 -47.5 -116t-118.5 -46z" />
    <glyph glyph-name="uni1E43" unicode="&#x1e43;" horiz-adv-x="1726" 
d="M123 0v1006q0 11 9 18.5t18 7.5h194q21 0 25 -24l12 -90q143 139 295 139q201 0 287 -162q78 78 152.5 120t162.5 42q169 0 253.5 -112.5t84.5 -313.5v-631q0 -11 -9 -18t-18 -7h-237q-11 0 -18 8t-7 17v600q0 116 -30.5 159.5t-98.5 43.5q-81 0 -186 -111v-692
q0 -11 -8 -18t-17 -7h-235q-11 0 -19 8.5t-8 16.5v600q0 117 -30 160t-99 43q-78 0 -186 -111v-692q0 -11 -8 -18t-17 -7h-235q-11 0 -19 8.5t-8 16.5zM887 -467q-71 0 -118.5 45t-47.5 115q0 69 47.5 114.5t118.5 45.5q69 0 116.5 -45.5t47.5 -114.5q0 -70 -47 -115
t-117 -45z" />
    <glyph glyph-name="uni1E44" unicode="&#x1e44;" horiz-adv-x="1343" 
d="M143 0v1339q0 11 9 18t18 7h244q14 0 22 -12l418 -754v-2l88 -180q-20 226 -20 342v581q0 11 8 18t16 7h228q11 0 18.5 -8.5t7.5 -16.5v-1339q0 -11 -8.5 -18t-17.5 -7h-244q-14 0 -23 13l-418 753v2l-88 181q21 -237 21 -338v-586q0 -11 -8 -18t-17 -7h-227
q-11 0 -19 8.5t-8 16.5zM676 1421q-73 0 -122.5 46t-49.5 116q0 69 49.5 113.5t122.5 44.5t121.5 -44t48.5 -114t-49 -116t-121 -46z" />
    <glyph glyph-name="uni1E45" unicode="&#x1e45;" horiz-adv-x="1146" 
d="M123 0v1006q0 11 9 18.5t18 7.5h194q10 0 16.5 -7t8.5 -15l12 -92q75 66 150.5 102.5t166.5 36.5q170 0 252 -112t82 -314v-631q0 -11 -8 -18t-16 -7h-236q-11 0 -19 8.5t-8 16.5v600q0 118 -29.5 160.5t-101.5 42.5q-54 0 -98 -25t-106 -86v-692q0 -11 -8 -18t-17 -7
h-235q-11 0 -19 8.5t-8 16.5zM614 1155q-71 0 -118 46t-47 116q0 69 47 113.5t118 44.5t117.5 -44.5t46.5 -113.5q0 -70 -46.5 -116t-117.5 -46z" />
    <glyph glyph-name="uni1E46" unicode="&#x1e46;" horiz-adv-x="1343" 
d="M143 0v1339q0 11 9 18t18 7h244q14 0 22 -12l418 -754v-2l88 -180q-20 226 -20 342v581q0 11 8 18t16 7h228q11 0 18.5 -8.5t7.5 -16.5v-1339q0 -11 -8.5 -18t-17.5 -7h-244q-14 0 -23 13l-418 753v2l-88 181q21 -237 21 -338v-586q0 -11 -8 -18t-17 -7h-227
q-11 0 -19 8.5t-8 16.5zM688 -467q-71 0 -117.5 45t-46.5 115q0 69 46.5 114.5t117.5 45.5t118.5 -45.5t47.5 -114.5q0 -70 -47.5 -115t-118.5 -45z" />
    <glyph glyph-name="uni1E47" unicode="&#x1e47;" horiz-adv-x="1146" 
d="M123 0v1006q0 11 9 18.5t18 7.5h194q10 0 16.5 -7t8.5 -15l12 -92q75 66 150.5 102.5t166.5 36.5q170 0 252 -112t82 -314v-631q0 -11 -8 -18t-16 -7h-236q-11 0 -19 8.5t-8 16.5v600q0 118 -29.5 160.5t-101.5 42.5q-54 0 -98 -25t-106 -86v-692q0 -11 -8 -18t-17 -7
h-235q-11 0 -19 8.5t-8 16.5zM586 -467q-71 0 -118.5 45t-47.5 115q0 69 47.5 114.5t118.5 45.5q69 0 116.5 -45.5t47.5 -114.5q0 -70 -47 -115t-117 -45z" />
    <glyph glyph-name="uni1E48" unicode="&#x1e48;" horiz-adv-x="1343" 
d="M143 0v1339q0 11 9 18t18 7h244q14 0 22 -12l418 -754v-2l88 -180q-20 226 -20 342v581q0 11 8 18t16 7h228q11 0 18.5 -8.5t7.5 -16.5v-1339q0 -11 -8.5 -18t-17.5 -7h-244q-14 0 -23 13l-418 753v2l-88 181q21 -237 21 -338v-586q0 -11 -8 -18t-17 -7h-227
q-11 0 -19 8.5t-8 16.5zM979 -213v-156q0 -11 -8 -17.5t-17 -6.5h-534q-11 0 -19 8t-8 16v156q0 11 9 19t18 8h534q11 0 18 -9t7 -18z" />
    </font>
</defs>
</svg>
